<svg xmlns="http://www.w3.org/2000/svg" xmlns:xlink="http://www.w3.org/1999/xlink" width="64" zoomAndPan="magnify" viewBox="0 0 48 48" height="64" preserveAspectRatio="xMidYMid meet" version="1.0"><defs><clipPath id="f3cf84ba31"><path d="M 13.3125 39 L 34.6875 39 L 34.6875 43.382812 L 13.3125 43.382812 Z M 13.3125 39 " clip-rule="nonzero"/></clipPath><clipPath id="e4dc7399d8"><path d="M 0.488281 3.203125 L 47.507812 3.203125 L 47.507812 36 L 0.488281 36 Z M 0.488281 3.203125 " clip-rule="nonzero"/></clipPath></defs><path fill="#efead8" d="M 17.546875 37.214844 L 30.453125 37.214844 L 30.453125 40.175781 L 17.546875 40.175781 L 17.546875 37.214844 " fill-opacity="1" fill-rule="nonzero"/><g clip-path="url(#f3cf84ba31)"><path fill="#efead8" d="M 34.527344 41.242188 C 34.527344 42.421875 33.53125 43.382812 32.304688 43.382812 L 15.703125 43.382812 C 14.46875 43.382812 13.476562 42.421875 13.476562 41.242188 C 13.476562 40.054688 14.46875 39.097656 15.703125 39.097656 L 32.304688 39.097656 C 33.53125 39.097656 34.527344 40.058594 34.527344 41.242188 " fill-opacity="1" fill-rule="nonzero"/></g><g clip-path="url(#e4dc7399d8)"><path fill="#efead8" d="M 44.4375 29.925781 L 3.5625 29.925781 L 3.5625 6.890625 C 3.5625 6.695312 3.703125 6.527344 3.871094 6.527344 L 44.128906 6.527344 C 44.296875 6.527344 44.4375 6.695312 44.4375 6.890625 Z M 24 34.308594 C 23.222656 34.308594 22.59375 33.679688 22.59375 32.902344 C 22.59375 32.132812 23.222656 31.503906 24 31.503906 C 24.777344 31.503906 25.410156 32.132812 25.410156 32.902344 C 25.410156 33.675781 24.777344 34.308594 24 34.308594 Z M 44.128906 3.464844 L 3.871094 3.464844 C 2.003906 3.464844 0.488281 5.003906 0.488281 6.890625 L 0.488281 32.464844 C 0.488281 34.351562 2.003906 35.886719 3.871094 35.886719 L 44.128906 35.886719 C 45.996094 35.886719 47.511719 34.351562 47.511719 32.464844 L 47.511719 6.894531 C 47.511719 5.003906 45.996094 3.464844 44.128906 3.464844 " fill-opacity="1" fill-rule="nonzero"/></g><path fill="#efead8" d="M 6.601562 20.160156 L 10.394531 23.933594 C 10.601562 24.136719 10.925781 24.136719 11.125 23.933594 L 12.417969 22.65625 C 12.617188 22.453125 12.617188 22.132812 12.417969 21.929688 L 8.984375 18.511719 C 8.78125 18.3125 8.78125 17.988281 8.984375 17.785156 L 12.417969 14.371094 C 12.617188 14.171875 12.617188 13.847656 12.417969 13.648438 L 11.125 12.363281 C 10.925781 12.164062 10.601562 12.164062 10.394531 12.363281 L 6.601562 16.144531 L 4.949219 17.785156 C 4.746094 17.988281 4.746094 18.3125 4.949219 18.511719 L 6.601562 20.160156 " fill-opacity="1" fill-rule="nonzero"/><path fill="#efead8" d="M 43.050781 18.511719 C 43.253906 18.3125 43.253906 17.988281 43.050781 17.785156 L 37.605469 12.363281 C 37.398438 12.164062 37.078125 12.164062 36.875 12.363281 L 35.589844 13.648438 C 35.386719 13.847656 35.386719 14.171875 35.589844 14.371094 L 39.019531 17.785156 C 39.21875 17.984375 39.21875 18.3125 39.019531 18.511719 L 35.589844 21.929688 C 35.386719 22.132812 35.386719 22.453125 35.589844 22.65625 L 36.875 23.933594 C 37.078125 24.132812 37.398438 24.132812 37.605469 23.933594 L 43.050781 18.511719 " fill-opacity="1" fill-rule="nonzero"/><path fill="#efead8" d="M 20.832031 27.003906 L 18.667969 25.914062 C 18.507812 25.828125 18.457031 25.613281 18.554688 25.421875 L 26.710938 9.492188 C 26.804688 9.300781 27.015625 9.210938 27.171875 9.289062 L 29.335938 10.386719 C 29.492188 10.472656 29.542969 10.6875 29.449219 10.878906 L 21.296875 26.808594 C 21.195312 27 20.992188 27.089844 20.832031 27.007812 L 20.832031 27.003906 " fill-opacity="1" fill-rule="nonzero"/><path fill="#efead8" d="M 12.359375 18.152344 C 12.359375 18.773438 12.863281 19.285156 13.492188 19.285156 L 15.121094 19.285156 L 15.121094 20.902344 C 15.121094 21.53125 15.632812 22.035156 16.265625 22.035156 C 16.894531 22.035156 17.40625 21.535156 17.40625 20.902344 L 17.40625 19.285156 L 19.027344 19.285156 C 19.660156 19.285156 20.171875 18.773438 20.171875 18.148438 C 20.171875 17.519531 19.660156 17.015625 19.027344 17.015625 L 17.40625 17.015625 L 17.40625 15.394531 C 17.40625 14.769531 16.894531 14.257812 16.265625 14.257812 C 15.632812 14.257812 15.121094 14.769531 15.121094 15.394531 L 15.121094 17.015625 L 13.492188 17.015625 C 12.867188 17.015625 12.359375 17.519531 12.359375 18.152344 " fill-opacity="1" fill-rule="nonzero"/><path fill="#efead8" d="M 34.183594 19.351562 C 34.898438 19.351562 35.472656 18.78125 35.472656 18.078125 C 35.472656 17.367188 34.898438 16.792969 34.183594 16.792969 C 33.480469 16.792969 32.902344 17.371094 32.902344 18.078125 C 32.902344 18.78125 33.480469 19.351562 34.183594 19.351562 " fill-opacity="1" fill-rule="nonzero"/><path fill="#efead8" d="M 32.996094 15.765625 C 32.996094 15.0625 32.425781 14.488281 31.710938 14.488281 C 31 14.488281 30.425781 15.0625 30.425781 15.765625 C 30.425781 16.472656 31 17.042969 31.710938 17.042969 C 32.425781 17.042969 32.996094 16.472656 32.996094 15.765625 " fill-opacity="1" fill-rule="nonzero"/><path fill="#efead8" d="M 33.15625 20.535156 C 33.15625 21.242188 32.582031 21.816406 31.867188 21.816406 C 31.160156 21.816406 30.582031 21.242188 30.582031 20.535156 C 30.582031 19.832031 31.160156 19.257812 31.867188 19.257812 C 32.582031 19.257812 33.15625 19.832031 33.15625 20.535156 " fill-opacity="1" fill-rule="nonzero"/><path fill="#efead8" d="M 30.683594 18.230469 C 30.683594 18.933594 30.105469 19.507812 29.398438 19.507812 C 28.6875 19.507812 28.113281 18.933594 28.113281 18.230469 C 28.113281 17.523438 28.6875 16.953125 29.398438 16.953125 C 30.105469 16.953125 30.683594 17.523438 30.683594 18.230469 " fill-opacity="1" fill-rule="nonzero"/></svg>