<svg xmlns="http://www.w3.org/2000/svg" xmlns:xlink="http://www.w3.org/1999/xlink" width="64" zoomAndPan="magnify" viewBox="0 0 48 48" height="64" preserveAspectRatio="xMidYMid meet" version="1.0"><defs><clipPath id="64f3c63400"><path d="M 6.5 0.0078125 L 23.351562 0.0078125 L 23.351562 19.3125 L 6.5 19.3125 Z M 6.5 0.0078125 " clip-rule="nonzero"/></clipPath><clipPath id="a3d72e76c7"><path d="M 0.488281 28 L 16 28 L 16 45.554688 L 0.488281 45.554688 Z M 0.488281 28 " clip-rule="nonzero"/></clipPath><clipPath id="19325088b2"><path d="M 27.496094 18.261719 L 47.507812 18.261719 L 47.507812 41.175781 L 27.496094 41.175781 Z M 27.496094 18.261719 " clip-rule="nonzero"/></clipPath><clipPath id="7a6a25b001"><path d="M 43 9 L 47.507812 9 L 47.507812 15 L 43 15 Z M 43 9 " clip-rule="nonzero"/></clipPath><clipPath id="ccd43735ee"><path d="M 40 12 L 47.507812 12 L 47.507812 21 L 40 21 Z M 40 12 " clip-rule="nonzero"/></clipPath></defs><path fill="#058288" d="M 9.753906 11.03125 L 24.179688 19.296875 L 9.753906 27.566406 Z M 9.753906 11.03125 " fill-opacity="1" fill-rule="nonzero"/><path fill="#069ea6" d="M 7.800781 23.035156 L 4.535156 21.167969 L 7.800781 19.296875 Z M 7.800781 23.035156 " fill-opacity="1" fill-rule="nonzero"/><path fill="#393e46" d="M 8.027344 28.28125 L 4.085938 26.023438 L 8.027344 23.761719 Z M 8.027344 28.28125 " fill-opacity="1" fill-rule="nonzero"/><path fill="#069ea6" d="M 7.800781 18.269531 L 4.535156 16.398438 L 7.800781 14.527344 Z M 7.800781 18.269531 " fill-opacity="1" fill-rule="nonzero"/><path fill="#058288" d="M 23.746094 16.398438 L 12.980469 10.226562 L 23.746094 4.058594 Z M 23.746094 16.398438 " fill-opacity="1" fill-rule="nonzero"/><g clip-path="url(#64f3c63400)"><path fill="#5c616a" d="M 6.5 19.3125 L 6.5 0.0078125 L 23.351562 9.660156 Z M 7.019531 0.898438 L 7.019531 18.421875 L 22.3125 9.660156 Z M 7.019531 0.898438 " fill-opacity="1" fill-rule="nonzero"/></g><g clip-path="url(#a3d72e76c7)"><path fill="#058288" d="M 0.492188 28.28125 L 15.558594 36.914062 L 0.492188 45.550781 Z M 0.492188 28.28125 " fill-opacity="1" fill-rule="nonzero"/></g><path fill="#393e46" d="M 24.179688 40.785156 L 6.515625 30.664062 L 24.179688 20.539062 Z M 24.179688 40.785156 " fill-opacity="1" fill-rule="nonzero"/><path fill="#5c616a" d="M 35.5625 12.929688 L 26.695312 7.847656 L 35.5625 2.769531 Z M 35.5625 12.929688 " fill-opacity="1" fill-rule="nonzero"/><path fill="#393e46" d="M 39.476562 28.246094 L 26.695312 20.925781 L 39.476562 13.601562 Z M 39.476562 28.246094 " fill-opacity="1" fill-rule="nonzero"/><path fill="#058288" d="M 24.90625 20.792969 L 39.476562 29.144531 L 24.90625 37.492188 Z M 24.90625 20.792969 " fill-opacity="1" fill-rule="nonzero"/><g clip-path="url(#19325088b2)"><path fill="#069ea6" d="M 47.507812 18.261719 L 47.507812 41.175781 L 27.496094 29.71875 Z M 46.894531 40.117188 L 46.894531 19.320312 L 28.730469 29.71875 Z M 46.894531 40.117188 " fill-opacity="1" fill-rule="nonzero"/></g><g clip-path="url(#7a6a25b001)"><path fill="#058288" d="M 47.488281 14.527344 L 43.234375 12.089844 L 47.488281 9.652344 Z M 47.488281 14.527344 " fill-opacity="1" fill-rule="nonzero"/></g><path fill="#069ea6" d="M 36.492188 1.929688 L 46.679688 7.765625 L 36.492188 13.601562 Z M 36.492188 1.929688 " fill-opacity="1" fill-rule="nonzero"/><g clip-path="url(#ccd43735ee)"><path fill="#393e46" d="M 40.5625 12.859375 L 47.488281 16.828125 L 40.5625 20.792969 Z M 40.5625 12.859375 " fill-opacity="1" fill-rule="nonzero"/></g><path fill="#058288" d="M 25.933594 8.867188 L 35.5625 14.386719 L 25.933594 19.90625 Z M 25.933594 8.867188 " fill-opacity="1" fill-rule="nonzero"/></svg>