<svg width="112" height="24" viewBox="0 0 112 24" fill="none" xmlns="http://www.w3.org/2000/svg">
<path d="M6 17C6 15 10 13.9 12 13.9C14 13.9 18 15 18 17V18H6M15 9C15 9.79565 14.6839 10.5587 14.1213 11.1213C13.5587 11.6839 12.7956 12 12 12C11.2044 12 10.4413 11.6839 9.87868 11.1213C9.31607 10.5587 9 9.79565 9 9C9 8.20435 9.31607 7.44129 9.87868 6.87868C10.4413 6.31607 11.2044 6 12 6C12.7956 6 13.5587 6.31607 14.1213 6.87868C14.6839 7.44129 15 8.20435 15 9ZM3 5L3 19C3 19.5304 3.21071 20.0391 3.58579 20.4142C3.96086 20.7893 4.46957 21 5 21H19C19.5304 21 20.0391 20.7893 20.4142 20.4142C20.7893 20.0391 21 19.5304 21 19V5C21 4.46957 20.7893 3.96086 20.4142 3.58579C20.0391 3.21071 19.5304 3 19 3L5 3C4.46957 3 3.96086 3.21071 3.58579 3.58579C3.21071 3.96086 3 4.46957 3 5Z" fill="#ADC9C5"/>
<path d="M38.688 18.08C37.856 18.08 37.0827 17.9413 36.368 17.664C35.664 17.376 35.0507 16.976 34.528 16.464C34.0053 15.952 33.6 15.3547 33.312 14.672C33.024 13.9787 32.88 13.2213 32.88 12.4C32.88 11.5787 33.024 10.8267 33.312 10.144C33.6 9.45067 34.0053 8.848 34.528 8.336C35.0613 7.824 35.68 7.42933 36.384 7.152C37.088 6.864 37.856 6.72 38.688 6.72C39.4773 6.72 40.2133 6.848 40.896 7.104C41.5893 7.36 42.1813 7.74933 42.672 8.272L42.16 8.8C41.68 8.33067 41.1467 7.99467 40.56 7.792C39.984 7.57867 39.3707 7.472 38.72 7.472C38.0053 7.472 37.3387 7.59467 36.72 7.84C36.112 8.08533 35.5787 8.432 35.12 8.88C34.672 9.328 34.32 9.85067 34.064 10.448C33.8187 11.0453 33.696 11.696 33.696 12.4C33.696 13.104 33.8187 13.7547 34.064 14.352C34.32 14.9493 34.672 15.472 35.12 15.92C35.5787 16.368 36.112 16.7147 36.72 16.96C37.3387 17.2053 38.0053 17.328 38.72 17.328C39.3707 17.328 39.984 17.2267 40.56 17.024C41.1467 16.8107 41.68 16.464 42.16 15.984L42.672 16.512C42.1813 17.0347 41.5893 17.4293 40.896 17.696C40.2133 17.952 39.4773 18.08 38.688 18.08ZM49.9228 18.08C49.0908 18.08 48.3174 17.9413 47.6028 17.664C46.8988 17.376 46.2801 16.976 45.7468 16.464C45.2241 15.9413 44.8188 15.3387 44.5308 14.656C44.2428 13.9627 44.0988 13.2107 44.0988 12.4C44.0988 11.5893 44.2428 10.8427 44.5308 10.16C44.8188 9.46667 45.2241 8.864 45.7468 8.352C46.2801 7.82933 46.8988 7.42933 47.6028 7.152C48.3174 6.864 49.0908 6.72 49.9228 6.72C50.7548 6.72 51.5228 6.864 52.2268 7.152C52.9414 7.42933 53.5601 7.824 54.0828 8.336C54.6054 8.848 55.0108 9.45067 55.2988 10.144C55.5974 10.8267 55.7468 11.5787 55.7468 12.4C55.7468 13.2213 55.5974 13.9787 55.2988 14.672C55.0108 15.3547 54.6054 15.952 54.0828 16.464C53.5601 16.976 52.9414 17.376 52.2268 17.664C51.5228 17.9413 50.7548 18.08 49.9228 18.08ZM49.9228 17.328C50.6374 17.328 51.2988 17.2053 51.9068 16.96C52.5148 16.7147 53.0428 16.368 53.4908 15.92C53.9388 15.472 54.2854 14.9493 54.5308 14.352C54.7868 13.7547 54.9148 13.104 54.9148 12.4C54.9148 11.6853 54.7868 11.0347 54.5308 10.448C54.2854 9.85067 53.9388 9.328 53.4908 8.88C53.0428 8.432 52.5148 8.08533 51.9068 7.84C51.2988 7.59467 50.6374 7.472 49.9228 7.472C49.2081 7.472 48.5468 7.59467 47.9388 7.84C47.3308 8.08533 46.7974 8.432 46.3388 8.88C45.8908 9.328 45.5388 9.85067 45.2828 10.448C45.0374 11.0347 44.9148 11.6853 44.9148 12.4C44.9148 13.104 45.0374 13.7547 45.2828 14.352C45.5388 14.9493 45.8908 15.472 46.3388 15.92C46.7974 16.368 47.3308 16.7147 47.9388 16.96C48.5468 17.2053 49.2081 17.328 49.9228 17.328ZM58.577 18V6.8H59.265L67.249 16.992H66.881V6.8H67.697V18H67.025L59.025 7.808H59.393V18H58.577ZM73.7523 18V7.536L69.7203 7.536V6.8L78.6003 6.8V7.536H74.5683V18H73.7523ZM78.1894 18L83.3414 6.8H84.1574L89.3094 18H88.4294L83.5654 7.312H83.9174L79.0694 18H78.1894ZM80.0774 14.848L80.3494 14.16L87.0534 14.16L87.3254 14.848L80.0774 14.848ZM92.9241 18V7.536L88.8921 7.536V6.8L97.7721 6.8V7.536H93.7401V18H92.9241ZM104.392 18.08C103.56 18.08 102.786 17.9413 102.072 17.664C101.368 17.376 100.749 16.976 100.216 16.464C99.6928 15.9413 99.2875 15.3387 98.9995 14.656C98.7115 13.9627 98.5675 13.2107 98.5675 12.4C98.5675 11.5893 98.7115 10.8427 98.9995 10.16C99.2875 9.46667 99.6928 8.864 100.216 8.352C100.749 7.82933 101.368 7.42933 102.072 7.152C102.786 6.864 103.56 6.72 104.392 6.72C105.224 6.72 105.992 6.864 106.696 7.152C107.41 7.42933 108.029 7.824 108.552 8.336C109.074 8.848 109.48 9.45067 109.768 10.144C110.066 10.8267 110.216 11.5787 110.216 12.4C110.216 13.2213 110.066 13.9787 109.768 14.672C109.48 15.3547 109.074 15.952 108.552 16.464C108.029 16.976 107.41 17.376 106.696 17.664C105.992 17.9413 105.224 18.08 104.392 18.08ZM104.392 17.328C105.106 17.328 105.768 17.2053 106.376 16.96C106.984 16.7147 107.512 16.368 107.96 15.92C108.408 15.472 108.754 14.9493 109 14.352C109.256 13.7547 109.384 13.104 109.384 12.4C109.384 11.6853 109.256 11.0347 109 10.448C108.754 9.85067 108.408 9.328 107.96 8.88C107.512 8.432 106.984 8.08533 106.376 7.84C105.768 7.59467 105.106 7.472 104.392 7.472C103.677 7.472 103.016 7.59467 102.408 7.84C101.8 8.08533 101.266 8.432 100.808 8.88C100.36 9.328 100.008 9.85067 99.7515 10.448C99.5062 11.0347 99.3835 11.6853 99.3835 12.4C99.3835 13.104 99.5062 13.7547 99.7515 14.352C100.008 14.9493 100.36 15.472 100.808 15.92C101.266 16.368 101.8 16.7147 102.408 16.96C103.016 17.2053 103.677 17.328 104.392 17.328Z" fill="#ADC9C5"/>
</svg>
