<svg width="48" height="48" viewBox="0 0 48 48" fill="none" xmlns="http://www.w3.org/2000/svg">
<g clip-path="url(#clip0_66_404)">
<mask id="mask0_66_404" style="mask-type:luminance" maskUnits="userSpaceOnUse" x="4" y="4" width="40" height="40">
<path d="M4 4H44V43.6669H4V4Z" fill="white"/>
</mask>
<g mask="url(#mask0_66_404)">
<path d="M24 3.99998C23.4473 3.99916 22.8947 4.02219 22.3437 4.06824C21.7927 4.11429 21.245 4.18255 20.699 4.27465C20.1538 4.36676 19.6135 4.48107 19.0781 4.61758C18.5419 4.75492 18.0131 4.91363 17.4909 5.09538C16.9687 5.2763 16.4547 5.47942 15.9498 5.70393C15.4441 5.92844 14.9498 6.1735 14.4646 6.43913C13.9802 6.70475 13.5074 6.99011 13.0468 7.29604C12.5863 7.60113 12.139 7.92515 11.7056 8.26807C11.2722 8.611 10.8536 8.9712 10.4506 9.34867C10.0477 9.72696 9.66116 10.1209 9.29109 10.5312C8.92103 10.9416 8.56905 11.3659 8.23435 11.8059C7.89965 12.2459 7.58468 12.6982 7.28863 13.1645C6.99175 13.6307 6.71543 14.1085 6.45968 14.5978C6.2031 15.0872 5.96872 15.5863 5.75409 16.0946C5.54027 16.6036 5.34701 17.1209 5.17678 17.6455C5.00573 18.171 4.8577 18.7023 4.73106 19.2393C4.60524 19.7771 4.50162 20.3191 4.42103 20.8651C4.34043 21.4112 4.28287 21.9597 4.24833 22.5107C4.21379 23.0617 4.20228 23.6126 4.21379 24.1653C4.22613 24.7171 4.26066 25.2673 4.31905 25.8166C4.37662 26.3651 4.45803 26.9112 4.56165 27.4531C4.66609 27.995 4.79192 28.5321 4.94159 29.0641C5.09043 29.5954 5.26149 30.12 5.45474 30.6373C5.64718 31.1546 5.86182 31.6628 6.09784 32.162C6.33303 32.6612 6.58961 33.1497 6.86675 33.6274C7.14307 34.1061 7.43994 34.5715 7.75573 35.0238C8.07152 35.477 8.40622 35.9161 8.75902 36.3413C9.11182 36.7664 9.48188 37.176 9.86922 37.5699C10.2566 37.9638 10.6595 38.3413 11.0781 38.7015C11.4975 39.0617 11.9309 39.4038 12.3783 39.7278C12.8256 40.0518 13.2862 40.3569 13.7598 40.6423C14.2327 40.9276 14.7179 41.1932 15.213 41.4383C15.2705 41.4679 15.3306 41.4942 15.3914 41.5173C16.0592 41.8446 16.7426 42.1324 17.4432 42.3816C18.1439 42.6307 18.8569 42.8388 19.5814 43.0074C20.3059 43.1751 21.037 43.301 21.7763 43.3857C22.5148 43.4704 23.2566 43.5123 24 43.5123C24.7434 43.5123 25.4852 43.4704 26.2237 43.3857C26.963 43.301 27.6941 43.1751 28.4186 43.0074C29.1431 42.8388 29.8561 42.6307 30.5567 42.3816C31.2574 42.1324 31.9408 41.8446 32.6085 41.5173C32.6694 41.4942 32.7294 41.4679 32.787 41.4383C33.282 41.1932 33.7672 40.9276 34.2401 40.6423C34.7138 40.3569 35.1743 40.0518 35.6217 39.7278C36.0691 39.4038 36.5024 39.0617 36.9218 38.7015C37.3404 38.3413 37.7434 37.9638 38.1307 37.5699C38.5181 37.176 38.8881 36.7664 39.2409 36.3413C39.5937 35.9161 39.9284 35.477 40.2442 35.0238C40.56 34.5715 40.8569 34.1061 41.1332 33.6274C41.4103 33.1497 41.6669 32.6612 41.9021 32.162C42.1381 31.6628 42.3528 31.1546 42.546 30.6373C42.7385 30.12 42.9095 29.5954 43.0584 29.0641C43.208 28.5321 43.3339 27.995 43.4383 27.4531C43.5419 26.9112 43.6233 26.3651 43.6809 25.8166C43.7393 25.2673 43.7738 24.7171 43.7862 24.1653C43.7977 23.6126 43.7862 23.0617 43.7516 22.5107C43.7171 21.9597 43.6595 21.4112 43.5789 20.8651C43.4983 20.3191 43.3947 19.7771 43.2689 19.2393C43.1422 18.7023 42.9942 18.171 42.8232 17.6455C42.6529 17.1209 42.4605 16.6036 42.2459 16.0946C42.032 15.5863 41.7968 15.0872 41.5403 14.5978C41.2845 14.1085 41.0082 13.6307 40.7113 13.1645C40.4153 12.6982 40.1003 12.2459 39.7656 11.8059C39.4317 11.3659 39.0789 10.9416 38.7089 10.5312C38.3388 10.1209 37.9523 9.72696 37.5493 9.34867C37.1464 8.9712 36.7278 8.611 36.2944 8.26807C35.861 7.92515 35.4136 7.60113 34.9531 7.29604C34.4926 6.99011 34.0197 6.70475 33.5353 6.43913C33.0501 6.1735 32.5559 5.92844 32.0501 5.70393C31.5452 5.47942 31.0312 5.2763 30.509 5.09538C29.9868 4.91363 29.458 4.75492 28.9218 4.61758C28.3865 4.48107 27.8462 4.36676 27.301 4.27465C26.7549 4.18255 26.2072 4.11429 25.6562 4.06824C25.1052 4.02219 24.5526 3.99916 24 3.99998ZM24 11.9021C24.1941 11.9021 24.3881 11.912 24.5822 11.9309C24.7755 11.9498 24.9679 11.9786 25.1579 12.0164C25.3487 12.0543 25.537 12.1011 25.7237 12.1579C25.9095 12.2138 26.0921 12.2796 26.2722 12.3536C26.4515 12.4276 26.6274 12.5107 26.7985 12.602C26.9704 12.6941 27.1365 12.7936 27.2985 12.9013C27.4605 13.009 27.6159 13.1242 27.7664 13.2475C27.9169 13.3709 28.0608 13.5008 28.1982 13.6381C28.3355 13.7755 28.4663 13.9194 28.5896 14.0691C28.713 14.2196 28.8281 14.375 28.9367 14.5362C29.0444 14.6982 29.1447 14.8643 29.236 15.0353C29.3273 15.2064 29.4103 15.3816 29.4852 15.5608C29.5592 15.7401 29.625 15.9227 29.6817 16.1085C29.7376 16.2944 29.7853 16.4827 29.8232 16.6727C29.861 16.8635 29.8898 17.0551 29.9087 17.2483C29.9276 17.4416 29.9375 17.6349 29.9375 17.8289C29.9375 18.023 29.9276 18.2171 29.9087 18.4103C29.8898 18.6036 29.861 18.7952 29.8232 18.9852C29.7853 19.176 29.7376 19.3643 29.6817 19.5493C29.625 19.7352 29.5592 19.9177 29.4852 20.097C29.4103 20.2763 29.3273 20.4523 29.236 20.6233C29.1447 20.7944 29.0444 20.9605 28.9367 21.1217C28.8281 21.2837 28.713 21.4391 28.5896 21.5888C28.4663 21.7393 28.3355 21.8832 28.1982 22.0205C28.0608 22.1571 27.9169 22.2878 27.7664 22.4112C27.6159 22.5337 27.4605 22.6497 27.2985 22.7574C27.1365 22.8651 26.9704 22.9646 26.7985 23.0559C26.6274 23.148 26.4515 23.2311 26.2722 23.3051C26.0921 23.3791 25.9095 23.4449 25.7237 23.5008C25.537 23.5575 25.3487 23.6044 25.1579 23.6423C24.9679 23.6801 24.7755 23.7089 24.5822 23.7278C24.3881 23.7467 24.1941 23.7557 24 23.7557C23.8059 23.7557 23.6118 23.7467 23.4177 23.7278C23.2245 23.7089 23.032 23.6801 22.8421 23.6423C22.6513 23.6044 22.463 23.5575 22.2763 23.5008C22.0904 23.4449 21.9079 23.3791 21.7278 23.3051C21.5485 23.2311 21.3725 23.148 21.2015 23.0559C21.0296 22.9646 20.8635 22.8651 20.7015 22.7574C20.5394 22.6497 20.384 22.5337 20.2335 22.4112C20.083 22.2878 19.9391 22.1571 19.8018 22.0205C19.6644 21.8832 19.5337 21.7393 19.4103 21.5888C19.287 21.4391 19.1718 21.2837 19.0633 21.1217C18.9556 20.9605 18.8552 20.7944 18.764 20.6233C18.6718 20.4523 18.5896 20.2763 18.5148 20.097C18.4408 19.9177 18.375 19.7352 18.3182 19.5493C18.2623 19.3643 18.2146 19.176 18.1768 18.9852C18.139 18.7952 18.1102 18.6036 18.0913 18.4103C18.0723 18.2171 18.0625 18.023 18.0625 17.8289C18.0633 17.6349 18.0732 17.4416 18.0929 17.2492C18.1126 17.0559 18.1414 16.8643 18.1801 16.6743C18.2179 16.4844 18.2656 16.296 18.3223 16.111C18.3791 15.9251 18.4449 15.7426 18.5197 15.5641C18.5937 15.3849 18.6776 15.2097 18.7689 15.0386C18.861 14.8676 18.9605 14.7015 19.0691 14.5403C19.1768 14.3791 19.2927 14.2237 19.4161 14.074C19.5394 13.9243 19.6694 13.7804 19.8067 13.6431C19.9441 13.5066 20.088 13.3758 20.2385 13.2533C20.3881 13.1299 20.5444 13.0148 20.7056 12.9062C20.8667 12.7985 21.0337 12.699 21.2047 12.6069C21.3758 12.5156 21.551 12.4325 21.7302 12.3577C21.9103 12.2837 22.0929 12.2179 22.2788 12.1612C22.4646 12.1044 22.6521 12.0575 22.8429 12.0189C23.0337 11.9811 23.2253 11.9523 23.4186 11.9325C23.6118 11.9128 23.8059 11.9029 24 11.9021ZM29.9375 38.3955C29.4819 38.5732 29.0066 38.7508 28.532 38.8898C28.0962 39.0279 27.6414 39.1464 27.1858 39.245C27.1464 39.245 27.1069 39.2648 27.0674 39.2648C26.5929 39.3635 26.0978 39.4227 25.6225 39.4819H25.5633C24.5214 39.588 23.4786 39.588 22.4367 39.4819H22.3774C21.9021 39.4227 21.407 39.3635 20.9325 39.2648C20.8931 39.2648 20.8536 39.245 20.8141 39.245C20.3585 39.1464 19.9038 39.0279 19.4679 38.8898C18.9926 38.7508 18.5181 38.5732 18.0625 38.3955C16.6266 37.8248 15.3067 37.0543 14.1044 36.0839V35.6102C14.1044 35.2862 14.1209 34.9638 14.1521 34.6414C14.1842 34.3199 14.2319 34 14.2952 33.6825C14.3585 33.3651 14.4367 33.0518 14.5312 32.7426C14.625 32.4325 14.7343 32.1283 14.8577 31.8298C14.9819 31.5304 15.1209 31.2385 15.273 30.9531C15.426 30.6677 15.5921 30.3906 15.7722 30.1217C15.9523 29.8528 16.1455 29.5937 16.3511 29.3429C16.5567 29.0929 16.7738 28.8536 17.0033 28.625C17.2319 28.3964 17.472 28.1793 17.7228 27.9737C17.9728 27.7689 18.2327 27.5765 18.5024 27.3964C18.7722 27.2171 19.0493 27.051 19.3355 26.898C19.6209 26.7459 19.9136 26.6077 20.213 26.4835C20.5123 26.3602 20.8174 26.2508 21.1274 26.1571C21.4375 26.0633 21.7516 25.9844 22.0699 25.9219C22.3873 25.8585 22.7072 25.8108 23.0304 25.7796C23.3528 25.7475 23.676 25.7319 24 25.7319C24.324 25.7319 24.6472 25.7475 24.9695 25.7796C25.2927 25.8108 25.6126 25.8585 25.9301 25.9219C26.2483 25.9844 26.5625 26.0633 26.8725 26.1571C27.1825 26.2508 27.4876 26.3602 27.787 26.4835C28.0863 26.6077 28.3791 26.7459 28.6644 26.898C28.9506 27.051 29.2278 27.2171 29.4975 27.3964C29.7672 27.5765 30.0271 27.7689 30.2771 27.9737C30.5279 28.1793 30.7681 28.3964 30.9967 28.625C31.2261 28.8536 31.4432 29.0929 31.6488 29.3429C31.8544 29.5937 32.0477 29.8528 32.2278 30.1217C32.4079 30.3906 32.574 30.6677 32.7269 30.9531C32.8791 31.2385 33.0181 31.5304 33.1422 31.8298C33.2656 32.1283 33.375 32.4325 33.4687 32.7426C33.5633 33.0518 33.6414 33.3651 33.7047 33.6825C33.7681 34 33.8158 34.3199 33.8478 34.6414C33.8791 34.9638 33.8955 35.2862 33.8955 35.6102V36.0839C32.6932 37.0543 31.3733 37.8248 29.9375 38.3955Z" fill="#EFEAD8"/>
</g>
</g>
<defs>
<clipPath id="clip0_66_404">
<rect width="48" height="48" fill="white"/>
</clipPath>
</defs>
</svg>
