<svg xmlns="http://www.w3.org/2000/svg" xmlns:xlink="http://www.w3.org/1999/xlink" width="300" zoomAndPan="magnify" viewBox="0 0 224.87999 74.999997" height="100" preserveAspectRatio="xMidYMid meet" version="1.0"><defs><g/><clipPath id="6560d7878a"><path d="M 44.933594 21.226562 L 55.679688 21.226562 L 55.679688 33.613281 L 44.933594 33.613281 Z M 44.933594 21.226562 " clip-rule="nonzero"/></clipPath><clipPath id="4eb65de5e9"><path d="M 41.097656 39 L 51 39 L 51 50.457031 L 41.097656 50.457031 Z M 41.097656 39 " clip-rule="nonzero"/></clipPath><clipPath id="86a5f11e5d"><path d="M 58.320312 32.941406 L 71.082031 32.941406 L 71.082031 47.644531 L 58.320312 47.644531 Z M 58.320312 32.941406 " clip-rule="nonzero"/></clipPath><clipPath id="195ee5953d"><path d="M 68 27 L 71.082031 27 L 71.082031 31 L 68 31 Z M 68 27 " clip-rule="nonzero"/></clipPath><clipPath id="5925b09f87"><path d="M 66 29 L 71.082031 29 L 71.082031 35 L 66 35 Z M 66 29 " clip-rule="nonzero"/></clipPath></defs><path fill="#233a2e" d="M 47.007812 28.300781 L 56.207031 33.605469 L 47.007812 38.910156 Z M 47.007812 28.300781 " fill-opacity="1" fill-rule="nonzero"/><path fill="#aa8b56" d="M 45.761719 36.003906 L 43.679688 34.804688 L 45.761719 33.605469 Z M 45.761719 36.003906 " fill-opacity="1" fill-rule="nonzero"/><path fill="#816532" d="M 45.90625 39.371094 L 43.390625 37.921875 L 45.90625 36.472656 Z M 45.90625 39.371094 " fill-opacity="1" fill-rule="nonzero"/><path fill="#aa8b56" d="M 45.761719 32.945312 L 43.679688 31.746094 L 45.761719 30.546875 Z M 45.761719 32.945312 " fill-opacity="1" fill-rule="nonzero"/><path fill="#233a2e" d="M 55.929688 31.746094 L 49.066406 27.785156 L 55.929688 23.824219 Z M 55.929688 31.746094 " fill-opacity="1" fill-rule="nonzero"/><g clip-path="url(#6560d7878a)"><path fill="#668568" d="M 44.933594 33.613281 L 44.933594 21.226562 L 55.675781 27.421875 Z M 45.261719 21.800781 L 45.261719 33.042969 L 55.015625 27.421875 Z M 45.261719 21.800781 " fill-opacity="1" fill-rule="nonzero"/></g><g clip-path="url(#4eb65de5e9)"><path fill="#233a2e" d="M 41.101562 39.371094 L 50.710938 44.910156 L 41.101562 50.453125 Z M 41.101562 39.371094 " fill-opacity="1" fill-rule="nonzero"/></g><path fill="#816532" d="M 56.207031 47.394531 L 44.941406 40.898438 L 56.207031 34.402344 Z M 56.207031 47.394531 " fill-opacity="1" fill-rule="nonzero"/><path fill="#668568" d="M 63.464844 29.519531 L 57.8125 26.257812 L 63.464844 22.996094 Z M 63.464844 29.519531 " fill-opacity="1" fill-rule="nonzero"/><path fill="#816532" d="M 65.960938 39.347656 L 57.8125 34.648438 L 65.960938 29.949219 Z M 65.960938 39.347656 " fill-opacity="1" fill-rule="nonzero"/><path fill="#233a2e" d="M 56.671875 34.566406 L 65.960938 39.925781 L 56.671875 45.28125 Z M 56.671875 34.566406 " fill-opacity="1" fill-rule="nonzero"/><g clip-path="url(#86a5f11e5d)"><path fill="#aa8b56" d="M 71.082031 32.941406 L 71.082031 47.644531 L 58.320312 40.292969 Z M 70.691406 46.964844 L 70.691406 33.621094 L 59.109375 40.292969 Z M 70.691406 46.964844 " fill-opacity="1" fill-rule="nonzero"/></g><g clip-path="url(#195ee5953d)"><path fill="#233a2e" d="M 71.070312 30.542969 L 68.355469 28.980469 L 71.070312 27.414062 Z M 71.070312 30.542969 " fill-opacity="1" fill-rule="nonzero"/></g><path fill="#aa8b56" d="M 64.058594 22.460938 L 70.554688 26.203125 L 64.058594 29.949219 Z M 64.058594 22.460938 " fill-opacity="1" fill-rule="nonzero"/><g clip-path="url(#5925b09f87)"><path fill="#816532" d="M 66.65625 29.472656 L 71.070312 32.019531 L 66.65625 34.566406 Z M 66.65625 29.472656 " fill-opacity="1" fill-rule="nonzero"/></g><path fill="#233a2e" d="M 57.324219 26.914062 L 63.464844 30.453125 L 57.324219 33.996094 Z M 57.324219 26.914062 " fill-opacity="1" fill-rule="nonzero"/><g fill="#f0ebce" fill-opacity="1"><g transform="translate(49.062938, 43.511099)"><g><path d="M 1.34375 -6.703125 L 0.09375 -6.703125 L 0.09375 -8.984375 L 1.34375 -8.984375 L 1.34375 -10.109375 C 1.34375 -11.316406 1.726562 -12.253906 2.5 -12.921875 C 3.269531 -13.585938 4.265625 -13.921875 5.484375 -13.921875 C 6.171875 -13.921875 6.769531 -13.8125 7.28125 -13.59375 L 7.28125 -10.96875 C 6.925781 -11.144531 6.535156 -11.234375 6.109375 -11.234375 C 5.609375 -11.234375 5.238281 -11.117188 5 -10.890625 C 4.757812 -10.671875 4.640625 -10.316406 4.640625 -9.828125 L 4.640625 -8.984375 L 6.71875 -8.984375 L 6.71875 -6.703125 L 4.640625 -6.703125 L 4.640625 0 L 1.34375 0 Z M 1.34375 -6.703125 "/></g></g></g><g fill="#f0ebce" fill-opacity="1"><g transform="translate(57.972129, 43.511099)"><g><path d="M 7.203125 0.28125 C 5.921875 0.28125 4.863281 -0.113281 4.03125 -0.90625 L 4.03125 0 L 0.84375 0 L 0.84375 -13.828125 L 4.140625 -13.828125 L 4.140625 -8.25 C 4.492188 -8.5625 4.941406 -8.804688 5.484375 -8.984375 C 6.035156 -9.171875 6.609375 -9.265625 7.203125 -9.265625 C 8.148438 -9.265625 8.984375 -9.0625 9.703125 -8.65625 C 10.421875 -8.257812 10.976562 -7.695312 11.375 -6.96875 C 11.78125 -6.238281 11.984375 -5.40625 11.984375 -4.46875 C 11.984375 -3.519531 11.78125 -2.6875 11.375 -1.96875 C 10.976562 -1.257812 10.414062 -0.707031 9.6875 -0.3125 C 8.96875 0.0820312 8.140625 0.28125 7.203125 0.28125 Z M 6.34375 -2.265625 C 7.019531 -2.265625 7.5625 -2.457031 7.96875 -2.84375 C 8.382812 -3.238281 8.59375 -3.78125 8.59375 -4.46875 C 8.59375 -5.15625 8.382812 -5.695312 7.96875 -6.09375 C 7.5625 -6.5 7.019531 -6.703125 6.34375 -6.703125 C 5.84375 -6.703125 5.394531 -6.570312 5 -6.3125 C 4.601562 -6.0625 4.316406 -5.71875 4.140625 -5.28125 L 4.140625 -3.6875 C 4.316406 -3.25 4.601562 -2.898438 5 -2.640625 C 5.394531 -2.390625 5.84375 -2.265625 6.34375 -2.265625 Z M 6.34375 -2.265625 "/></g></g></g><g fill="#f0ebce" fill-opacity="1"><g transform="translate(72.327684, 43.511099)"><g><path d="M 0.84375 -13.828125 L 4.140625 -13.828125 L 4.140625 0 L 0.84375 0 Z M 0.84375 -13.828125 "/></g></g></g><g fill="#f0ebce" fill-opacity="1"><g transform="translate(79.215549, 43.511099)"><g><path d="M 4.234375 0.28125 C 3.109375 0.28125 2.195312 0.0078125 1.5 -0.53125 C 0.8125 -1.070312 0.46875 -1.832031 0.46875 -2.8125 C 0.46875 -3.820312 0.800781 -4.597656 1.46875 -5.140625 C 2.132812 -5.679688 3.09375 -5.953125 4.34375 -5.953125 C 4.832031 -5.953125 5.316406 -5.898438 5.796875 -5.796875 C 6.285156 -5.691406 6.707031 -5.550781 7.0625 -5.375 L 7.0625 -5.5625 C 7.0625 -6.519531 6.273438 -7 4.703125 -7 C 3.597656 -7 2.59375 -6.785156 1.6875 -6.359375 L 1.6875 -8.625 C 2.082031 -8.8125 2.601562 -8.960938 3.25 -9.078125 C 3.90625 -9.203125 4.582031 -9.265625 5.28125 -9.265625 C 6.945312 -9.265625 8.207031 -8.929688 9.0625 -8.265625 C 9.914062 -7.597656 10.34375 -6.664062 10.34375 -5.46875 L 10.34375 0 L 7.265625 0 L 7.265625 -0.765625 C 6.921875 -0.441406 6.492188 -0.1875 5.984375 0 C 5.472656 0.1875 4.890625 0.28125 4.234375 0.28125 Z M 5.203125 -1.734375 C 5.585938 -1.734375 5.945312 -1.8125 6.28125 -1.96875 C 6.625 -2.125 6.882812 -2.328125 7.0625 -2.578125 L 7.0625 -3.375 C 6.519531 -3.726562 5.90625 -3.90625 5.21875 -3.90625 C 4.78125 -3.90625 4.441406 -3.8125 4.203125 -3.625 C 3.972656 -3.4375 3.859375 -3.164062 3.859375 -2.8125 C 3.859375 -2.46875 3.972656 -2.203125 4.203125 -2.015625 C 4.429688 -1.828125 4.765625 -1.734375 5.203125 -1.734375 Z M 5.203125 -1.734375 "/></g></g></g><g fill="#f0ebce" fill-opacity="1"><g transform="translate(92.223548, 43.511099)"><g><path d="M 4.453125 0.28125 C 3.222656 0.28125 2.296875 -0.0625 1.671875 -0.75 C 1.054688 -1.4375 0.75 -2.34375 0.75 -3.46875 L 0.75 -8.984375 L 4.046875 -8.984375 L 4.046875 -3.84375 C 4.046875 -2.800781 4.515625 -2.28125 5.453125 -2.28125 C 5.867188 -2.28125 6.25 -2.378906 6.59375 -2.578125 C 6.945312 -2.773438 7.238281 -3.070312 7.46875 -3.46875 L 7.46875 -8.984375 L 10.765625 -8.984375 L 10.765625 0 L 7.578125 0 L 7.578125 -0.96875 C 7.191406 -0.5625 6.722656 -0.25 6.171875 -0.03125 C 5.628906 0.175781 5.054688 0.28125 4.453125 0.28125 Z M 4.453125 0.28125 "/></g></g></g><g fill="#f0ebce" fill-opacity="1"><g transform="translate(105.675878, 43.512506)"><g><path d="M 4.84375 0.28125 C 4.09375 0.28125 3.351562 0.210938 2.625 0.078125 C 1.894531 -0.046875 1.300781 -0.222656 0.84375 -0.453125 L 0.84375 -2.171875 C 2.039062 -1.609375 3.332031 -1.328125 4.71875 -1.328125 C 6.65625 -1.328125 7.625 -1.984375 7.625 -3.296875 C 7.625 -3.742188 7.519531 -4.101562 7.3125 -4.375 C 7.101562 -4.644531 6.796875 -4.882812 6.390625 -5.09375 C 5.992188 -5.300781 5.347656 -5.585938 4.453125 -5.953125 C 3.210938 -6.453125 2.316406 -7 1.765625 -7.59375 C 1.222656 -8.1875 0.953125 -8.941406 0.953125 -9.859375 C 0.953125 -10.546875 1.140625 -11.148438 1.515625 -11.671875 C 1.890625 -12.203125 2.410156 -12.613281 3.078125 -12.90625 C 3.753906 -13.207031 4.53125 -13.359375 5.40625 -13.359375 C 6.113281 -13.359375 6.753906 -13.300781 7.328125 -13.1875 C 7.898438 -13.070312 8.460938 -12.890625 9.015625 -12.640625 L 9.015625 -11 C 7.929688 -11.488281 6.832031 -11.734375 5.71875 -11.734375 C 4.820312 -11.734375 4.132812 -11.566406 3.65625 -11.234375 C 3.1875 -10.910156 2.953125 -10.453125 2.953125 -9.859375 C 2.953125 -9.441406 3.054688 -9.09375 3.265625 -8.8125 C 3.472656 -8.53125 3.773438 -8.28125 4.171875 -8.0625 C 4.578125 -7.851562 5.179688 -7.582031 5.984375 -7.25 C 6.867188 -6.894531 7.566406 -6.550781 8.078125 -6.21875 C 8.585938 -5.894531 8.976562 -5.5 9.25 -5.03125 C 9.519531 -4.570312 9.65625 -3.992188 9.65625 -3.296875 C 9.65625 -2.160156 9.25 -1.28125 8.4375 -0.65625 C 7.625 -0.03125 6.425781 0.28125 4.84375 0.28125 Z M 4.84375 0.28125 "/></g></g></g><g fill="#f0ebce" fill-opacity="1"><g transform="translate(118.077678, 43.512506)"><g><path d="M 4.671875 0.28125 C 3.765625 0.28125 3.0625 0.0195312 2.5625 -0.5 C 2.070312 -1.03125 1.828125 -1.773438 1.828125 -2.734375 L 1.828125 -7.515625 L 0.46875 -7.515625 L 0.46875 -8.984375 L 1.828125 -8.984375 L 1.828125 -11.671875 L 3.734375 -11.671875 L 3.734375 -8.984375 L 5.953125 -8.984375 L 5.953125 -7.515625 L 3.734375 -7.515625 L 3.734375 -2.859375 C 3.734375 -2.265625 3.847656 -1.84375 4.078125 -1.59375 C 4.316406 -1.34375 4.738281 -1.21875 5.34375 -1.21875 C 5.707031 -1.21875 6.070312 -1.296875 6.4375 -1.453125 L 6.4375 0.03125 C 5.957031 0.195312 5.367188 0.28125 4.671875 0.28125 Z M 4.671875 0.28125 "/></g></g></g><g fill="#f0ebce" fill-opacity="1"><g transform="translate(126.981535, 43.512506)"><g><path d="M 4.78125 0.28125 C 3.570312 0.28125 2.660156 -0.0390625 2.046875 -0.6875 C 1.429688 -1.34375 1.125 -2.210938 1.125 -3.296875 L 1.125 -8.984375 L 3.015625 -8.984375 L 3.015625 -3.359375 C 3.015625 -1.929688 3.726562 -1.21875 5.15625 -1.21875 C 6.414062 -1.21875 7.40625 -1.785156 8.125 -2.921875 L 8.125 -8.984375 L 10 -8.984375 L 10 0 L 8.171875 0 L 8.171875 -1.265625 C 7.742188 -0.734375 7.238281 -0.34375 6.65625 -0.09375 C 6.082031 0.15625 5.457031 0.28125 4.78125 0.28125 Z M 4.78125 0.28125 "/></g></g></g><g fill="#f0ebce" fill-opacity="1"><g transform="translate(140.11285, 43.512506)"><g><path d="M 5.5625 0.28125 C 4.65625 0.28125 3.84375 0.0859375 3.125 -0.296875 C 2.414062 -0.691406 1.859375 -1.25 1.453125 -1.96875 C 1.046875 -2.6875 0.84375 -3.519531 0.84375 -4.46875 C 0.84375 -5.40625 1.046875 -6.234375 1.453125 -6.953125 C 1.859375 -7.679688 2.414062 -8.25 3.125 -8.65625 C 3.84375 -9.0625 4.65625 -9.265625 5.5625 -9.265625 C 7.175781 -9.265625 8.398438 -8.769531 9.234375 -7.78125 L 9.234375 -13.828125 L 11.125 -13.828125 L 11.125 0 L 9.296875 0 L 9.296875 -1.3125 C 8.796875 -0.757812 8.25 -0.351562 7.65625 -0.09375 C 7.0625 0.15625 6.363281 0.28125 5.5625 0.28125 Z M 5.984375 -1.21875 C 6.753906 -1.21875 7.429688 -1.421875 8.015625 -1.828125 C 8.597656 -2.234375 9.003906 -2.773438 9.234375 -3.453125 L 9.234375 -5.484375 C 9.023438 -6.171875 8.625 -6.71875 8.03125 -7.125 C 7.4375 -7.539062 6.753906 -7.75 5.984375 -7.75 C 5.367188 -7.75 4.816406 -7.609375 4.328125 -7.328125 C 3.835938 -7.054688 3.453125 -6.671875 3.171875 -6.171875 C 2.890625 -5.671875 2.75 -5.101562 2.75 -4.46875 C 2.75 -3.832031 2.890625 -3.265625 3.171875 -2.765625 C 3.453125 -2.265625 3.835938 -1.878906 4.328125 -1.609375 C 4.816406 -1.347656 5.367188 -1.21875 5.984375 -1.21875 Z M 5.984375 -1.21875 "/></g></g></g><g fill="#f0ebce" fill-opacity="1"><g transform="translate(154.3665, 43.512506)"><g><path d="M 2.3125 -10.734375 C 2.007812 -10.734375 1.75 -10.835938 1.53125 -11.046875 C 1.320312 -11.265625 1.21875 -11.53125 1.21875 -11.84375 C 1.21875 -12.15625 1.320312 -12.414062 1.53125 -12.625 C 1.75 -12.832031 2.007812 -12.9375 2.3125 -12.9375 C 2.644531 -12.9375 2.914062 -12.832031 3.125 -12.625 C 3.34375 -12.414062 3.453125 -12.15625 3.453125 -11.84375 C 3.453125 -11.53125 3.34375 -11.265625 3.125 -11.046875 C 2.914062 -10.835938 2.644531 -10.734375 2.3125 -10.734375 Z M 1.359375 -8.984375 L 3.296875 -8.984375 L 3.296875 0 L 1.359375 0 Z M 1.359375 -8.984375 "/></g></g></g><g fill="#f0ebce" fill-opacity="1"><g transform="translate(160.950868, 43.512506)"><g><path d="M 5.953125 0.28125 C 4.941406 0.28125 4.050781 0.09375 3.28125 -0.28125 C 2.507812 -0.664062 1.910156 -1.21875 1.484375 -1.9375 C 1.054688 -2.65625 0.84375 -3.5 0.84375 -4.46875 C 0.84375 -5.425781 1.050781 -6.265625 1.46875 -6.984375 C 1.894531 -7.710938 2.492188 -8.273438 3.265625 -8.671875 C 4.046875 -9.066406 4.941406 -9.265625 5.953125 -9.265625 C 6.960938 -9.265625 7.851562 -9.066406 8.625 -8.671875 C 9.394531 -8.273438 9.992188 -7.710938 10.421875 -6.984375 C 10.859375 -6.265625 11.078125 -5.425781 11.078125 -4.46875 C 11.078125 -3.5 10.859375 -2.65625 10.421875 -1.9375 C 9.992188 -1.21875 9.394531 -0.664062 8.625 -0.28125 C 7.851562 0.09375 6.960938 0.28125 5.953125 0.28125 Z M 5.953125 -1.21875 C 6.921875 -1.21875 7.691406 -1.515625 8.265625 -2.109375 C 8.835938 -2.710938 9.125 -3.5 9.125 -4.46875 C 9.125 -5.476562 8.835938 -6.273438 8.265625 -6.859375 C 7.691406 -7.453125 6.921875 -7.75 5.953125 -7.75 C 4.972656 -7.75 4.195312 -7.453125 3.625 -6.859375 C 3.050781 -6.273438 2.765625 -5.476562 2.765625 -4.46875 C 2.765625 -3.5 3.050781 -2.710938 3.625 -2.109375 C 4.195312 -1.515625 4.972656 -1.21875 5.953125 -1.21875 Z M 5.953125 -1.21875 "/></g></g></g><g fill="#f0ebce" fill-opacity="1"><g transform="translate(139.744899, 25.452746)"><g><path d="M 3.03125 -1.625 C 3.03125 -1.09375 2.878906 -0.6875 2.578125 -0.40625 C 2.285156 -0.132812 1.859375 0 1.296875 0 L 0.40625 0 L 0.40625 -3.171875 L 1.390625 -3.171875 C 1.910156 -3.171875 2.3125 -3.035156 2.59375 -2.765625 C 2.882812 -2.492188 3.03125 -2.113281 3.03125 -1.625 Z M 2.34375 -1.609375 C 2.34375 -2.285156 2.039062 -2.625 1.4375 -2.625 L 1.078125 -2.625 L 1.078125 -0.5625 L 1.359375 -0.5625 C 2.015625 -0.5625 2.34375 -0.910156 2.34375 -1.609375 Z M 2.34375 -1.609375 "/></g></g></g><g fill="#f0ebce" fill-opacity="1"><g transform="translate(143.494716, 25.452746)"><g><path d="M 1.359375 -2 C 1.210938 -2 1.097656 -1.953125 1.015625 -1.859375 C 0.941406 -1.773438 0.898438 -1.648438 0.890625 -1.484375 L 1.8125 -1.484375 C 1.8125 -1.648438 1.769531 -1.773438 1.6875 -1.859375 C 1.601562 -1.953125 1.492188 -2 1.359375 -2 Z M 1.453125 0.046875 C 1.054688 0.046875 0.75 -0.0625 0.53125 -0.28125 C 0.3125 -0.5 0.203125 -0.804688 0.203125 -1.203125 C 0.203125 -1.609375 0.300781 -1.921875 0.5 -2.140625 C 0.707031 -2.367188 0.988281 -2.484375 1.34375 -2.484375 C 1.6875 -2.484375 1.953125 -2.382812 2.140625 -2.1875 C 2.335938 -1.988281 2.4375 -1.71875 2.4375 -1.375 L 2.4375 -1.046875 L 0.875 -1.046875 C 0.875 -0.859375 0.925781 -0.710938 1.03125 -0.609375 C 1.144531 -0.503906 1.296875 -0.453125 1.484375 -0.453125 C 1.628906 -0.453125 1.765625 -0.46875 1.890625 -0.5 C 2.023438 -0.53125 2.160156 -0.578125 2.296875 -0.640625 L 2.296875 -0.125 C 2.179688 -0.0703125 2.054688 -0.03125 1.921875 0 C 1.796875 0.03125 1.640625 0.046875 1.453125 0.046875 Z M 1.453125 0.046875 "/></g></g></g><g fill="#f0ebce" fill-opacity="1"><g transform="translate(146.579345, 25.452746)"><g><path d="M 2.046875 -0.71875 C 2.046875 -0.46875 1.957031 -0.273438 1.78125 -0.140625 C 1.613281 -0.015625 1.351562 0.046875 1 0.046875 C 0.820312 0.046875 0.671875 0.03125 0.546875 0 C 0.429688 -0.0195312 0.316406 -0.0507812 0.203125 -0.09375 L 0.203125 -0.640625 C 0.328125 -0.585938 0.46875 -0.539062 0.625 -0.5 C 0.78125 -0.457031 0.914062 -0.4375 1.03125 -0.4375 C 1.269531 -0.4375 1.390625 -0.507812 1.390625 -0.65625 C 1.390625 -0.707031 1.375 -0.75 1.34375 -0.78125 C 1.3125 -0.8125 1.253906 -0.847656 1.171875 -0.890625 C 1.097656 -0.929688 0.992188 -0.976562 0.859375 -1.03125 C 0.671875 -1.113281 0.53125 -1.1875 0.4375 -1.25 C 0.351562 -1.3125 0.289062 -1.382812 0.25 -1.46875 C 0.21875 -1.5625 0.203125 -1.671875 0.203125 -1.796875 C 0.203125 -2.015625 0.285156 -2.179688 0.453125 -2.296875 C 0.617188 -2.421875 0.851562 -2.484375 1.15625 -2.484375 C 1.457031 -2.484375 1.742188 -2.414062 2.015625 -2.28125 L 1.8125 -1.8125 C 1.695312 -1.863281 1.582031 -1.90625 1.46875 -1.9375 C 1.363281 -1.96875 1.257812 -1.984375 1.15625 -1.984375 C 0.957031 -1.984375 0.859375 -1.929688 0.859375 -1.828125 C 0.859375 -1.765625 0.890625 -1.710938 0.953125 -1.671875 C 1.015625 -1.628906 1.15625 -1.566406 1.375 -1.484375 C 1.5625 -1.398438 1.695312 -1.320312 1.78125 -1.25 C 1.875 -1.1875 1.941406 -1.113281 1.984375 -1.03125 C 2.023438 -0.945312 2.046875 -0.84375 2.046875 -0.71875 Z M 2.046875 -0.71875 "/></g></g></g><g fill="#f0ebce" fill-opacity="1"><g transform="translate(149.246602, 25.452746)"><g><path d="M 0.3125 -3.0625 C 0.3125 -3.28125 0.4375 -3.390625 0.6875 -3.390625 C 0.925781 -3.390625 1.046875 -3.28125 1.046875 -3.0625 C 1.046875 -2.957031 1.015625 -2.875 0.953125 -2.8125 C 0.890625 -2.757812 0.800781 -2.734375 0.6875 -2.734375 C 0.4375 -2.734375 0.3125 -2.84375 0.3125 -3.0625 Z M 1.015625 0 L 0.34375 0 L 0.34375 -2.4375 L 1.015625 -2.4375 Z M 1.015625 0 "/></g></g></g><g fill="#f0ebce" fill-opacity="1"><g transform="translate(151.059553, 25.452746)"><g><path d="M 2.46875 -2.4375 L 2.46875 -2.09375 L 2.078125 -2 C 2.148438 -1.882812 2.1875 -1.757812 2.1875 -1.625 C 2.1875 -1.363281 2.09375 -1.160156 1.90625 -1.015625 C 1.726562 -0.867188 1.476562 -0.796875 1.15625 -0.796875 L 1.03125 -0.8125 L 0.9375 -0.8125 C 0.875 -0.757812 0.84375 -0.703125 0.84375 -0.640625 C 0.84375 -0.546875 0.960938 -0.5 1.203125 -0.5 L 1.609375 -0.5 C 1.878906 -0.5 2.082031 -0.441406 2.21875 -0.328125 C 2.363281 -0.210938 2.4375 -0.046875 2.4375 0.171875 C 2.4375 0.453125 2.316406 0.671875 2.078125 0.828125 C 1.835938 0.984375 1.5 1.0625 1.0625 1.0625 C 0.71875 1.0625 0.457031 1.003906 0.28125 0.890625 C 0.101562 0.773438 0.015625 0.609375 0.015625 0.390625 C 0.015625 0.242188 0.0546875 0.117188 0.140625 0.015625 C 0.234375 -0.078125 0.367188 -0.144531 0.546875 -0.1875 C 0.484375 -0.207031 0.425781 -0.25 0.375 -0.3125 C 0.320312 -0.382812 0.296875 -0.457031 0.296875 -0.53125 C 0.296875 -0.625 0.320312 -0.703125 0.375 -0.765625 C 0.425781 -0.828125 0.503906 -0.890625 0.609375 -0.953125 C 0.484375 -1.003906 0.382812 -1.085938 0.3125 -1.203125 C 0.238281 -1.328125 0.203125 -1.472656 0.203125 -1.640625 C 0.203125 -1.910156 0.285156 -2.117188 0.453125 -2.265625 C 0.628906 -2.410156 0.875 -2.484375 1.1875 -2.484375 C 1.257812 -2.484375 1.34375 -2.472656 1.4375 -2.453125 C 1.53125 -2.441406 1.585938 -2.4375 1.609375 -2.4375 Z M 0.59375 0.34375 C 0.59375 0.4375 0.632812 0.507812 0.71875 0.5625 C 0.800781 0.613281 0.925781 0.640625 1.09375 0.640625 C 1.320312 0.640625 1.503906 0.601562 1.640625 0.53125 C 1.773438 0.46875 1.84375 0.378906 1.84375 0.265625 C 1.84375 0.179688 1.800781 0.117188 1.71875 0.078125 C 1.644531 0.046875 1.523438 0.03125 1.359375 0.03125 L 1.015625 0.03125 C 0.890625 0.03125 0.785156 0.0546875 0.703125 0.109375 C 0.628906 0.171875 0.59375 0.25 0.59375 0.34375 Z M 0.828125 -1.640625 C 0.828125 -1.503906 0.859375 -1.394531 0.921875 -1.3125 C 0.984375 -1.238281 1.070312 -1.203125 1.1875 -1.203125 C 1.3125 -1.203125 1.398438 -1.238281 1.453125 -1.3125 C 1.515625 -1.394531 1.546875 -1.503906 1.546875 -1.640625 C 1.546875 -1.929688 1.425781 -2.078125 1.1875 -2.078125 C 0.945312 -2.078125 0.828125 -1.929688 0.828125 -1.640625 Z M 0.828125 -1.640625 "/></g></g></g><g fill="#f0ebce" fill-opacity="1"><g transform="translate(154.028973, 25.452746)"><g><path d="M 2.59375 0 L 1.921875 0 L 1.921875 -1.421875 C 1.921875 -1.597656 1.890625 -1.726562 1.828125 -1.8125 C 1.765625 -1.90625 1.664062 -1.953125 1.53125 -1.953125 C 1.351562 -1.953125 1.222656 -1.890625 1.140625 -1.765625 C 1.054688 -1.640625 1.015625 -1.429688 1.015625 -1.140625 L 1.015625 0 L 0.34375 0 L 0.34375 -2.4375 L 0.859375 -2.4375 L 0.9375 -2.125 L 0.984375 -2.125 C 1.054688 -2.238281 1.15625 -2.328125 1.28125 -2.390625 C 1.414062 -2.453125 1.566406 -2.484375 1.734375 -2.484375 C 2.015625 -2.484375 2.226562 -2.40625 2.375 -2.25 C 2.519531 -2.09375 2.59375 -1.867188 2.59375 -1.578125 Z M 2.59375 0 "/></g></g></g><g fill="#f0ebce" fill-opacity="1"><g transform="translate(157.40924, 25.452746)"><g><path d="M 1.359375 -2 C 1.210938 -2 1.097656 -1.953125 1.015625 -1.859375 C 0.941406 -1.773438 0.898438 -1.648438 0.890625 -1.484375 L 1.8125 -1.484375 C 1.8125 -1.648438 1.769531 -1.773438 1.6875 -1.859375 C 1.601562 -1.953125 1.492188 -2 1.359375 -2 Z M 1.453125 0.046875 C 1.054688 0.046875 0.75 -0.0625 0.53125 -0.28125 C 0.3125 -0.5 0.203125 -0.804688 0.203125 -1.203125 C 0.203125 -1.609375 0.300781 -1.921875 0.5 -2.140625 C 0.707031 -2.367188 0.988281 -2.484375 1.34375 -2.484375 C 1.6875 -2.484375 1.953125 -2.382812 2.140625 -2.1875 C 2.335938 -1.988281 2.4375 -1.71875 2.4375 -1.375 L 2.4375 -1.046875 L 0.875 -1.046875 C 0.875 -0.859375 0.925781 -0.710938 1.03125 -0.609375 C 1.144531 -0.503906 1.296875 -0.453125 1.484375 -0.453125 C 1.628906 -0.453125 1.765625 -0.46875 1.890625 -0.5 C 2.023438 -0.53125 2.160156 -0.578125 2.296875 -0.640625 L 2.296875 -0.125 C 2.179688 -0.0703125 2.054688 -0.03125 1.921875 0 C 1.796875 0.03125 1.640625 0.046875 1.453125 0.046875 Z M 1.453125 0.046875 "/></g></g></g><g fill="#f0ebce" fill-opacity="1"><g transform="translate(160.493869, 25.452746)"><g><path d="M 1.703125 -2.484375 C 1.796875 -2.484375 1.867188 -2.472656 1.921875 -2.453125 L 1.875 -1.828125 C 1.820312 -1.847656 1.757812 -1.859375 1.6875 -1.859375 C 1.46875 -1.859375 1.300781 -1.800781 1.1875 -1.6875 C 1.070312 -1.582031 1.015625 -1.429688 1.015625 -1.234375 L 1.015625 0 L 0.34375 0 L 0.34375 -2.4375 L 0.84375 -2.4375 L 0.953125 -2.015625 L 0.984375 -2.015625 C 1.054688 -2.160156 1.15625 -2.273438 1.28125 -2.359375 C 1.414062 -2.441406 1.554688 -2.484375 1.703125 -2.484375 Z M 1.703125 -2.484375 "/></g></g></g><g fill="#f0ebce" fill-opacity="1"><g transform="translate(162.96983, 25.452746)"><g/></g></g><g fill="#f0ebce" fill-opacity="1"><g transform="translate(164.580613, 25.452746)"><g><path d="M 1.6875 0.046875 C 1.394531 0.046875 1.171875 -0.0546875 1.015625 -0.265625 L 0.96875 -0.265625 C 1 -0.0664062 1.015625 0.046875 1.015625 0.078125 L 1.015625 1.0625 L 0.34375 1.0625 L 0.34375 -2.4375 L 0.890625 -2.4375 L 0.984375 -2.109375 L 1.015625 -2.109375 C 1.171875 -2.359375 1.398438 -2.484375 1.703125 -2.484375 C 1.984375 -2.484375 2.207031 -2.367188 2.375 -2.140625 C 2.539062 -1.921875 2.625 -1.613281 2.625 -1.21875 C 2.625 -0.957031 2.582031 -0.726562 2.5 -0.53125 C 2.425781 -0.34375 2.316406 -0.195312 2.171875 -0.09375 C 2.035156 0 1.875 0.046875 1.6875 0.046875 Z M 1.484375 -1.953125 C 1.316406 -1.953125 1.195312 -1.898438 1.125 -1.796875 C 1.050781 -1.691406 1.015625 -1.523438 1.015625 -1.296875 L 1.015625 -1.21875 C 1.015625 -0.957031 1.050781 -0.769531 1.125 -0.65625 C 1.207031 -0.550781 1.332031 -0.5 1.5 -0.5 C 1.789062 -0.5 1.9375 -0.742188 1.9375 -1.234375 C 1.9375 -1.472656 1.898438 -1.648438 1.828125 -1.765625 C 1.753906 -1.890625 1.640625 -1.953125 1.484375 -1.953125 Z M 1.484375 -1.953125 "/></g></g></g><g fill="#f0ebce" fill-opacity="1"><g transform="translate(167.85219, 25.452746)"><g><path d="M 0.875 -1.21875 C 0.875 -0.976562 0.910156 -0.796875 0.984375 -0.671875 C 1.066406 -0.546875 1.195312 -0.484375 1.375 -0.484375 C 1.550781 -0.484375 1.675781 -0.546875 1.75 -0.671875 C 1.832031 -0.796875 1.875 -0.976562 1.875 -1.21875 C 1.875 -1.457031 1.832031 -1.632812 1.75 -1.75 C 1.675781 -1.875 1.550781 -1.9375 1.375 -1.9375 C 1.195312 -1.9375 1.066406 -1.875 0.984375 -1.75 C 0.910156 -1.632812 0.875 -1.457031 0.875 -1.21875 Z M 2.5625 -1.21875 C 2.5625 -0.820312 2.457031 -0.507812 2.25 -0.28125 C 2.039062 -0.0625 1.75 0.046875 1.375 0.046875 C 1.132812 0.046875 0.925781 -0.00390625 0.75 -0.109375 C 0.570312 -0.210938 0.4375 -0.359375 0.34375 -0.546875 C 0.25 -0.742188 0.203125 -0.96875 0.203125 -1.21875 C 0.203125 -1.613281 0.304688 -1.921875 0.515625 -2.140625 C 0.722656 -2.367188 1.015625 -2.484375 1.390625 -2.484375 C 1.617188 -2.484375 1.820312 -2.429688 2 -2.328125 C 2.175781 -2.222656 2.3125 -2.078125 2.40625 -1.890625 C 2.507812 -1.703125 2.5625 -1.476562 2.5625 -1.21875 Z M 2.5625 -1.21875 "/></g></g></g><g fill="#f0ebce" fill-opacity="1"><g transform="translate(171.0629, 25.452746)"><g><path d="M 1.703125 -2.484375 C 1.796875 -2.484375 1.867188 -2.472656 1.921875 -2.453125 L 1.875 -1.828125 C 1.820312 -1.847656 1.757812 -1.859375 1.6875 -1.859375 C 1.46875 -1.859375 1.300781 -1.800781 1.1875 -1.6875 C 1.070312 -1.582031 1.015625 -1.429688 1.015625 -1.234375 L 1.015625 0 L 0.34375 0 L 0.34375 -2.4375 L 0.84375 -2.4375 L 0.953125 -2.015625 L 0.984375 -2.015625 C 1.054688 -2.160156 1.15625 -2.273438 1.28125 -2.359375 C 1.414062 -2.441406 1.554688 -2.484375 1.703125 -2.484375 Z M 1.703125 -2.484375 "/></g></g></g></svg>