<svg width="105" height="32" viewBox="0 0 105 32" fill="none" xmlns="http://www.w3.org/2000/svg">
<path d="M1.883 8C1.79767 8 1.731 7.976 1.683 7.928C1.635 7.88 1.611 7.81067 1.611 7.72V2.64C1.611 2.54933 1.635 2.48 1.683 2.432C1.731 2.384 1.79767 2.36 1.883 2.36H3.427C4.323 2.36 5.01367 2.6 5.499 3.08C5.98967 3.56 6.235 4.25867 6.235 5.176C6.235 5.63467 6.171 6.04 6.043 6.392C5.92033 6.744 5.739 7.04 5.499 7.28C5.259 7.51467 4.96567 7.69333 4.619 7.816C4.27233 7.93867 3.875 8 3.427 8H1.883ZM2.099 7.568H3.387C3.77633 7.568 4.115 7.51733 4.403 7.416C4.69633 7.31467 4.939 7.16533 5.131 6.968C5.323 6.77067 5.467 6.52267 5.563 6.224C5.659 5.92 5.707 5.57067 5.707 5.176C5.707 4.38133 5.51233 3.78667 5.123 3.392C4.739 2.992 4.16033 2.792 3.387 2.792H2.099V7.568ZM9.07019 8.064C8.67019 8.064 8.32619 7.984 8.03819 7.824C7.75019 7.664 7.52885 7.43467 7.37419 7.136C7.21952 6.83733 7.14219 6.48267 7.14219 6.072C7.14219 5.66667 7.21952 5.31467 7.37419 5.016C7.52885 4.712 7.74219 4.47467 8.01419 4.304C8.29152 4.13333 8.60885 4.048 8.96619 4.048C9.22752 4.048 9.45685 4.09333 9.65419 4.184C9.85685 4.26933 10.0275 4.39467 10.1662 4.56C10.3102 4.72 10.4195 4.91733 10.4942 5.152C10.5689 5.38133 10.6062 5.64267 10.6062 5.936C10.6062 6.01067 10.5849 6.06667 10.5422 6.104C10.5049 6.14133 10.4515 6.16 10.3822 6.16H7.49419V5.8H10.3022L10.1742 5.904C10.1742 5.59467 10.1289 5.33333 10.0382 5.12C9.94752 4.90133 9.81152 4.73333 9.63019 4.616C9.45419 4.49867 9.23552 4.44 8.97419 4.44C8.68085 4.44 8.43285 4.50933 8.23019 4.648C8.02752 4.78133 7.87552 4.968 7.77419 5.208C7.67285 5.44267 7.62219 5.71467 7.62219 6.024V6.064C7.62219 6.576 7.74752 6.97067 7.99819 7.248C8.24885 7.52 8.60085 7.656 9.05419 7.656C9.25152 7.656 9.44085 7.62933 9.62219 7.576C9.80885 7.52267 9.99019 7.432 10.1662 7.304C10.2195 7.26667 10.2702 7.248 10.3182 7.248C10.3715 7.248 10.4142 7.26133 10.4462 7.288C10.4835 7.31467 10.5075 7.34933 10.5182 7.392C10.5342 7.42933 10.5315 7.472 10.5102 7.52C10.4942 7.56267 10.4595 7.60267 10.4062 7.64C10.2355 7.77867 10.0302 7.88533 9.79019 7.96C9.55019 8.02933 9.31019 8.064 9.07019 8.064ZM12.8649 8.064C12.6249 8.064 12.3849 8.032 12.1449 7.968C11.9103 7.904 11.6863 7.79467 11.4729 7.64C11.4303 7.61333 11.4009 7.58133 11.3849 7.544C11.3743 7.50133 11.3716 7.45867 11.3769 7.416C11.3876 7.37333 11.4063 7.33867 11.4329 7.312C11.4649 7.28 11.5023 7.26133 11.5449 7.256C11.5876 7.25067 11.6329 7.264 11.6809 7.296C11.8889 7.43467 12.0916 7.53067 12.2889 7.584C12.4863 7.63733 12.6836 7.664 12.8809 7.664C13.2063 7.664 13.4543 7.60267 13.6249 7.48C13.7956 7.35733 13.8809 7.192 13.8809 6.984C13.8809 6.81333 13.8249 6.68267 13.7129 6.592C13.6063 6.496 13.4303 6.41867 13.1849 6.36L12.4889 6.2C12.1529 6.12533 11.9049 6.00533 11.7449 5.84C11.5849 5.66933 11.5049 5.45067 11.5049 5.184C11.5049 4.95467 11.5636 4.75467 11.6809 4.584C11.8036 4.41333 11.9743 4.28267 12.1929 4.192C12.4169 4.096 12.6729 4.048 12.9609 4.048C13.1956 4.048 13.4196 4.08267 13.6329 4.152C13.8463 4.22133 14.0329 4.328 14.1929 4.472C14.2356 4.504 14.2623 4.54133 14.2729 4.584C14.2889 4.62667 14.2889 4.66933 14.2729 4.712C14.2623 4.74933 14.2409 4.78133 14.2089 4.808C14.1769 4.83467 14.1396 4.848 14.0969 4.848C14.0543 4.848 14.0089 4.832 13.9609 4.8C13.8063 4.68267 13.6436 4.59733 13.4729 4.544C13.3023 4.48533 13.1289 4.456 12.9529 4.456C12.6436 4.456 12.4036 4.52 12.2329 4.648C12.0676 4.776 11.9849 4.94933 11.9849 5.168C11.9849 5.33333 12.0356 5.46667 12.1369 5.568C12.2436 5.66933 12.4089 5.74667 12.6329 5.8L13.3289 5.96C13.6756 6.04 13.9343 6.16 14.1049 6.32C14.2756 6.47467 14.3609 6.68533 14.3609 6.952C14.3609 7.29333 14.2249 7.56533 13.9529 7.768C13.6863 7.96533 13.3236 8.064 12.8649 8.064ZM17.1093 8.064C16.7093 8.064 16.3653 7.984 16.0773 7.824C15.7893 7.664 15.5679 7.43467 15.4133 7.136C15.2586 6.83733 15.1813 6.48267 15.1813 6.072C15.1813 5.66667 15.2586 5.31467 15.4133 5.016C15.5679 4.712 15.7813 4.47467 16.0533 4.304C16.3306 4.13333 16.6479 4.048 17.0053 4.048C17.2666 4.048 17.4959 4.09333 17.6933 4.184C17.8959 4.26933 18.0666 4.39467 18.2053 4.56C18.3493 4.72 18.4586 4.91733 18.5333 5.152C18.6079 5.38133 18.6453 5.64267 18.6453 5.936C18.6453 6.01067 18.6239 6.06667 18.5813 6.104C18.5439 6.14133 18.4906 6.16 18.4213 6.16H15.5333V5.8H18.3413L18.2133 5.904C18.2133 5.59467 18.1679 5.33333 18.0773 5.12C17.9866 4.90133 17.8506 4.73333 17.6693 4.616C17.4933 4.49867 17.2746 4.44 17.0133 4.44C16.7199 4.44 16.4719 4.50933 16.2693 4.648C16.0666 4.78133 15.9146 4.968 15.8133 5.208C15.7119 5.44267 15.6613 5.71467 15.6613 6.024V6.064C15.6613 6.576 15.7866 6.97067 16.0373 7.248C16.2879 7.52 16.6399 7.656 17.0933 7.656C17.2906 7.656 17.4799 7.62933 17.6613 7.576C17.8479 7.52267 18.0293 7.432 18.2053 7.304C18.2586 7.26667 18.3093 7.248 18.3573 7.248C18.4106 7.248 18.4533 7.26133 18.4853 7.288C18.5226 7.31467 18.5466 7.34933 18.5573 7.392C18.5733 7.42933 18.5706 7.472 18.5493 7.52C18.5333 7.56267 18.4986 7.60267 18.4453 7.64C18.2746 7.77867 18.0693 7.88533 17.8293 7.96C17.5893 8.02933 17.3493 8.064 17.1093 8.064ZM19.888 8.048C19.808 8.048 19.7467 8.02667 19.704 7.984C19.6613 7.94133 19.64 7.88 19.64 7.8V4.32C19.64 4.23467 19.6613 4.17067 19.704 4.128C19.7467 4.08533 19.808 4.064 19.888 4.064C19.9627 4.064 20.0187 4.08533 20.056 4.128C20.0987 4.17067 20.12 4.23467 20.12 4.32V5.072L20.032 5.024C20.1387 4.704 20.32 4.46133 20.576 4.296C20.8373 4.13067 21.136 4.048 21.472 4.048C21.7813 4.048 22.0373 4.104 22.24 4.216C22.448 4.32267 22.6027 4.488 22.704 4.712C22.8053 4.936 22.856 5.216 22.856 5.552V7.8C22.856 7.88 22.8347 7.94133 22.792 7.984C22.7493 8.02667 22.6907 8.048 22.616 8.048C22.536 8.048 22.4747 8.02667 22.432 7.984C22.3893 7.94133 22.368 7.88 22.368 7.8V5.592C22.368 5.20267 22.2907 4.92 22.136 4.744C21.9813 4.56267 21.736 4.472 21.4 4.472C21.016 4.472 20.7067 4.592 20.472 4.832C20.2427 5.06667 20.128 5.384 20.128 5.784V7.8C20.128 7.96533 20.048 8.048 19.888 8.048ZM25.4775 8.048C25.3975 8.048 25.3308 8.02667 25.2775 7.984C25.2242 7.94133 25.1762 7.87733 25.1335 7.792L23.6935 4.432C23.6668 4.368 23.6562 4.30933 23.6615 4.256C23.6722 4.19733 23.6962 4.152 23.7335 4.12C23.7762 4.08267 23.8348 4.064 23.9095 4.064C23.9788 4.064 24.0295 4.08 24.0615 4.112C24.0988 4.144 24.1308 4.19467 24.1575 4.264L25.5815 7.704H25.3815L26.8135 4.264C26.8402 4.19467 26.8722 4.144 26.9095 4.112C26.9468 4.08 27.0002 4.064 27.0695 4.064C27.1388 4.064 27.1895 4.08267 27.2215 4.12C27.2588 4.152 27.2802 4.19467 27.2855 4.248C27.2908 4.30133 27.2802 4.36 27.2535 4.424L25.8135 7.792C25.7815 7.87733 25.7362 7.94133 25.6775 7.984C25.6188 8.02667 25.5522 8.048 25.4775 8.048ZM29.6449 8.064C29.2823 8.064 28.9676 7.98133 28.7009 7.816C28.4343 7.65067 28.2263 7.41867 28.0769 7.12C27.9329 6.82133 27.8609 6.46667 27.8609 6.056C27.8609 5.752 27.9009 5.47733 27.9809 5.232C28.0663 4.98667 28.1863 4.776 28.3409 4.6C28.5009 4.41867 28.6903 4.28267 28.9089 4.192C29.1329 4.096 29.3783 4.048 29.6449 4.048C30.0129 4.048 30.3303 4.13067 30.5969 4.296C30.8636 4.46133 31.0689 4.696 31.2129 5C31.3623 5.29867 31.4369 5.65067 31.4369 6.056C31.4369 6.36533 31.3943 6.64267 31.3089 6.888C31.2289 7.13333 31.1089 7.344 30.9489 7.52C30.7943 7.696 30.6076 7.832 30.3889 7.928C30.1703 8.01867 29.9223 8.064 29.6449 8.064ZM29.6449 7.656C29.9116 7.656 30.1409 7.59467 30.3329 7.472C30.5303 7.344 30.6796 7.16 30.7809 6.92C30.8876 6.68 30.9409 6.392 30.9409 6.056C30.9409 5.54933 30.8236 5.15733 30.5889 4.88C30.3596 4.60267 30.0449 4.464 29.6449 4.464C29.3836 4.464 29.1543 4.528 28.9569 4.656C28.7649 4.77867 28.6156 4.96 28.5089 5.2C28.4076 5.43467 28.3569 5.72 28.3569 6.056C28.3569 6.568 28.4743 6.96267 28.7089 7.24C28.9436 7.51733 29.2556 7.656 29.6449 7.656ZM33.5959 8.064C33.2386 8.064 32.9613 7.952 32.7639 7.728C32.5719 7.504 32.4759 7.18667 32.4759 6.776V2.56C32.4759 2.47467 32.4973 2.41333 32.5399 2.376C32.5826 2.33333 32.6439 2.312 32.7239 2.312C32.7986 2.312 32.8573 2.33333 32.8999 2.376C32.9426 2.41333 32.9639 2.47467 32.9639 2.56V6.72C32.9639 7.02933 33.0253 7.26133 33.1479 7.416C33.2706 7.56533 33.4493 7.64 33.6839 7.64C33.7373 7.64 33.7826 7.63733 33.8199 7.632C33.8573 7.62667 33.8946 7.624 33.9319 7.624C33.9799 7.61867 34.0146 7.62933 34.0359 7.656C34.0626 7.67733 34.0759 7.72533 34.0759 7.8C34.0759 7.87467 34.0573 7.93067 34.0199 7.968C33.9826 8.00533 33.9213 8.032 33.8359 8.048C33.7986 8.05333 33.7586 8.056 33.7159 8.056C33.6786 8.06133 33.6386 8.064 33.5959 8.064ZM36.0713 8.048C35.9913 8.048 35.9246 8.02667 35.8713 7.984C35.8179 7.94133 35.7699 7.87733 35.7273 7.792L34.2873 4.432C34.2606 4.368 34.2499 4.30933 34.2553 4.256C34.2659 4.19733 34.2899 4.152 34.3273 4.12C34.3699 4.08267 34.4286 4.064 34.5033 4.064C34.5726 4.064 34.6233 4.08 34.6553 4.112C34.6926 4.144 34.7246 4.19467 34.7513 4.264L36.1753 7.704H35.9753L37.4073 4.264C37.4339 4.19467 37.4659 4.144 37.5033 4.112C37.5406 4.08 37.5939 4.064 37.6633 4.064C37.7326 4.064 37.7833 4.08267 37.8153 4.12C37.8526 4.152 37.8739 4.19467 37.8793 4.248C37.8846 4.30133 37.8739 4.36 37.8473 4.424L36.4073 7.792C36.3753 7.87733 36.3299 7.94133 36.2713 7.984C36.2126 8.02667 36.1459 8.048 36.0713 8.048ZM38.9896 8.032C38.9096 8.032 38.8482 8.008 38.8056 7.96C38.7629 7.912 38.7416 7.848 38.7416 7.768V4.344C38.7416 4.25867 38.7629 4.19467 38.8056 4.152C38.8482 4.10933 38.9096 4.088 38.9896 4.088C39.0642 4.088 39.1229 4.10933 39.1656 4.152C39.2082 4.19467 39.2296 4.25867 39.2296 4.344V7.768C39.2296 7.848 39.2082 7.912 39.1656 7.96C39.1282 8.008 39.0696 8.032 38.9896 8.032ZM38.9896 3.12C38.8776 3.12 38.7896 3.09067 38.7256 3.032C38.6669 2.97333 38.6376 2.89067 38.6376 2.784C38.6376 2.67733 38.6669 2.59733 38.7256 2.544C38.7896 2.48533 38.8776 2.456 38.9896 2.456C39.1016 2.456 39.1869 2.48533 39.2456 2.544C39.3096 2.59733 39.3416 2.67733 39.3416 2.784C39.3416 2.89067 39.3096 2.97333 39.2456 3.032C39.1869 3.09067 39.1016 3.12 38.9896 3.12ZM41.995 8.064C41.6483 8.064 41.3443 7.984 41.083 7.824C40.827 7.65867 40.627 7.42667 40.483 7.128C40.3443 6.824 40.275 6.46667 40.275 6.056C40.275 5.64533 40.3443 5.29067 40.483 4.992C40.6217 4.69333 40.819 4.46133 41.075 4.296C41.3363 4.13067 41.643 4.048 41.995 4.048C42.3577 4.048 42.667 4.14133 42.923 4.328C43.179 4.51467 43.3497 4.76533 43.435 5.08H43.347V2.56C43.347 2.47467 43.3683 2.41333 43.411 2.376C43.4537 2.33333 43.5123 2.312 43.587 2.312C43.667 2.312 43.7283 2.33333 43.771 2.376C43.8137 2.41333 43.835 2.47467 43.835 2.56V7.8C43.835 7.88 43.8137 7.94133 43.771 7.984C43.7283 8.02667 43.6697 8.048 43.595 8.048C43.515 8.048 43.4537 8.02667 43.411 7.984C43.3683 7.94133 43.347 7.88 43.347 7.8V6.976L43.435 7.032C43.3497 7.34667 43.179 7.59733 42.923 7.784C42.667 7.97067 42.3577 8.064 41.995 8.064ZM42.059 7.656C42.3257 7.656 42.555 7.59467 42.747 7.472C42.9443 7.344 43.0937 7.16 43.195 6.92C43.3017 6.68 43.355 6.392 43.355 6.056C43.355 5.54933 43.2377 5.15733 43.003 4.88C42.7737 4.60267 42.459 4.464 42.059 4.464C41.7977 4.464 41.5683 4.528 41.371 4.656C41.179 4.77867 41.0297 4.96 40.923 5.2C40.8217 5.43467 40.771 5.72 40.771 6.056C40.771 6.568 40.8883 6.96267 41.123 7.24C41.3577 7.51733 41.6697 7.656 42.059 7.656ZM46.6606 8.064C46.2979 8.064 45.9832 7.98133 45.7166 7.816C45.4499 7.65067 45.2419 7.41867 45.0926 7.12C44.9486 6.82133 44.8766 6.46667 44.8766 6.056C44.8766 5.752 44.9166 5.47733 44.9966 5.232C45.0819 4.98667 45.2019 4.776 45.3566 4.6C45.5166 4.41867 45.7059 4.28267 45.9246 4.192C46.1486 4.096 46.3939 4.048 46.6606 4.048C47.0286 4.048 47.3459 4.13067 47.6126 4.296C47.8792 4.46133 48.0846 4.696 48.2286 5C48.3779 5.29867 48.4526 5.65067 48.4526 6.056C48.4526 6.36533 48.4099 6.64267 48.3246 6.888C48.2446 7.13333 48.1246 7.344 47.9646 7.52C47.8099 7.696 47.6232 7.832 47.4046 7.928C47.1859 8.01867 46.9379 8.064 46.6606 8.064ZM46.6606 7.656C46.9272 7.656 47.1566 7.59467 47.3486 7.472C47.5459 7.344 47.6952 7.16 47.7966 6.92C47.9032 6.68 47.9566 6.392 47.9566 6.056C47.9566 5.54933 47.8392 5.15733 47.6046 4.88C47.3752 4.60267 47.0606 4.464 46.6606 4.464C46.3992 4.464 46.1699 4.528 45.9726 4.656C45.7806 4.77867 45.6312 4.96 45.5246 5.2C45.4232 5.43467 45.3726 5.72 45.3726 6.056C45.3726 6.568 45.4899 6.96267 45.7246 7.24C45.9592 7.51733 46.2712 7.656 46.6606 7.656ZM51.7552 9.488C51.6752 9.488 51.6139 9.46667 51.5712 9.424C51.5285 9.38133 51.5072 9.32 51.5072 9.24V4.32C51.5072 4.23467 51.5285 4.17067 51.5712 4.128C51.6139 4.08533 51.6752 4.064 51.7552 4.064C51.8299 4.064 51.8885 4.08533 51.9312 4.128C51.9739 4.17067 51.9952 4.23467 51.9952 4.32V5.136L51.9072 5.088C51.9979 4.768 52.1712 4.51467 52.4272 4.328C52.6832 4.14133 52.9925 4.048 53.3552 4.048C53.7019 4.048 54.0032 4.13067 54.2592 4.296C54.5205 4.46133 54.7205 4.69333 54.8592 4.992C55.0032 5.29067 55.0752 5.64533 55.0752 6.056C55.0752 6.46667 55.0032 6.824 54.8592 7.128C54.7205 7.42667 54.5232 7.65867 54.2672 7.824C54.0112 7.984 53.7072 8.064 53.3552 8.064C52.9925 8.064 52.6832 7.97067 52.4272 7.784C52.1712 7.59733 51.9979 7.34933 51.9072 7.04H51.9952V9.24C51.9952 9.32 51.9739 9.38133 51.9312 9.424C51.8885 9.46667 51.8299 9.488 51.7552 9.488ZM53.2832 7.656C53.5445 7.656 53.7712 7.59467 53.9632 7.472C54.1605 7.344 54.3125 7.16 54.4192 6.92C54.5259 6.68 54.5792 6.392 54.5792 6.056C54.5792 5.54933 54.4619 5.15733 54.2272 4.88C53.9925 4.60267 53.6779 4.464 53.2832 4.464C53.0219 4.464 52.7925 4.528 52.5952 4.656C52.4032 4.77867 52.2539 4.96 52.1472 5.2C52.0405 5.43467 51.9872 5.72 51.9872 6.056C51.9872 6.568 52.1045 6.96267 52.3392 7.24C52.5739 7.51733 52.8885 7.656 53.2832 7.656ZM57.6528 8.064C57.2901 8.064 56.9754 7.98133 56.7088 7.816C56.4421 7.65067 56.2341 7.41867 56.0848 7.12C55.9408 6.82133 55.8688 6.46667 55.8688 6.056C55.8688 5.752 55.9088 5.47733 55.9888 5.232C56.0741 4.98667 56.1941 4.776 56.3488 4.6C56.5088 4.41867 56.6981 4.28267 56.9168 4.192C57.1408 4.096 57.3861 4.048 57.6528 4.048C58.0208 4.048 58.3381 4.13067 58.6048 4.296C58.8714 4.46133 59.0768 4.696 59.2208 5C59.3701 5.29867 59.4448 5.65067 59.4448 6.056C59.4448 6.36533 59.4021 6.64267 59.3168 6.888C59.2368 7.13333 59.1168 7.344 58.9568 7.52C58.8021 7.696 58.6154 7.832 58.3968 7.928C58.1781 8.01867 57.9301 8.064 57.6528 8.064ZM57.6528 7.656C57.9194 7.656 58.1488 7.59467 58.3408 7.472C58.5381 7.344 58.6874 7.16 58.7888 6.92C58.8954 6.68 58.9488 6.392 58.9488 6.056C58.9488 5.54933 58.8314 5.15733 58.5968 4.88C58.3674 4.60267 58.0528 4.464 57.6528 4.464C57.3914 4.464 57.1621 4.528 56.9648 4.656C56.7728 4.77867 56.6234 4.96 56.5168 5.2C56.4154 5.43467 56.3648 5.72 56.3648 6.056C56.3648 6.568 56.4821 6.96267 56.7168 7.24C56.9514 7.51733 57.2634 7.656 57.6528 7.656ZM60.7318 8.048C60.6518 8.048 60.5904 8.02667 60.5478 7.984C60.5051 7.94133 60.4838 7.88 60.4838 7.8V4.32C60.4838 4.23467 60.5051 4.17067 60.5478 4.128C60.5904 4.08533 60.6518 4.064 60.7318 4.064C60.8064 4.064 60.8624 4.08533 60.8997 4.128C60.9424 4.17067 60.9638 4.23467 60.9638 4.32V5.032H60.8838C60.9798 4.71733 61.1504 4.47467 61.3958 4.304C61.6464 4.13333 61.9451 4.04533 62.2918 4.04C62.3558 4.03467 62.4091 4.048 62.4518 4.08C62.4944 4.112 62.5158 4.16267 62.5158 4.232C62.5211 4.30667 62.5051 4.36533 62.4678 4.408C62.4304 4.44533 62.3691 4.46933 62.2838 4.48L62.1718 4.488C61.7931 4.52533 61.4998 4.65067 61.2918 4.864C61.0838 5.07733 60.9798 5.36533 60.9798 5.728V7.8C60.9798 7.88 60.9584 7.94133 60.9158 7.984C60.8784 8.02667 60.8171 8.048 60.7318 8.048ZM63.5441 8.024C63.4374 8.024 63.3494 7.98933 63.2801 7.92C63.2107 7.85067 63.1761 7.76267 63.1761 7.656C63.1761 7.54933 63.2107 7.46133 63.2801 7.392C63.3494 7.32267 63.4374 7.288 63.5441 7.288C63.6561 7.288 63.7441 7.32267 63.8081 7.392C63.8774 7.46133 63.9121 7.54933 63.9121 7.656C63.9121 7.76267 63.8774 7.85067 63.8081 7.92C63.7441 7.98933 63.6561 8.024 63.5441 8.024ZM63.5441 4.832C63.4374 4.832 63.3494 4.79733 63.2801 4.728C63.2107 4.65333 63.1761 4.56533 63.1761 4.464C63.1761 4.352 63.2107 4.26133 63.2801 4.192C63.3494 4.12267 63.4374 4.088 63.5441 4.088C63.6561 4.088 63.7441 4.12267 63.8081 4.192C63.8774 4.26133 63.9121 4.352 63.9121 4.464C63.9121 4.56533 63.8774 4.65333 63.8081 4.728C63.7441 4.79733 63.6561 4.832 63.5441 4.832Z" fill="#EFEAD8"/>
<g clip-path="url(#clip0_95_148)">
<path d="M84.5729 24.8098H93.177V26.7838H84.5729V24.8098Z" fill="#EFEAD8"/>
<mask id="mask0_95_148" style="mask-type:luminance" maskUnits="userSpaceOnUse" x="81" y="26" width="15" height="3">
<path d="M81.75 26H96V28.9219H81.75V26Z" fill="white"/>
</mask>
<g mask="url(#mask0_95_148)">
<path d="M95.8932 27.4949C95.8932 28.2813 95.2292 28.922 94.4115 28.922H83.3438C82.5208 28.922 81.8594 28.2813 81.8594 27.4949C81.8594 26.7032 82.5208 26.0652 83.3438 26.0652H94.4115C95.2292 26.0652 95.8932 26.7058 95.8932 27.4949Z" fill="#EFEAD8"/>
</g>
<mask id="mask1_95_148" style="mask-type:luminance" maskUnits="userSpaceOnUse" x="73" y="2" width="32" height="22">
<path d="M73.2006 2.1355H104.547V24.0001H73.2006V2.1355Z" fill="white"/>
</mask>
<g mask="url(#mask1_95_148)">
<path d="M102.5 19.9507H75.25V4.59391C75.25 4.4637 75.3438 4.35173 75.4558 4.35173H102.294C102.406 4.35173 102.5 4.4637 102.5 4.59391V19.9507ZM88.875 22.8726C88.3568 22.8726 87.9375 22.4533 87.9375 21.9351C87.9375 21.422 88.3568 21.0028 88.875 21.0028C89.3933 21.0028 89.8151 21.422 89.8151 21.9351C89.8151 22.4507 89.3933 22.8726 88.875 22.8726ZM102.294 2.31006H75.4558C74.211 2.31006 73.2006 3.3361 73.2006 4.59391V21.6434C73.2006 22.9012 74.211 23.9246 75.4558 23.9246H102.294C103.539 23.9246 104.55 22.9012 104.55 21.6434V4.59652C104.55 3.3361 103.539 2.31006 102.294 2.31006Z" fill="#EFEAD8"/>
</g>
<path d="M77.276 13.4401L79.8046 15.9557C79.9427 16.0911 80.1588 16.0911 80.2916 15.9557L81.1536 15.1042C81.2864 14.9688 81.2864 14.7552 81.1536 14.6198L78.8645 12.3411C78.7291 12.2083 78.7291 11.9922 78.8645 11.8568L81.1536 9.58073C81.2864 9.44792 81.2864 9.23177 81.1536 9.09896L80.2916 8.24219C80.1588 8.10937 79.9427 8.10937 79.8046 8.24219L77.276 10.763L76.1744 11.8568C76.039 11.9922 76.039 12.2083 76.1744 12.3411L77.276 13.4401Z" fill="#EFEAD8"/>
<path d="M101.576 12.3411C101.711 12.2083 101.711 11.9922 101.576 11.8568L97.9453 8.24219C97.8073 8.10937 97.5938 8.10937 97.4583 8.24219L96.6016 9.09896C96.4661 9.23177 96.4661 9.44792 96.6016 9.58073L98.888 11.8568C99.0208 11.9896 99.0208 12.2083 98.888 12.3411L96.6016 14.6198C96.4661 14.7552 96.4661 14.9688 96.6016 15.1042L97.4583 15.9557C97.5938 16.0885 97.8073 16.0885 97.9453 15.9557L101.576 12.3411Z" fill="#EFEAD8"/>
<path d="M86.763 18.0025L85.3203 17.2759C85.2135 17.2186 85.1797 17.0754 85.2448 16.9478L90.6823 6.32801C90.7448 6.20041 90.8854 6.14051 90.9896 6.1926L92.4323 6.92437C92.5365 6.98166 92.5703 7.12489 92.5078 7.25249L87.0729 17.8723C87.0052 17.9999 86.8698 18.0598 86.763 18.0051V18.0025Z" fill="#EFEAD8"/>
<path d="M81.1146 12.1015C81.1146 12.5155 81.4506 12.8567 81.8698 12.8567H82.9558V13.9348C82.9558 14.3541 83.2969 14.69 83.7188 14.69C84.1381 14.69 84.4792 14.3567 84.4792 13.9348V12.8567H85.5599C85.9818 12.8567 86.323 12.5155 86.323 12.0989C86.323 11.6796 85.9818 11.3437 85.5599 11.3437H84.4792V10.2629C84.4792 9.84627 84.1381 9.50513 83.7188 9.50513C83.2969 9.50513 82.9558 9.84627 82.9558 10.2629V11.3437H81.8698C81.4532 11.3437 81.1146 11.6796 81.1146 12.1015Z" fill="#EFEAD8"/>
<path d="M95.6641 12.901C96.1407 12.901 96.5235 12.5208 96.5235 12.0521C96.5235 11.5781 96.1407 11.1953 95.6641 11.1953C95.1954 11.1953 94.8099 11.5807 94.8099 12.0521C94.8099 12.5208 95.1954 12.901 95.6641 12.901Z" fill="#EFEAD8"/>
<path d="M94.8724 10.5105C94.8724 10.0417 94.4921 9.65894 94.0156 9.65894C93.5416 9.65894 93.1588 10.0417 93.1588 10.5105C93.1588 10.9819 93.5416 11.3621 94.0156 11.3621C94.4921 11.3621 94.8724 10.9819 94.8724 10.5105Z" fill="#EFEAD8"/>
<path d="M94.9792 13.6902C94.9792 14.1615 94.5964 14.5444 94.1198 14.5444C93.6485 14.5444 93.2631 14.1615 93.2631 13.6902C93.2631 13.2214 93.6485 12.8386 94.1198 12.8386C94.5964 12.8386 94.9792 13.2214 94.9792 13.6902Z" fill="#EFEAD8"/>
<path d="M93.3307 12.1536C93.3307 12.6223 92.9453 13.0051 92.474 13.0051C92 13.0051 91.6172 12.6223 91.6172 12.1536C91.6172 11.6822 92 11.302 92.474 11.302C92.9453 11.302 93.3307 11.6822 93.3307 12.1536Z" fill="#EFEAD8"/>
</g>
<defs>
<clipPath id="clip0_95_148">
<rect width="32" height="32" fill="white" transform="translate(72.875)"/>
</clipPath>
</defs>
</svg>
