<svg width="88" height="32" viewBox="0 0 88 32" fill="none" xmlns="http://www.w3.org/2000/svg">
<path d="M1.008 8C0.922667 8 0.856 7.976 0.808 7.928C0.76 7.88 0.736 7.81067 0.736 7.72V2.64C0.736 2.54933 0.76 2.48 0.808 2.432C0.856 2.384 0.922667 2.36 1.008 2.36H2.552C3.448 2.36 4.13867 2.6 4.624 3.08C5.11467 3.56 5.36 4.25867 5.36 5.176C5.36 5.63467 5.296 6.04 5.168 6.392C5.04533 6.744 4.864 7.04 4.624 7.28C4.384 7.51467 4.09067 7.69333 3.744 7.816C3.39733 7.93867 3 8 2.552 8H1.008ZM1.224 7.568H2.512C2.90133 7.568 3.24 7.51733 3.528 7.416C3.82133 7.31467 4.064 7.16533 4.256 6.968C4.448 6.77067 4.592 6.52267 4.688 6.224C4.784 5.92 4.832 5.57067 4.832 5.176C4.832 4.38133 4.63733 3.78667 4.248 3.392C3.864 2.992 3.28533 2.792 2.512 2.792H1.224V7.568ZM8.19519 8.064C7.79519 8.064 7.45119 7.984 7.16319 7.824C6.87519 7.664 6.65385 7.43467 6.49919 7.136C6.34452 6.83733 6.26719 6.48267 6.26719 6.072C6.26719 5.66667 6.34452 5.31467 6.49919 5.016C6.65385 4.712 6.86719 4.47467 7.13919 4.304C7.41652 4.13333 7.73385 4.048 8.09119 4.048C8.35252 4.048 8.58185 4.09333 8.77919 4.184C8.98185 4.26933 9.15252 4.39467 9.29119 4.56C9.43519 4.72 9.54452 4.91733 9.61919 5.152C9.69385 5.38133 9.73119 5.64267 9.73119 5.936C9.73119 6.01067 9.70985 6.06667 9.66719 6.104C9.62985 6.14133 9.57652 6.16 9.50719 6.16H6.61919V5.8H9.42719L9.29919 5.904C9.29919 5.59467 9.25385 5.33333 9.16319 5.12C9.07252 4.90133 8.93652 4.73333 8.75519 4.616C8.57919 4.49867 8.36052 4.44 8.09919 4.44C7.80585 4.44 7.55785 4.50933 7.35519 4.648C7.15252 4.78133 7.00052 4.968 6.89919 5.208C6.79785 5.44267 6.74719 5.71467 6.74719 6.024V6.064C6.74719 6.576 6.87252 6.97067 7.12319 7.248C7.37385 7.52 7.72585 7.656 8.17919 7.656C8.37652 7.656 8.56585 7.62933 8.74719 7.576C8.93385 7.52267 9.11519 7.432 9.29119 7.304C9.34452 7.26667 9.39519 7.248 9.44319 7.248C9.49652 7.248 9.53919 7.26133 9.57119 7.288C9.60852 7.31467 9.63252 7.34933 9.64319 7.392C9.65919 7.42933 9.65652 7.472 9.63519 7.52C9.61919 7.56267 9.58452 7.60267 9.53119 7.64C9.36052 7.77867 9.15519 7.88533 8.91519 7.96C8.67519 8.02933 8.43519 8.064 8.19519 8.064ZM11.9899 8.064C11.7499 8.064 11.5099 8.032 11.2699 7.968C11.0353 7.904 10.8113 7.79467 10.5979 7.64C10.5553 7.61333 10.5259 7.58133 10.5099 7.544C10.4993 7.50133 10.4966 7.45867 10.5019 7.416C10.5126 7.37333 10.5313 7.33867 10.5579 7.312C10.5899 7.28 10.6273 7.26133 10.6699 7.256C10.7126 7.25067 10.7579 7.264 10.8059 7.296C11.0139 7.43467 11.2166 7.53067 11.4139 7.584C11.6113 7.63733 11.8086 7.664 12.0059 7.664C12.3313 7.664 12.5793 7.60267 12.7499 7.48C12.9206 7.35733 13.0059 7.192 13.0059 6.984C13.0059 6.81333 12.9499 6.68267 12.8379 6.592C12.7313 6.496 12.5553 6.41867 12.3099 6.36L11.6139 6.2C11.2779 6.12533 11.0299 6.00533 10.8699 5.84C10.7099 5.66933 10.6299 5.45067 10.6299 5.184C10.6299 4.95467 10.6886 4.75467 10.8059 4.584C10.9286 4.41333 11.0993 4.28267 11.3179 4.192C11.5419 4.096 11.7979 4.048 12.0859 4.048C12.3206 4.048 12.5446 4.08267 12.7579 4.152C12.9713 4.22133 13.1579 4.328 13.3179 4.472C13.3606 4.504 13.3873 4.54133 13.3979 4.584C13.4139 4.62667 13.4139 4.66933 13.3979 4.712C13.3873 4.74933 13.3659 4.78133 13.3339 4.808C13.3019 4.83467 13.2646 4.848 13.2219 4.848C13.1793 4.848 13.1339 4.832 13.0859 4.8C12.9313 4.68267 12.7686 4.59733 12.5979 4.544C12.4273 4.48533 12.2539 4.456 12.0779 4.456C11.7686 4.456 11.5286 4.52 11.3579 4.648C11.1926 4.776 11.1099 4.94933 11.1099 5.168C11.1099 5.33333 11.1606 5.46667 11.2619 5.568C11.3686 5.66933 11.5339 5.74667 11.7579 5.8L12.4539 5.96C12.8006 6.04 13.0593 6.16 13.2299 6.32C13.4006 6.47467 13.4859 6.68533 13.4859 6.952C13.4859 7.29333 13.3499 7.56533 13.0779 7.768C12.8113 7.96533 12.4486 8.064 11.9899 8.064ZM14.7943 8.032C14.7143 8.032 14.6529 8.008 14.6103 7.96C14.5676 7.912 14.5463 7.848 14.5463 7.768V4.344C14.5463 4.25867 14.5676 4.19467 14.6103 4.152C14.6529 4.10933 14.7143 4.088 14.7943 4.088C14.8689 4.088 14.9276 4.10933 14.9703 4.152C15.0129 4.19467 15.0343 4.25867 15.0343 4.344V7.768C15.0343 7.848 15.0129 7.912 14.9703 7.96C14.9329 8.008 14.8743 8.032 14.7943 8.032ZM14.7943 3.12C14.6823 3.12 14.5943 3.09067 14.5303 3.032C14.4716 2.97333 14.4423 2.89067 14.4423 2.784C14.4423 2.67733 14.4716 2.59733 14.5303 2.544C14.5943 2.48533 14.6823 2.456 14.7943 2.456C14.9063 2.456 14.9916 2.48533 15.0503 2.544C15.1143 2.59733 15.1463 2.67733 15.1463 2.784C15.1463 2.89067 15.1143 2.97333 15.0503 3.032C14.9916 3.09067 14.9063 3.12 14.7943 3.12ZM18.0077 9.504C17.7197 9.504 17.4397 9.46667 17.1677 9.392C16.901 9.32267 16.6584 9.208 16.4397 9.048C16.397 9.02133 16.3677 8.98667 16.3517 8.944C16.341 8.90133 16.341 8.85867 16.3517 8.816C16.3624 8.77867 16.381 8.744 16.4077 8.712C16.4397 8.68 16.4744 8.66133 16.5117 8.656C16.5544 8.65067 16.597 8.65867 16.6397 8.68C16.8744 8.83467 17.0984 8.94133 17.3117 9C17.5304 9.064 17.757 9.096 17.9917 9.096C18.381 9.096 18.677 8.98667 18.8797 8.768C19.0824 8.55467 19.1837 8.248 19.1837 7.848V6.856H19.2637C19.1837 7.18667 19.013 7.44533 18.7517 7.632C18.4904 7.81867 18.181 7.912 17.8237 7.912C17.4664 7.912 17.157 7.832 16.8957 7.672C16.6344 7.50667 16.4317 7.28 16.2877 6.992C16.149 6.69867 16.0797 6.36 16.0797 5.976C16.0797 5.688 16.1197 5.42667 16.1997 5.192C16.2797 4.95733 16.3944 4.75467 16.5437 4.584C16.6984 4.41333 16.8824 4.28267 17.0957 4.192C17.309 4.096 17.5517 4.048 17.8237 4.048C18.181 4.048 18.4904 4.144 18.7517 4.336C19.013 4.52267 19.181 4.776 19.2557 5.096L19.1757 5.144V4.32C19.1757 4.23467 19.197 4.17067 19.2397 4.128C19.2824 4.08533 19.341 4.064 19.4157 4.064C19.4957 4.064 19.5544 4.08533 19.5917 4.128C19.6344 4.17067 19.6557 4.23467 19.6557 4.32V7.776C19.6557 8.34667 19.517 8.776 19.2397 9.064C18.9624 9.35733 18.5517 9.504 18.0077 9.504ZM17.8797 7.496C18.1464 7.496 18.3757 7.43467 18.5677 7.312C18.765 7.184 18.917 7.008 19.0237 6.784C19.1304 6.55467 19.1837 6.28533 19.1837 5.976C19.1837 5.512 19.0664 5.144 18.8317 4.872C18.597 4.6 18.2797 4.464 17.8797 4.464C17.613 4.464 17.381 4.52533 17.1837 4.648C16.9864 4.77067 16.8344 4.94667 16.7277 5.176C16.6264 5.4 16.5757 5.66667 16.5757 5.976C16.5757 6.44 16.693 6.81067 16.9277 7.088C17.1624 7.36 17.4797 7.496 17.8797 7.496ZM21.1927 8.048C21.1127 8.048 21.0514 8.02667 21.0087 7.984C20.966 7.94133 20.9447 7.88 20.9447 7.8V4.32C20.9447 4.23467 20.966 4.17067 21.0087 4.128C21.0514 4.08533 21.1127 4.064 21.1927 4.064C21.2674 4.064 21.3234 4.08533 21.3607 4.128C21.4034 4.17067 21.4247 4.23467 21.4247 4.32V5.072L21.3367 5.024C21.4434 4.704 21.6247 4.46133 21.8807 4.296C22.142 4.13067 22.4407 4.048 22.7767 4.048C23.086 4.048 23.342 4.104 23.5447 4.216C23.7527 4.32267 23.9074 4.488 24.0087 4.712C24.11 4.936 24.1607 5.216 24.1607 5.552V7.8C24.1607 7.88 24.1394 7.94133 24.0967 7.984C24.054 8.02667 23.9954 8.048 23.9207 8.048C23.8407 8.048 23.7794 8.02667 23.7367 7.984C23.694 7.94133 23.6727 7.88 23.6727 7.8V5.592C23.6727 5.20267 23.5954 4.92 23.4407 4.744C23.286 4.56267 23.0407 4.472 22.7047 4.472C22.3207 4.472 22.0114 4.592 21.7767 4.832C21.5474 5.06667 21.4327 5.384 21.4327 5.784V7.8C21.4327 7.96533 21.3527 8.048 21.1927 8.048ZM27.1093 8.064C26.7093 8.064 26.3653 7.984 26.0773 7.824C25.7893 7.664 25.5679 7.43467 25.4133 7.136C25.2586 6.83733 25.1813 6.48267 25.1813 6.072C25.1813 5.66667 25.2586 5.31467 25.4133 5.016C25.5679 4.712 25.7813 4.47467 26.0533 4.304C26.3306 4.13333 26.6479 4.048 27.0053 4.048C27.2666 4.048 27.4959 4.09333 27.6933 4.184C27.8959 4.26933 28.0666 4.39467 28.2053 4.56C28.3493 4.72 28.4586 4.91733 28.5333 5.152C28.6079 5.38133 28.6453 5.64267 28.6453 5.936C28.6453 6.01067 28.6239 6.06667 28.5813 6.104C28.5439 6.14133 28.4906 6.16 28.4213 6.16H25.5333V5.8H28.3413L28.2133 5.904C28.2133 5.59467 28.1679 5.33333 28.0773 5.12C27.9866 4.90133 27.8506 4.73333 27.6693 4.616C27.4933 4.49867 27.2746 4.44 27.0133 4.44C26.7199 4.44 26.4719 4.50933 26.2693 4.648C26.0666 4.78133 25.9146 4.968 25.8133 5.208C25.7119 5.44267 25.6613 5.71467 25.6613 6.024V6.064C25.6613 6.576 25.7866 6.97067 26.0373 7.248C26.2879 7.52 26.6399 7.656 27.0933 7.656C27.2906 7.656 27.4799 7.62933 27.6613 7.576C27.8479 7.52267 28.0293 7.432 28.2053 7.304C28.2586 7.26667 28.3093 7.248 28.3573 7.248C28.4106 7.248 28.4533 7.26133 28.4853 7.288C28.5226 7.31467 28.5466 7.34933 28.5573 7.392C28.5733 7.42933 28.5706 7.472 28.5493 7.52C28.5333 7.56267 28.4986 7.60267 28.4453 7.64C28.2746 7.77867 28.0693 7.88533 27.8293 7.96C27.5893 8.02933 27.3493 8.064 27.1093 8.064ZM29.888 8.048C29.808 8.048 29.7467 8.02667 29.704 7.984C29.6613 7.94133 29.64 7.88 29.64 7.8V4.32C29.64 4.23467 29.6613 4.17067 29.704 4.128C29.7467 4.08533 29.808 4.064 29.888 4.064C29.9627 4.064 30.0187 4.08533 30.056 4.128C30.0987 4.17067 30.12 4.23467 30.12 4.32V5.032H30.04C30.136 4.71733 30.3067 4.47467 30.552 4.304C30.8027 4.13333 31.1013 4.04533 31.448 4.04C31.512 4.03467 31.5653 4.048 31.608 4.08C31.6507 4.112 31.672 4.16267 31.672 4.232C31.6773 4.30667 31.6613 4.36533 31.624 4.408C31.5867 4.44533 31.5253 4.46933 31.44 4.48L31.328 4.488C30.9493 4.52533 30.656 4.65067 30.448 4.864C30.24 5.07733 30.136 5.36533 30.136 5.728V7.8C30.136 7.88 30.1147 7.94133 30.072 7.984C30.0347 8.02667 29.9733 8.048 29.888 8.048ZM34.638 9.488C34.558 9.488 34.4967 9.46667 34.454 9.424C34.4113 9.38133 34.39 9.32 34.39 9.24V4.32C34.39 4.23467 34.4113 4.17067 34.454 4.128C34.4967 4.08533 34.558 4.064 34.638 4.064C34.7127 4.064 34.7713 4.08533 34.814 4.128C34.8567 4.17067 34.878 4.23467 34.878 4.32V5.136L34.79 5.088C34.8807 4.768 35.054 4.51467 35.31 4.328C35.566 4.14133 35.8753 4.048 36.238 4.048C36.5847 4.048 36.886 4.13067 37.142 4.296C37.4033 4.46133 37.6033 4.69333 37.742 4.992C37.886 5.29067 37.958 5.64533 37.958 6.056C37.958 6.46667 37.886 6.824 37.742 7.128C37.6033 7.42667 37.406 7.65867 37.15 7.824C36.894 7.984 36.59 8.064 36.238 8.064C35.8753 8.064 35.566 7.97067 35.31 7.784C35.054 7.59733 34.8807 7.34933 34.79 7.04H34.878V9.24C34.878 9.32 34.8567 9.38133 34.814 9.424C34.7713 9.46667 34.7127 9.488 34.638 9.488ZM36.166 7.656C36.4273 7.656 36.654 7.59467 36.846 7.472C37.0433 7.344 37.1953 7.16 37.302 6.92C37.4087 6.68 37.462 6.392 37.462 6.056C37.462 5.54933 37.3447 5.15733 37.11 4.88C36.8753 4.60267 36.5607 4.464 36.166 4.464C35.9047 4.464 35.6753 4.528 35.478 4.656C35.286 4.77867 35.1367 4.96 35.03 5.2C34.9233 5.43467 34.87 5.72 34.87 6.056C34.87 6.568 34.9873 6.96267 35.222 7.24C35.4567 7.51733 35.7713 7.656 36.166 7.656ZM40.5356 8.064C40.1729 8.064 39.8582 7.98133 39.5916 7.816C39.3249 7.65067 39.1169 7.41867 38.9676 7.12C38.8236 6.82133 38.7516 6.46667 38.7516 6.056C38.7516 5.752 38.7916 5.47733 38.8716 5.232C38.9569 4.98667 39.0769 4.776 39.2316 4.6C39.3916 4.41867 39.5809 4.28267 39.7996 4.192C40.0236 4.096 40.2689 4.048 40.5356 4.048C40.9036 4.048 41.2209 4.13067 41.4876 4.296C41.7542 4.46133 41.9596 4.696 42.1036 5C42.2529 5.29867 42.3276 5.65067 42.3276 6.056C42.3276 6.36533 42.2849 6.64267 42.1996 6.888C42.1196 7.13333 41.9996 7.344 41.8396 7.52C41.6849 7.696 41.4982 7.832 41.2796 7.928C41.0609 8.01867 40.8129 8.064 40.5356 8.064ZM40.5356 7.656C40.8022 7.656 41.0316 7.59467 41.2236 7.472C41.4209 7.344 41.5702 7.16 41.6716 6.92C41.7782 6.68 41.8316 6.392 41.8316 6.056C41.8316 5.54933 41.7142 5.15733 41.4796 4.88C41.2502 4.60267 40.9356 4.464 40.5356 4.464C40.2742 4.464 40.0449 4.528 39.8476 4.656C39.6556 4.77867 39.5062 4.96 39.3996 5.2C39.2982 5.43467 39.2476 5.72 39.2476 6.056C39.2476 6.568 39.3649 6.96267 39.5996 7.24C39.8342 7.51733 40.1462 7.656 40.5356 7.656ZM43.6146 8.048C43.5346 8.048 43.4732 8.02667 43.4306 7.984C43.3879 7.94133 43.3666 7.88 43.3666 7.8V4.32C43.3666 4.23467 43.3879 4.17067 43.4306 4.128C43.4732 4.08533 43.5346 4.064 43.6146 4.064C43.6892 4.064 43.7452 4.08533 43.7826 4.128C43.8252 4.17067 43.8466 4.23467 43.8466 4.32V5.032H43.7666C43.8626 4.71733 44.0332 4.47467 44.2786 4.304C44.5292 4.13333 44.8279 4.04533 45.1746 4.04C45.2386 4.03467 45.2919 4.048 45.3346 4.08C45.3772 4.112 45.3986 4.16267 45.3986 4.232C45.4039 4.30667 45.3879 4.36533 45.3506 4.408C45.3132 4.44533 45.2519 4.46933 45.1666 4.48L45.0546 4.488C44.6759 4.52533 44.3826 4.65067 44.1746 4.864C43.9666 5.07733 43.8626 5.36533 43.8626 5.728V7.8C43.8626 7.88 43.8412 7.94133 43.7986 7.984C43.7612 8.02667 43.6999 8.048 43.6146 8.048ZM46.4269 8.024C46.3202 8.024 46.2322 7.98933 46.1629 7.92C46.0935 7.85067 46.0589 7.76267 46.0589 7.656C46.0589 7.54933 46.0935 7.46133 46.1629 7.392C46.2322 7.32267 46.3202 7.288 46.4269 7.288C46.5389 7.288 46.6269 7.32267 46.6909 7.392C46.7602 7.46133 46.7949 7.54933 46.7949 7.656C46.7949 7.76267 46.7602 7.85067 46.6909 7.92C46.6269 7.98933 46.5389 8.024 46.4269 8.024ZM46.4269 4.832C46.3202 4.832 46.2322 4.79733 46.1629 4.728C46.0935 4.65333 46.0589 4.56533 46.0589 4.464C46.0589 4.352 46.0935 4.26133 46.1629 4.192C46.2322 4.12267 46.3202 4.088 46.4269 4.088C46.5389 4.088 46.6269 4.12267 46.6909 4.192C46.7602 4.26133 46.7949 4.352 46.7949 4.464C46.7949 4.56533 46.7602 4.65333 46.6909 4.728C46.6269 4.79733 46.5389 4.832 46.4269 4.832Z" fill="#EFEAD8"/>
<path d="M62.5026 7.35425L72.1198 12.8647L62.5026 18.3777V7.35425Z" fill="#EFEAD8"/>
<path d="M61.2005 15.3567L59.0234 14.1119L61.2005 12.8645V15.3567Z" fill="#EFEAD8"/>
<path d="M61.3516 18.8541L58.724 17.3489L61.3516 15.8411V18.8541Z" fill="#EFEAD8"/>
<path d="M61.2005 12.1796L59.0234 10.9322L61.2005 9.68481V12.1796Z" fill="#EFEAD8"/>
<path d="M71.8308 10.9324L64.6537 6.81779L71.8308 2.70581V10.9324Z" fill="#EFEAD8"/>
<mask id="mask0_95_125" style="mask-type:luminance" maskUnits="userSpaceOnUse" x="60" y="0" width="12" height="13">
<path d="M60.3334 0.00512695H71.5677V12.8749H60.3334V0.00512695Z" fill="white"/>
</mask>
<g mask="url(#mask0_95_125)">
<path d="M60.3334 12.8749V0.00512695L71.5677 6.44002L60.3334 12.8749ZM60.6797 0.598877V12.2812L70.875 6.44002L60.6797 0.598877Z" fill="#EFEAD8"/>
</g>
<mask id="mask1_95_125" style="mask-type:luminance" maskUnits="userSpaceOnUse" x="56" y="18" width="11" height="13">
<path d="M56.3256 18.6667H66.6667V30.3699H56.3256V18.6667Z" fill="white"/>
</mask>
<g mask="url(#mask1_95_125)">
<path d="M56.3281 18.8542L66.3724 24.6095L56.3281 30.3673V18.8542Z" fill="#EFEAD8"/>
</g>
<path d="M72.1198 27.19L60.3438 20.4426L72.1198 13.6926V27.19Z" fill="#EFEAD8"/>
<path d="M79.7083 8.61987L73.7969 5.23185L79.7083 1.84644V8.61987Z" fill="#EFEAD8"/>
<path d="M82.3177 18.8306L73.7969 13.9504L82.3177 9.06763V18.8306Z" fill="#EFEAD8"/>
<path d="M72.6041 13.8621L82.3177 19.4298L72.6041 24.9949V13.8621Z" fill="#EFEAD8"/>
<mask id="mask2_95_125" style="mask-type:luminance" maskUnits="userSpaceOnUse" x="74" y="12" width="14" height="16">
<path d="M74.3307 12.1746H87.6718V27.4506H74.3307V12.1746Z" fill="white"/>
</mask>
<g mask="url(#mask2_95_125)">
<path d="M87.6718 12.1746V27.4506L74.3307 19.8126L87.6718 12.1746ZM87.263 26.7449V12.8803L75.1536 19.8126L87.263 26.7449Z" fill="#EFEAD8"/>
</g>
<mask id="mask3_95_125" style="mask-type:luminance" maskUnits="userSpaceOnUse" x="84" y="6" width="4" height="4">
<path d="M84.6666 6H87.6718V10H84.6666V6Z" fill="white"/>
</mask>
<g mask="url(#mask3_95_125)">
<path d="M87.6588 9.68481L84.8229 8.05981L87.6588 6.43481V9.68481Z" fill="#EFEAD8"/>
</g>
<path d="M80.3281 1.28638L87.1198 5.177L80.3281 9.06763V1.28638Z" fill="#EFEAD8"/>
<mask id="mask4_95_125" style="mask-type:luminance" maskUnits="userSpaceOnUse" x="82" y="8" width="6" height="6">
<path d="M82.6666 8H87.6718V14H82.6666V8Z" fill="white"/>
</mask>
<g mask="url(#mask4_95_125)">
<path d="M83.0416 8.573L87.6588 11.2188L83.0416 13.8621V8.573Z" fill="#EFEAD8"/>
</g>
<path d="M73.2891 5.91138L79.7083 9.59106L73.2891 13.2708V5.91138Z" fill="#EFEAD8"/>
</svg>
