<svg width="85" height="24" viewBox="0 0 85 24" fill="none" xmlns="http://www.w3.org/2000/svg">
<path d="M10 20V14L14 14V20H19V12H22L12 3L2 12H5L5 20H10Z" fill="#ADC9C5"/>
<path d="M42.256 6.8H43.072V18H42.256V6.8ZM34.768 18H33.952V6.8H34.768V18ZM42.352 12.672H34.672V11.952H42.352V12.672ZM51.7353 18.08C50.9033 18.08 50.1299 17.9413 49.4153 17.664C48.7113 17.376 48.0926 16.976 47.5593 16.464C47.0366 15.9413 46.6313 15.3387 46.3433 14.656C46.0553 13.9627 45.9113 13.2107 45.9113 12.4C45.9113 11.5893 46.0553 10.8427 46.3433 10.16C46.6313 9.46667 47.0366 8.864 47.5593 8.352C48.0926 7.82933 48.7113 7.42933 49.4153 7.152C50.1299 6.864 50.9033 6.72 51.7353 6.72C52.5673 6.72 53.3353 6.864 54.0393 7.152C54.7539 7.42933 55.3726 7.824 55.8953 8.336C56.4179 8.848 56.8233 9.45067 57.1113 10.144C57.4099 10.8267 57.5593 11.5787 57.5593 12.4C57.5593 13.2213 57.4099 13.9787 57.1113 14.672C56.8233 15.3547 56.4179 15.952 55.8953 16.464C55.3726 16.976 54.7539 17.376 54.0393 17.664C53.3353 17.9413 52.5673 18.08 51.7353 18.08ZM51.7353 17.328C52.4499 17.328 53.1113 17.2053 53.7193 16.96C54.3273 16.7147 54.8553 16.368 55.3033 15.92C55.7513 15.472 56.0979 14.9493 56.3433 14.352C56.5993 13.7547 56.7273 13.104 56.7273 12.4C56.7273 11.6853 56.5993 11.0347 56.3433 10.448C56.0979 9.85067 55.7513 9.328 55.3033 8.88C54.8553 8.432 54.3273 8.08533 53.7193 7.84C53.1113 7.59467 52.4499 7.472 51.7353 7.472C51.0206 7.472 50.3593 7.59467 49.7513 7.84C49.1433 8.08533 48.6099 8.432 48.1513 8.88C47.7033 9.328 47.3513 9.85067 47.0953 10.448C46.8499 11.0347 46.7273 11.6853 46.7273 12.4C46.7273 13.104 46.8499 13.7547 47.0953 14.352C47.3513 14.9493 47.7033 15.472 48.1513 15.92C48.6099 16.368 49.1433 16.7147 49.7513 16.96C50.3593 17.2053 51.0206 17.328 51.7353 17.328ZM60.3895 18V6.8H61.0775L66.2775 15.776H65.9095L71.0935 6.8H71.7655L71.7815 18H70.9815L70.9655 8.032H71.1895L66.2775 16.512H65.8775L60.9495 8.032H61.1895V18H60.3895ZM76.4064 11.952H82.4704V12.672H76.4064V11.952ZM76.5024 17.264H83.4144V18H75.6864V6.8L83.1744 6.8V7.536L76.5024 7.536V17.264Z" fill="#ADC9C5"/>
</svg>
