<svg width="60" height="42" viewBox="0 0 60 42" fill="none" xmlns="http://www.w3.org/2000/svg">
<path opacity="0.9" d="M30 13C32.1733 13 34.0933 13.52 35.6533 14.2C37.0933 14.84 38 16.28 38 17.84V20H22V17.8533C22 16.28 22.9067 14.84 24.3467 14.2133C25.9067 13.52 27.8267 13 30 13ZM19.3333 13.3333C20.8 13.3333 22 12.1333 22 10.6667C22 9.2 20.8 8 19.3333 8C17.8667 8 16.6667 9.2 16.6667 10.6667C16.6667 12.1333 17.8667 13.3333 19.3333 13.3333ZM20.84 14.8C20.3467 14.72 19.8533 14.6667 19.3333 14.6667C18.0133 14.6667 16.76 14.9467 15.6267 15.44C15.1436 15.6465 14.7319 15.9904 14.4427 16.4289C14.1535 16.8675 13.9995 17.3813 14 17.9067V20H20V17.8533C20 16.7467 20.3067 15.7067 20.84 14.8ZM40.6667 13.3333C42.1333 13.3333 43.3333 12.1333 43.3333 10.6667C43.3333 9.2 42.1333 8 40.6667 8C39.2 8 38 9.2 38 10.6667C38 12.1333 39.2 13.3333 40.6667 13.3333ZM46 17.9067C46 16.8267 45.36 15.8667 44.3733 15.44C43.2042 14.9298 41.9423 14.6666 40.6667 14.6667C40.1467 14.6667 39.6533 14.72 39.16 14.8C39.6933 15.7067 40 16.7467 40 17.8533V20H46V17.9067ZM30 4C32.2133 4 34 5.78667 34 8C34 10.2133 32.2133 12 30 12C27.7867 12 26 10.2133 26 8C26 5.78667 27.7867 4 30 4Z" fill="#557B83"/>
<path d="M3.376 40.08C2.93867 40.08 2.536 40.008 2.168 39.864C1.8 39.72 1.48 39.52 1.208 39.264C0.936 39.0027 0.725333 38.6987 0.576 38.352C0.426667 38 0.352 37.616 0.352 37.2C0.352 36.784 0.426667 36.4027 0.576 36.056C0.725333 35.704 0.936 35.4 1.208 35.144C1.48 34.8827 1.8 34.68 2.168 34.536C2.536 34.392 2.936 34.32 3.368 34.32C3.80533 34.32 4.20533 34.392 4.568 34.536C4.936 34.68 5.256 34.88 5.528 35.136C5.8 35.392 6.01067 35.696 6.16 36.048C6.30933 36.4 6.384 36.784 6.384 37.2C6.384 37.616 6.30933 38 6.16 38.352C6.01067 38.704 5.8 39.008 5.528 39.264C5.256 39.52 4.936 39.72 4.568 39.864C4.20533 40.008 3.808 40.08 3.376 40.08ZM5.2 41.224C5.00267 41.224 4.81067 41.2 4.624 41.152C4.44267 41.1093 4.26133 41.0347 4.08 40.928C3.904 40.8267 3.72 40.6907 3.528 40.52C3.336 40.3547 3.12533 40.1493 2.896 39.904L4 39.616C4.14933 39.8133 4.29067 39.9707 4.424 40.088C4.56267 40.2107 4.696 40.2987 4.824 40.352C4.952 40.4053 5.08533 40.432 5.224 40.432C5.592 40.432 5.912 40.2827 6.184 39.984L6.664 40.56C6.29067 41.0027 5.80267 41.224 5.2 41.224ZM3.368 39.168C3.65067 39.168 3.912 39.12 4.152 39.024C4.392 38.928 4.6 38.792 4.776 38.616C4.952 38.4347 5.088 38.224 5.184 37.984C5.28533 37.744 5.336 37.4827 5.336 37.2C5.336 36.912 5.28533 36.6507 5.184 36.416C5.088 36.176 4.952 35.968 4.776 35.792C4.6 35.6107 4.392 35.472 4.152 35.376C3.912 35.28 3.65067 35.232 3.368 35.232C3.08533 35.232 2.824 35.28 2.584 35.376C2.344 35.472 2.136 35.6107 1.96 35.792C1.784 35.968 1.64533 36.176 1.544 36.416C1.448 36.6507 1.4 36.912 1.4 37.2C1.4 37.4827 1.448 37.744 1.544 37.984C1.64533 38.224 1.784 38.4347 1.96 38.616C2.136 38.792 2.344 38.928 2.584 39.024C2.824 39.12 3.08533 39.168 3.368 39.168ZM9.89438 40.08C9.12638 40.08 8.52371 39.864 8.08638 39.432C7.65438 39 7.43838 38.376 7.43838 37.56V34.4H8.47838V37.52C8.47838 38.096 8.60104 38.5147 8.84637 38.776C9.09704 39.0373 9.44904 39.168 9.90238 39.168C10.3557 39.168 10.705 39.0373 10.9504 38.776C11.1957 38.5147 11.3184 38.096 11.3184 37.52V34.4H12.3424V37.56C12.3424 38.376 12.1237 39 11.6864 39.432C11.2544 39.864 10.657 40.08 9.89438 40.08ZM14.7589 36.728H17.5429V37.584H14.7589V36.728ZM14.8389 39.128H17.9989V40H13.7989V34.4H17.8869V35.272H14.8389V39.128ZM19.1583 40V34.4H20.0143L22.4623 38.488H22.0143L24.4223 34.4H25.2783L25.2863 40H24.3023L24.2943 35.944H24.5023L22.4543 39.36H21.9903L19.9103 35.944H20.1503V40H19.1583ZM30.7458 40.08C30.3085 40.08 29.8898 40.0187 29.4898 39.896C29.0898 39.768 28.7725 39.6053 28.5378 39.408L28.8978 38.6C29.1218 38.776 29.3991 38.9227 29.7298 39.04C30.0605 39.1573 30.3991 39.216 30.7458 39.216C31.0391 39.216 31.2765 39.184 31.4578 39.12C31.6391 39.056 31.7725 38.9707 31.8578 38.864C31.9431 38.752 31.9858 38.6267 31.9858 38.488C31.9858 38.3173 31.9245 38.1813 31.8018 38.08C31.6791 37.9733 31.5191 37.8907 31.3218 37.832C31.1298 37.768 30.9138 37.7093 30.6738 37.656C30.4391 37.6027 30.2018 37.5413 29.9618 37.472C29.7271 37.3973 29.5111 37.304 29.3138 37.192C29.1218 37.0747 28.9645 36.92 28.8418 36.728C28.7191 36.536 28.6578 36.2907 28.6578 35.992C28.6578 35.688 28.7378 35.4107 28.8978 35.16C29.0631 34.904 29.3111 34.7013 29.6418 34.552C29.9778 34.3973 30.4018 34.32 30.9138 34.32C31.2498 34.32 31.5831 34.3627 31.9138 34.448C32.2445 34.5333 32.5325 34.656 32.7778 34.816L32.4498 35.624C32.1991 35.4747 31.9405 35.3653 31.6738 35.296C31.4071 35.2213 31.1511 35.184 30.9058 35.184C30.6178 35.184 30.3831 35.2187 30.2018 35.288C30.0258 35.3573 29.8951 35.448 29.8098 35.56C29.7298 35.672 29.6898 35.8 29.6898 35.944C29.6898 36.1147 29.7485 36.2533 29.8658 36.36C29.9885 36.4613 30.1458 36.5413 30.3378 36.6C30.5351 36.6587 30.7538 36.7173 30.9938 36.776C31.2338 36.8293 31.4711 36.8907 31.7058 36.96C31.9458 37.0293 32.1618 37.12 32.3538 37.232C32.5511 37.344 32.7085 37.496 32.8258 37.688C32.9485 37.88 33.0098 38.1227 33.0098 38.416C33.0098 38.7147 32.9271 38.992 32.7618 39.248C32.6018 39.4987 32.3538 39.7013 32.0178 39.856C31.6818 40.0053 31.2578 40.08 30.7458 40.08ZM36.6651 40.08C36.2277 40.08 35.8251 40.008 35.4571 39.864C35.0891 39.72 34.7691 39.52 34.4971 39.264C34.2251 39.0027 34.0144 38.6987 33.8651 38.352C33.7157 38 33.6411 37.616 33.6411 37.2C33.6411 36.784 33.7157 36.4027 33.8651 36.056C34.0144 35.704 34.2251 35.4 34.4971 35.144C34.7691 34.8827 35.0891 34.68 35.4571 34.536C35.8251 34.392 36.2251 34.32 36.6571 34.32C37.0944 34.32 37.4944 34.392 37.8571 34.536C38.2251 34.68 38.5451 34.8827 38.8171 35.144C39.0891 35.4 39.2997 35.704 39.4491 36.056C39.5984 36.4027 39.6731 36.784 39.6731 37.2C39.6731 37.616 39.5984 38 39.4491 38.352C39.2997 38.704 39.0891 39.008 38.8171 39.264C38.5451 39.52 38.2251 39.72 37.8571 39.864C37.4944 40.008 37.0971 40.08 36.6651 40.08ZM36.6571 39.168C36.9397 39.168 37.2011 39.12 37.4411 39.024C37.6811 38.928 37.8891 38.792 38.0651 38.616C38.2411 38.4347 38.3771 38.2267 38.4731 37.992C38.5744 37.752 38.6251 37.488 38.6251 37.2C38.6251 36.912 38.5744 36.6507 38.4731 36.416C38.3771 36.176 38.2411 35.968 38.0651 35.792C37.8891 35.6107 37.6811 35.472 37.4411 35.376C37.2011 35.28 36.9397 35.232 36.6571 35.232C36.3744 35.232 36.1131 35.28 35.8731 35.376C35.6384 35.472 35.4304 35.6107 35.2491 35.792C35.0731 35.968 34.9344 36.176 34.8331 36.416C34.7371 36.6507 34.6891 36.912 34.6891 37.2C34.6891 37.4827 34.7371 37.744 34.8331 37.984C34.9344 38.224 35.0731 38.4347 35.2491 38.616C35.4251 38.792 35.6331 38.928 35.8731 39.024C36.1131 39.12 36.3744 39.168 36.6571 39.168ZM40.7754 40V34.4H41.6314L44.0794 38.488H43.6314L46.0394 34.4H46.8954L46.9034 40H45.9194L45.9114 35.944H46.1194L44.0714 39.36H43.6074L41.5274 35.944H41.7674V40H40.7754ZM51.0401 40.08C50.6027 40.08 50.2001 40.008 49.8321 39.864C49.4641 39.72 49.1441 39.52 48.8721 39.264C48.6001 39.0027 48.3894 38.6987 48.2401 38.352C48.0907 38 48.0161 37.616 48.0161 37.2C48.0161 36.784 48.0907 36.4027 48.2401 36.056C48.3894 35.704 48.6001 35.4 48.8721 35.144C49.1441 34.8827 49.4641 34.68 49.8321 34.536C50.2001 34.392 50.6001 34.32 51.0321 34.32C51.4694 34.32 51.8694 34.392 52.2321 34.536C52.6001 34.68 52.9201 34.8827 53.1921 35.144C53.4641 35.4 53.6747 35.704 53.8241 36.056C53.9734 36.4027 54.0481 36.784 54.0481 37.2C54.0481 37.616 53.9734 38 53.8241 38.352C53.6747 38.704 53.4641 39.008 53.1921 39.264C52.9201 39.52 52.6001 39.72 52.2321 39.864C51.8694 40.008 51.4721 40.08 51.0401 40.08ZM51.0321 39.168C51.3147 39.168 51.5761 39.12 51.8161 39.024C52.0561 38.928 52.2641 38.792 52.4401 38.616C52.6161 38.4347 52.7521 38.2267 52.8481 37.992C52.9494 37.752 53.0001 37.488 53.0001 37.2C53.0001 36.912 52.9494 36.6507 52.8481 36.416C52.7521 36.176 52.6161 35.968 52.4401 35.792C52.2641 35.6107 52.0561 35.472 51.8161 35.376C51.5761 35.28 51.3147 35.232 51.0321 35.232C50.7494 35.232 50.4881 35.28 50.2481 35.376C50.0134 35.472 49.8054 35.6107 49.6241 35.792C49.4481 35.968 49.3094 36.176 49.2081 36.416C49.1121 36.6507 49.0641 36.912 49.0641 37.2C49.0641 37.4827 49.1121 37.744 49.2081 37.984C49.3094 38.224 49.4481 38.4347 49.6241 38.616C49.8001 38.792 50.0081 38.928 50.2481 39.024C50.4881 39.12 50.7494 39.168 51.0321 39.168ZM56.8864 40.08C56.4491 40.08 56.0304 40.0187 55.6304 39.896C55.2304 39.768 54.9131 39.6053 54.6784 39.408L55.0384 38.6C55.2624 38.776 55.5398 38.9227 55.8704 39.04C56.2011 39.1573 56.5398 39.216 56.8864 39.216C57.1798 39.216 57.4171 39.184 57.5984 39.12C57.7798 39.056 57.9131 38.9707 57.9984 38.864C58.0838 38.752 58.1264 38.6267 58.1264 38.488C58.1264 38.3173 58.0651 38.1813 57.9424 38.08C57.8198 37.9733 57.6598 37.8907 57.4624 37.832C57.2704 37.768 57.0544 37.7093 56.8144 37.656C56.5798 37.6027 56.3424 37.5413 56.1024 37.472C55.8678 37.3973 55.6518 37.304 55.4544 37.192C55.2624 37.0747 55.1051 36.92 54.9824 36.728C54.8598 36.536 54.7984 36.2907 54.7984 35.992C54.7984 35.688 54.8784 35.4107 55.0384 35.16C55.2038 34.904 55.4518 34.7013 55.7824 34.552C56.1184 34.3973 56.5424 34.32 57.0544 34.32C57.3904 34.32 57.7238 34.3627 58.0544 34.448C58.3851 34.5333 58.6731 34.656 58.9184 34.816L58.5904 35.624C58.3398 35.4747 58.0811 35.3653 57.8144 35.296C57.5478 35.2213 57.2918 35.184 57.0464 35.184C56.7584 35.184 56.5238 35.2187 56.3424 35.288C56.1664 35.3573 56.0358 35.448 55.9504 35.56C55.8704 35.672 55.8304 35.8 55.8304 35.944C55.8304 36.1147 55.8891 36.2533 56.0064 36.36C56.1291 36.4613 56.2864 36.5413 56.4784 36.6C56.6758 36.6587 56.8944 36.7173 57.1344 36.776C57.3744 36.8293 57.6118 36.8907 57.8464 36.96C58.0864 37.0293 58.3024 37.12 58.4944 37.232C58.6918 37.344 58.8491 37.496 58.9664 37.688C59.0891 37.88 59.1504 38.1227 59.1504 38.416C59.1504 38.7147 59.0678 38.992 58.9024 39.248C58.7424 39.4987 58.4944 39.7013 58.1584 39.856C57.8224 40.0053 57.3984 40.08 56.8864 40.08Z" fill="#557B83"/>
</svg>
