<svg width="60" height="31" viewBox="0 0 60 31" fill="none" xmlns="http://www.w3.org/2000/svg">
<path d="M30.1667 9C32.3401 9 34.2601 9.52 35.8201 10.2C37.2601 10.84 38.1667 12.28 38.1667 13.84V16H22.1667V13.8533C22.1667 12.28 23.0734 10.84 24.5134 10.2133C26.0734 9.52 27.9934 9 30.1667 9ZM19.5001 9.33333C20.9667 9.33333 22.1667 8.13333 22.1667 6.66667C22.1667 5.2 20.9667 4 19.5001 4C18.0334 4 16.8334 5.2 16.8334 6.66667C16.8334 8.13333 18.0334 9.33333 19.5001 9.33333ZM21.0067 10.8C20.5134 10.72 20.0201 10.6667 19.5001 10.6667C18.1801 10.6667 16.9267 10.9467 15.7934 11.44C15.3104 11.6465 14.8986 11.9904 14.6094 12.4289C14.3202 12.8675 14.1663 13.3813 14.1667 13.9067V16H20.1667V13.8533C20.1667 12.7467 20.4734 11.7067 21.0067 10.8ZM40.8334 9.33333C42.3001 9.33333 43.5001 8.13333 43.5001 6.66667C43.5001 5.2 42.3001 4 40.8334 4C39.3667 4 38.1667 5.2 38.1667 6.66667C38.1667 8.13333 39.3667 9.33333 40.8334 9.33333ZM46.1667 13.9067C46.1667 12.8267 45.5267 11.8667 44.5401 11.44C43.3709 10.9298 42.109 10.6666 40.8334 10.6667C40.3134 10.6667 39.8201 10.72 39.3267 10.8C39.8601 11.7067 40.1667 12.7467 40.1667 13.8533V16H46.1667V13.9067ZM30.1667 0C32.3801 0 34.1667 1.78667 34.1667 4C34.1667 6.21333 32.3801 8 30.1667 8C27.9534 8 26.1667 6.21333 26.1667 4C26.1667 1.78667 27.9534 0 30.1667 0Z" fill="#E5EFC1"/>
<path d="M4.01875 29.04C3.60275 29.04 3.21608 28.9707 2.85875 28.832C2.50675 28.688 2.19741 28.488 1.93075 28.232C1.66941 27.9707 1.46675 27.6693 1.32275 27.328C1.17875 26.9813 1.10675 26.6053 1.10675 26.2C1.10675 25.7947 1.17875 25.4213 1.32275 25.08C1.46675 24.7333 1.66941 24.432 1.93075 24.176C2.19741 23.9147 2.50675 23.7147 2.85875 23.576C3.21608 23.432 3.60275 23.36 4.01875 23.36C4.43475 23.36 4.81875 23.432 5.17075 23.576C5.52808 23.7147 5.83742 23.912 6.09875 24.168C6.36008 24.424 6.56275 24.7253 6.70675 25.072C6.85608 25.4133 6.93075 25.7893 6.93075 26.2C6.93075 26.6107 6.85608 26.9893 6.70675 27.336C6.56275 27.6773 6.36008 27.976 6.09875 28.232C5.83742 28.488 5.52808 28.688 5.17075 28.832C4.81875 28.9707 4.43475 29.04 4.01875 29.04ZM5.85875 30.064C5.69875 30.064 5.54141 30.0427 5.38675 30C5.23741 29.9573 5.08275 29.8907 4.92275 29.8C4.76808 29.7147 4.60808 29.6 4.44275 29.456C4.28275 29.3173 4.10941 29.1493 3.92275 28.952L4.38675 28.84C4.55741 29.0373 4.72541 29.2027 4.89075 29.336C5.06141 29.4693 5.22675 29.5653 5.38675 29.624C5.54675 29.688 5.70408 29.72 5.85875 29.72C6.29608 29.72 6.66408 29.5413 6.96275 29.184L7.17875 29.432C6.83742 29.8533 6.39742 30.064 5.85875 30.064ZM4.01875 28.664C4.37608 28.664 4.70675 28.6027 5.01075 28.48C5.31475 28.3573 5.57875 28.184 5.80275 27.96C6.02675 27.736 6.20008 27.4747 6.32275 27.176C6.45075 26.8773 6.51475 26.552 6.51475 26.2C6.51475 25.848 6.45075 25.5227 6.32275 25.224C6.20008 24.9253 6.02675 24.664 5.80275 24.44C5.57875 24.216 5.31475 24.0427 5.01075 23.92C4.70675 23.7973 4.37608 23.736 4.01875 23.736C3.66141 23.736 3.33075 23.7973 3.02675 23.92C2.72275 24.0427 2.45608 24.216 2.22675 24.44C2.00275 24.664 1.82675 24.9253 1.69875 25.224C1.57608 25.5227 1.51475 25.848 1.51475 26.2C1.51475 26.552 1.57608 26.8773 1.69875 27.176C1.82675 27.4747 2.00275 27.736 2.22675 27.96C2.45608 28.184 2.72275 28.3573 3.02675 28.48C3.33075 28.6027 3.66141 28.664 4.01875 28.664ZM10.5379 29.04C9.84454 29.04 9.29787 28.8373 8.89787 28.432C8.49787 28.0267 8.29787 27.424 8.29787 26.624V23.4H8.70587V26.608C8.70587 27.3067 8.86587 27.824 9.18587 28.16C9.50587 28.496 9.95921 28.664 10.5459 28.664C11.1272 28.664 11.5779 28.496 11.8979 28.16C12.2179 27.824 12.3779 27.3067 12.3779 26.608V23.4H12.7859V26.624C12.7859 27.424 12.5859 28.0267 12.1859 28.432C11.7859 28.8373 11.2365 29.04 10.5379 29.04ZM15.0496 25.976H18.0816V26.336H15.0496V25.976ZM15.0976 28.632H18.5536V29H14.6896V23.4H18.4336V23.768H15.0976V28.632ZM20.0412 29V23.4H20.3852L22.9852 27.888H22.8012L25.3932 23.4H25.7292L25.7372 29H25.3372L25.3292 24.016H25.4412L22.9852 28.256H22.7852L20.3212 24.016H20.4412V29H20.0412ZM31.2163 29.04C30.8003 29.04 30.4056 28.9707 30.0323 28.832C29.6643 28.688 29.379 28.504 29.1763 28.28L29.3603 27.976C29.5523 28.1733 29.8136 28.3413 30.1443 28.48C30.4803 28.6133 30.835 28.68 31.2083 28.68C31.5816 28.68 31.8856 28.632 32.1203 28.536C32.3603 28.4347 32.5363 28.3013 32.6483 28.136C32.7656 27.9707 32.8243 27.7867 32.8243 27.584C32.8243 27.344 32.7603 27.152 32.6323 27.008C32.5043 26.864 32.3363 26.7493 32.1283 26.664C31.9203 26.5787 31.6936 26.5067 31.4483 26.448C31.203 26.3893 30.955 26.328 30.7043 26.264C30.4536 26.1947 30.2243 26.1067 30.0163 26C29.8083 25.8933 29.6403 25.7493 29.5123 25.568C29.3896 25.3813 29.3283 25.1413 29.3283 24.848C29.3283 24.5813 29.3976 24.336 29.5363 24.112C29.675 23.888 29.891 23.7067 30.1843 23.568C30.4776 23.4293 30.8536 23.36 31.3123 23.36C31.6216 23.36 31.9256 23.4053 32.2243 23.496C32.5283 23.5867 32.787 23.7093 33.0003 23.864L32.8483 24.192C32.6136 24.032 32.3603 23.9147 32.0883 23.84C31.8216 23.76 31.563 23.72 31.3123 23.72C30.955 23.72 30.659 23.7707 30.4243 23.872C30.1896 23.9733 30.0163 24.1093 29.9043 24.28C29.7923 24.4453 29.7363 24.632 29.7363 24.84C29.7363 25.08 29.7976 25.272 29.9203 25.416C30.0483 25.56 30.2163 25.6747 30.4243 25.76C30.6323 25.8453 30.8616 25.9173 31.1123 25.976C31.363 26.0347 31.611 26.0987 31.8563 26.168C32.1016 26.232 32.3283 26.3173 32.5363 26.424C32.7443 26.5307 32.9123 26.6747 33.0403 26.856C33.1683 27.0373 33.2323 27.272 33.2323 27.56C33.2323 27.8213 33.1603 28.0667 33.0163 28.296C32.8723 28.52 32.651 28.7013 32.3523 28.84C32.059 28.9733 31.6803 29.04 31.2163 29.04ZM36.9953 29.04C36.5793 29.04 36.1926 28.9707 35.8353 28.832C35.4833 28.688 35.174 28.488 34.9073 28.232C34.646 27.9707 34.4433 27.6693 34.2993 27.328C34.1553 26.9813 34.0833 26.6053 34.0833 26.2C34.0833 25.7947 34.1553 25.4213 34.2993 25.08C34.4433 24.7333 34.646 24.432 34.9073 24.176C35.174 23.9147 35.4833 23.7147 35.8353 23.576C36.1926 23.432 36.5793 23.36 36.9953 23.36C37.4113 23.36 37.7953 23.432 38.1473 23.576C38.5046 23.7147 38.814 23.912 39.0753 24.168C39.3366 24.424 39.5393 24.7253 39.6833 25.072C39.8326 25.4133 39.9073 25.7893 39.9073 26.2C39.9073 26.6107 39.8326 26.9893 39.6833 27.336C39.5393 27.6773 39.3366 27.976 39.0753 28.232C38.814 28.488 38.5046 28.688 38.1473 28.832C37.7953 28.9707 37.4113 29.04 36.9953 29.04ZM36.9953 28.664C37.3526 28.664 37.6833 28.6027 37.9873 28.48C38.2913 28.3573 38.5553 28.184 38.7793 27.96C39.0033 27.736 39.1766 27.4747 39.2993 27.176C39.4273 26.8773 39.4913 26.552 39.4913 26.2C39.4913 25.8427 39.4273 25.5173 39.2993 25.224C39.1766 24.9253 39.0033 24.664 38.7793 24.44C38.5553 24.216 38.2913 24.0427 37.9873 23.92C37.6833 23.7973 37.3526 23.736 36.9953 23.736C36.638 23.736 36.3073 23.7973 36.0033 23.92C35.6993 24.0427 35.4326 24.216 35.2033 24.44C34.9793 24.664 34.8033 24.9253 34.6753 25.224C34.5526 25.5173 34.4913 25.8427 34.4913 26.2C34.4913 26.552 34.5526 26.8773 34.6753 27.176C34.8033 27.4747 34.9793 27.736 35.2033 27.96C35.4326 28.184 35.6993 28.3573 36.0033 28.48C36.3073 28.6027 36.638 28.664 36.9953 28.664ZM41.3224 29V23.4H41.6664L44.2664 27.888H44.0824L46.6744 23.4H47.0104L47.0184 29H46.6184L46.6104 24.016H46.7224L44.2664 28.256H44.0664L41.6024 24.016H41.7224V29H41.3224ZM51.3469 29.04C50.9309 29.04 50.5442 28.9707 50.1869 28.832C49.8349 28.688 49.5255 28.488 49.2589 28.232C48.9975 27.9707 48.7949 27.6693 48.6509 27.328C48.5069 26.9813 48.4349 26.6053 48.4349 26.2C48.4349 25.7947 48.5069 25.4213 48.6509 25.08C48.7949 24.7333 48.9975 24.432 49.2589 24.176C49.5255 23.9147 49.8349 23.7147 50.1869 23.576C50.5442 23.432 50.9309 23.36 51.3469 23.36C51.7629 23.36 52.1469 23.432 52.4989 23.576C52.8562 23.7147 53.1655 23.912 53.4269 24.168C53.6882 24.424 53.8909 24.7253 54.0349 25.072C54.1842 25.4133 54.2589 25.7893 54.2589 26.2C54.2589 26.6107 54.1842 26.9893 54.0349 27.336C53.8909 27.6773 53.6882 27.976 53.4269 28.232C53.1655 28.488 52.8562 28.688 52.4989 28.832C52.1469 28.9707 51.7629 29.04 51.3469 29.04ZM51.3469 28.664C51.7042 28.664 52.0349 28.6027 52.3389 28.48C52.6429 28.3573 52.9069 28.184 53.1309 27.96C53.3549 27.736 53.5282 27.4747 53.6509 27.176C53.7789 26.8773 53.8429 26.552 53.8429 26.2C53.8429 25.8427 53.7789 25.5173 53.6509 25.224C53.5282 24.9253 53.3549 24.664 53.1309 24.44C52.9069 24.216 52.6429 24.0427 52.3389 23.92C52.0349 23.7973 51.7042 23.736 51.3469 23.736C50.9895 23.736 50.6589 23.7973 50.3549 23.92C50.0509 24.0427 49.7842 24.216 49.5549 24.44C49.3309 24.664 49.1549 24.9253 49.0269 25.224C48.9042 25.5173 48.8429 25.8427 48.8429 26.2C48.8429 26.552 48.9042 26.8773 49.0269 27.176C49.1549 27.4747 49.3309 27.736 49.5549 27.96C49.7842 28.184 50.0509 28.3573 50.3549 28.48C50.6589 28.6027 50.9895 28.664 51.3469 28.664ZM57.146 29.04C56.73 29.04 56.3353 28.9707 55.962 28.832C55.594 28.688 55.3087 28.504 55.106 28.28L55.29 27.976C55.482 28.1733 55.7433 28.3413 56.074 28.48C56.41 28.6133 56.7647 28.68 57.138 28.68C57.5113 28.68 57.8153 28.632 58.05 28.536C58.29 28.4347 58.466 28.3013 58.578 28.136C58.6953 27.9707 58.754 27.7867 58.754 27.584C58.754 27.344 58.69 27.152 58.562 27.008C58.434 26.864 58.266 26.7493 58.058 26.664C57.85 26.5787 57.6233 26.5067 57.378 26.448C57.1327 26.3893 56.8847 26.328 56.634 26.264C56.3833 26.1947 56.154 26.1067 55.946 26C55.738 25.8933 55.57 25.7493 55.442 25.568C55.3193 25.3813 55.258 25.1413 55.258 24.848C55.258 24.5813 55.3273 24.336 55.466 24.112C55.6047 23.888 55.8207 23.7067 56.114 23.568C56.4073 23.4293 56.7833 23.36 57.242 23.36C57.5513 23.36 57.8553 23.4053 58.154 23.496C58.458 23.5867 58.7167 23.7093 58.93 23.864L58.778 24.192C58.5433 24.032 58.29 23.9147 58.018 23.84C57.7513 23.76 57.4927 23.72 57.242 23.72C56.8847 23.72 56.5887 23.7707 56.354 23.872C56.1193 23.9733 55.946 24.1093 55.834 24.28C55.722 24.4453 55.666 24.632 55.666 24.84C55.666 25.08 55.7273 25.272 55.85 25.416C55.978 25.56 56.146 25.6747 56.354 25.76C56.562 25.8453 56.7913 25.9173 57.042 25.976C57.2927 26.0347 57.5407 26.0987 57.786 26.168C58.0313 26.232 58.258 26.3173 58.466 26.424C58.674 26.5307 58.842 26.6747 58.97 26.856C59.098 27.0373 59.162 27.272 59.162 27.56C59.162 27.8213 59.09 28.0667 58.946 28.296C58.802 28.52 58.5807 28.7013 58.282 28.84C57.9887 28.9733 57.61 29.04 57.146 29.04Z" fill="#E5EFC1"/>
</svg>
