<svg width="48" height="42" viewBox="0 0 48 42" fill="none" xmlns="http://www.w3.org/2000/svg">
<path d="M18 17C18 15 22 13.9 24 13.9C26 13.9 30 15 30 17V18H18M27 9C27 9.79565 26.6839 10.5587 26.1213 11.1213C25.5587 11.6839 24.7956 12 24 12C23.2044 12 22.4413 11.6839 21.8787 11.1213C21.3161 10.5587 21 9.79565 21 9C21 8.20435 21.3161 7.44129 21.8787 6.87868C22.4413 6.31607 23.2044 6 24 6C24.7956 6 25.5587 6.31607 26.1213 6.87868C26.6839 7.44129 27 8.20435 27 9ZM15 5V19C15 19.5304 15.2107 20.0391 15.5858 20.4142C15.9609 20.7893 16.4696 21 17 21H31C31.5304 21 32.0391 20.7893 32.4142 20.4142C32.7893 20.0391 33 19.5304 33 19V5C33 4.46957 32.7893 3.96086 32.4142 3.58579C32.0391 3.21071 31.5304 3 31 3H17C16.4696 3 15.9609 3.21071 15.5858 3.58579C15.2107 3.96086 15 4.46957 15 5Z" fill="#557B83"/>
<path d="M6.844 40.08C6.41733 40.08 6.02 40.0107 5.652 39.872C5.28933 39.728 4.972 39.528 4.7 39.272C4.43333 39.0107 4.22533 38.704 4.076 38.352C3.92667 38 3.852 37.616 3.852 37.2C3.852 36.784 3.92667 36.4 4.076 36.048C4.22533 35.696 4.436 35.392 4.708 35.136C4.98 34.8747 5.29733 34.6747 5.66 34.536C6.02267 34.392 6.42 34.32 6.852 34.32C7.31067 34.32 7.72933 34.4 8.108 34.56C8.48667 34.7147 8.80667 34.9467 9.068 35.256L8.396 35.888C8.19333 35.6693 7.96667 35.5067 7.716 35.4C7.46533 35.288 7.19333 35.232 6.9 35.232C6.60667 35.232 6.33733 35.28 6.092 35.376C5.852 35.472 5.64133 35.608 5.46 35.784C5.284 35.96 5.14533 36.168 5.044 36.408C4.948 36.648 4.9 36.912 4.9 37.2C4.9 37.488 4.948 37.752 5.044 37.992C5.14533 38.232 5.284 38.44 5.46 38.616C5.64133 38.792 5.852 38.928 6.092 39.024C6.33733 39.12 6.60667 39.168 6.9 39.168C7.19333 39.168 7.46533 39.1147 7.716 39.008C7.96667 38.896 8.19333 38.728 8.396 38.504L9.068 39.144C8.80667 39.448 8.48667 39.68 8.108 39.84C7.72933 40 7.308 40.08 6.844 40.08ZM12.5713 40.08C12.134 40.08 11.7313 40.008 11.3633 39.864C10.9953 39.72 10.6753 39.52 10.4033 39.264C10.1313 39.0027 9.92065 38.6987 9.77131 38.352C9.62198 38 9.54731 37.616 9.54731 37.2C9.54731 36.784 9.62198 36.4027 9.77131 36.056C9.92065 35.704 10.1313 35.4 10.4033 35.144C10.6753 34.8827 10.9953 34.68 11.3633 34.536C11.7313 34.392 12.1313 34.32 12.5633 34.32C13.0006 34.32 13.4006 34.392 13.7633 34.536C14.1313 34.68 14.4513 34.8827 14.7233 35.144C14.9953 35.4 15.206 35.704 15.3553 36.056C15.5046 36.4027 15.5793 36.784 15.5793 37.2C15.5793 37.616 15.5046 38 15.3553 38.352C15.206 38.704 14.9953 39.008 14.7233 39.264C14.4513 39.52 14.1313 39.72 13.7633 39.864C13.4006 40.008 13.0033 40.08 12.5713 40.08ZM12.5633 39.168C12.846 39.168 13.1073 39.12 13.3473 39.024C13.5873 38.928 13.7953 38.792 13.9713 38.616C14.1473 38.4347 14.2833 38.2267 14.3793 37.992C14.4806 37.752 14.5313 37.488 14.5313 37.2C14.5313 36.912 14.4806 36.6507 14.3793 36.416C14.2833 36.176 14.1473 35.968 13.9713 35.792C13.7953 35.6107 13.5873 35.472 13.3473 35.376C13.1073 35.28 12.846 35.232 12.5633 35.232C12.2806 35.232 12.0193 35.28 11.7793 35.376C11.5446 35.472 11.3366 35.6107 11.1553 35.792C10.9793 35.968 10.8406 36.176 10.7393 36.416C10.6433 36.6507 10.5953 36.912 10.5953 37.2C10.5953 37.4827 10.6433 37.744 10.7393 37.984C10.8406 38.224 10.9793 38.4347 11.1553 38.616C11.3313 38.792 11.5393 38.928 11.7793 39.024C12.0193 39.12 12.2806 39.168 12.5633 39.168ZM16.6817 40V34.4H17.5377L21.0497 38.712H20.6257V34.4H21.6577V40H20.8017L17.2897 35.688H17.7137V40H16.6817ZM24.2943 40V35.28H22.4383V34.4H27.1903V35.28H25.3343V40H24.2943ZM26.8975 40L29.4175 34.4H30.4415L32.9695 40H31.8815L29.7135 34.952H30.1295L27.9695 40H26.8975ZM28.0575 38.704L28.3375 37.888H31.3615L31.6415 38.704H28.0575ZM34.5364 40V35.28H32.6804V34.4H37.4324V35.28H35.5764V40H34.5364ZM40.7588 40.08C40.3215 40.08 39.9188 40.008 39.5508 39.864C39.1828 39.72 38.8628 39.52 38.5908 39.264C38.3188 39.0027 38.1081 38.6987 37.9588 38.352C37.8095 38 37.7348 37.616 37.7348 37.2C37.7348 36.784 37.8095 36.4027 37.9588 36.056C38.1081 35.704 38.3188 35.4 38.5908 35.144C38.8628 34.8827 39.1828 34.68 39.5508 34.536C39.9188 34.392 40.3188 34.32 40.7508 34.32C41.1881 34.32 41.5881 34.392 41.9508 34.536C42.3188 34.68 42.6388 34.8827 42.9108 35.144C43.1828 35.4 43.3935 35.704 43.5428 36.056C43.6921 36.4027 43.7668 36.784 43.7668 37.2C43.7668 37.616 43.6921 38 43.5428 38.352C43.3935 38.704 43.1828 39.008 42.9108 39.264C42.6388 39.52 42.3188 39.72 41.9508 39.864C41.5881 40.008 41.1908 40.08 40.7588 40.08ZM40.7508 39.168C41.0335 39.168 41.2948 39.12 41.5348 39.024C41.7748 38.928 41.9828 38.792 42.1588 38.616C42.3348 38.4347 42.4708 38.2267 42.5668 37.992C42.6681 37.752 42.7188 37.488 42.7188 37.2C42.7188 36.912 42.6681 36.6507 42.5668 36.416C42.4708 36.176 42.3348 35.968 42.1588 35.792C41.9828 35.6107 41.7748 35.472 41.5348 35.376C41.2948 35.28 41.0335 35.232 40.7508 35.232C40.4681 35.232 40.2068 35.28 39.9668 35.376C39.7321 35.472 39.5241 35.6107 39.3428 35.792C39.1668 35.968 39.0281 36.176 38.9268 36.416C38.8308 36.6507 38.7828 36.912 38.7828 37.2C38.7828 37.4827 38.8308 37.744 38.9268 37.984C39.0281 38.224 39.1668 38.4347 39.3428 38.616C39.5188 38.792 39.7268 38.928 39.9668 39.024C40.2068 39.12 40.4681 39.168 40.7508 39.168Z" fill="#557B83"/>
</svg>
