<svg width="28" height="42" viewBox="0 0 28 42" fill="none" xmlns="http://www.w3.org/2000/svg">
<path d="M12 20V14H16V20H21V12H24L14 3L4 12H7V20H12Z" fill="#557B83"/>
<path d="M5.188 34.4H6.228V40H5.188V34.4ZM2.292 40H1.252V34.4H2.292V40ZM5.268 37.6H2.204V36.712H5.268V37.6ZM10.3526 40.08C9.91523 40.08 9.51256 40.008 9.14456 39.864C8.77656 39.72 8.45656 39.52 8.18456 39.264C7.91256 39.0027 7.7019 38.6987 7.55256 38.352C7.40323 38 7.32856 37.616 7.32856 37.2C7.32856 36.784 7.40323 36.4027 7.55256 36.056C7.7019 35.704 7.91256 35.4 8.18456 35.144C8.45656 34.8827 8.77656 34.68 9.14456 34.536C9.51256 34.392 9.91256 34.32 10.3446 34.32C10.7819 34.32 11.1819 34.392 11.5446 34.536C11.9126 34.68 12.2326 34.8827 12.5046 35.144C12.7766 35.4 12.9872 35.704 13.1366 36.056C13.2859 36.4027 13.3606 36.784 13.3606 37.2C13.3606 37.616 13.2859 38 13.1366 38.352C12.9872 38.704 12.7766 39.008 12.5046 39.264C12.2326 39.52 11.9126 39.72 11.5446 39.864C11.1819 40.008 10.7846 40.08 10.3526 40.08ZM10.3446 39.168C10.6272 39.168 10.8886 39.12 11.1286 39.024C11.3686 38.928 11.5766 38.792 11.7526 38.616C11.9286 38.4347 12.0646 38.2267 12.1606 37.992C12.2619 37.752 12.3126 37.488 12.3126 37.2C12.3126 36.912 12.2619 36.6507 12.1606 36.416C12.0646 36.176 11.9286 35.968 11.7526 35.792C11.5766 35.6107 11.3686 35.472 11.1286 35.376C10.8886 35.28 10.6272 35.232 10.3446 35.232C10.0619 35.232 9.80056 35.28 9.56056 35.376C9.3259 35.472 9.1179 35.6107 8.93656 35.792C8.76056 35.968 8.6219 36.176 8.52056 36.416C8.42456 36.6507 8.37656 36.912 8.37656 37.2C8.37656 37.4827 8.42456 37.744 8.52056 37.984C8.6219 38.224 8.76056 38.4347 8.93656 38.616C9.11256 38.792 9.32056 38.928 9.56056 39.024C9.80056 39.12 10.0619 39.168 10.3446 39.168ZM14.4629 40V34.4H15.3189L17.7669 38.488H17.3189L19.7269 34.4H20.5829L20.5909 40H19.6069L19.5989 35.944H19.8069L17.7589 39.36H17.2949L15.2149 35.944H15.4549V40H14.4629ZM23.0636 36.728H25.8476V37.584H23.0636V36.728ZM23.1436 39.128H26.3036V40H22.1036V34.4H26.1916V35.272H23.1436V39.128Z" fill="#557B83"/>
</svg>
