<svg width="42" height="34" viewBox="0 0 42 34" fill="none" xmlns="http://www.w3.org/2000/svg">
<path d="M13.8333 11L15.3333 6.5H26.3333L27.8333 11M26.3333 16C25.9354 16 25.5539 15.842 25.2726 15.5607C24.9913 15.2794 24.8333 14.8978 24.8333 14.5C24.8333 14.1022 24.9913 13.7206 25.2726 13.4393C25.5539 13.158 25.9354 13 26.3333 13C26.7311 13 27.1126 13.158 27.3939 13.4393C27.6752 13.7206 27.8333 14.1022 27.8333 14.5C27.8333 14.8978 27.6752 15.2794 27.3939 15.5607C27.1126 15.842 26.7311 16 26.3333 16ZM15.3333 16C14.9354 16 14.5539 15.842 14.2726 15.5607C13.9913 15.2794 13.8333 14.8978 13.8333 14.5C13.8333 14.1022 13.9913 13.7206 14.2726 13.4393C14.5539 13.158 14.9354 13 15.3333 13C15.7311 13 16.1126 13.158 16.3939 13.4393C16.6752 13.7206 16.8333 14.1022 16.8333 14.5C16.8333 14.8978 16.6752 15.2794 16.3939 15.5607C16.1126 15.842 15.7311 16 15.3333 16ZM27.7533 6C27.5533 5.42 26.9933 5 26.3333 5H15.3333C14.6733 5 14.1133 5.42 13.9133 6L11.8333 12V20C11.8333 20.2652 11.9386 20.5196 12.1261 20.7071C12.3137 20.8946 12.568 21 12.8333 21H13.8333C14.0985 21 14.3528 20.8946 14.5404 20.7071C14.7279 20.5196 14.8333 20.2652 14.8333 20V19H26.8333V20C26.8333 20.2652 26.9386 20.5196 27.1261 20.7071C27.3137 20.8946 27.568 21 27.8333 21H28.8333C29.0985 21 29.3528 20.8946 29.5404 20.7071C29.7279 20.5196 29.8333 20.2652 29.8333 20V12L27.7533 6Z" fill="#E5EFC1"/>
<path d="M2.78125 32.04C2.36525 32.04 1.97059 31.9707 1.59725 31.832C1.22925 31.688 0.943919 31.504 0.741252 31.28L0.925252 30.976C1.11725 31.1733 1.37859 31.3413 1.70925 31.48C2.04525 31.6133 2.39992 31.68 2.77325 31.68C3.14659 31.68 3.45059 31.632 3.68525 31.536C3.92525 31.4347 4.10125 31.3013 4.21325 31.136C4.33059 30.9707 4.38925 30.7867 4.38925 30.584C4.38925 30.344 4.32525 30.152 4.19725 30.008C4.06925 29.864 3.90125 29.7493 3.69325 29.664C3.48525 29.5787 3.25859 29.5067 3.01325 29.448C2.76792 29.3893 2.51992 29.328 2.26925 29.264C2.01859 29.1947 1.78925 29.1067 1.58125 29C1.37325 28.8933 1.20525 28.7493 1.07725 28.568C0.954585 28.3813 0.893252 28.1413 0.893252 27.848C0.893252 27.5813 0.962585 27.336 1.10125 27.112C1.23992 26.888 1.45592 26.7067 1.74925 26.568C2.04259 26.4293 2.41859 26.36 2.87725 26.36C3.18659 26.36 3.49059 26.4053 3.78925 26.496C4.09325 26.5867 4.35192 26.7093 4.56525 26.864L4.41325 27.192C4.17859 27.032 3.92525 26.9147 3.65325 26.84C3.38659 26.76 3.12792 26.72 2.87725 26.72C2.51992 26.72 2.22392 26.7707 1.98925 26.872C1.75459 26.9733 1.58125 27.1093 1.46925 27.28C1.35725 27.4453 1.30125 27.632 1.30125 27.84C1.30125 28.08 1.36259 28.272 1.48525 28.416C1.61325 28.56 1.78125 28.6747 1.98925 28.76C2.19725 28.8453 2.42659 28.9173 2.67725 28.976C2.92792 29.0347 3.17592 29.0987 3.42125 29.168C3.66659 29.232 3.89325 29.3173 4.10125 29.424C4.30925 29.5307 4.47725 29.6747 4.60525 29.856C4.73325 30.0373 4.79725 30.272 4.79725 30.56C4.79725 30.8213 4.72525 31.0667 4.58125 31.296C4.43725 31.52 4.21592 31.7013 3.91725 31.84C3.62392 31.9733 3.24525 32.04 2.78125 32.04ZM6.54425 28.976H9.57625V29.336H6.54425V28.976ZM6.59225 31.632H10.0483V32H6.18425V26.4H9.92825V26.768H6.59225V31.632ZM11.5358 32V26.4H13.5438C14.0131 26.4 14.4158 26.4747 14.7518 26.624C15.0878 26.7733 15.3465 26.9893 15.5278 27.272C15.7091 27.5493 15.7998 27.888 15.7998 28.288C15.7998 28.6773 15.7091 29.0133 15.5278 29.296C15.3465 29.5733 15.0878 29.7893 14.7518 29.944C14.4158 30.0933 14.0131 30.168 13.5438 30.168H11.7598L11.9438 29.976V32H11.5358ZM15.4238 32L13.9678 29.968H14.4318L15.8878 32H15.4238ZM11.9438 30L11.7598 29.808H13.5438C14.1465 29.808 14.6025 29.6747 14.9118 29.408C15.2265 29.1413 15.3838 28.768 15.3838 28.288C15.3838 27.8027 15.2265 27.4293 14.9118 27.168C14.6025 26.9013 14.1465 26.768 13.5438 26.768H11.7598L11.9438 26.568V30ZM18.8616 32L16.3656 26.4H16.8136L19.1976 31.752H18.9496L21.3416 26.4H21.7656L19.2696 32H18.8616ZM22.6686 32V26.4H23.0766V32H22.6686ZM27.396 32.04C26.98 32.04 26.5933 31.9707 26.236 31.832C25.884 31.688 25.5773 31.488 25.316 31.232C25.0547 30.976 24.852 30.6773 24.708 30.336C24.564 29.9893 24.492 29.6107 24.492 29.2C24.492 28.7893 24.564 28.4133 24.708 28.072C24.852 27.7253 25.0547 27.424 25.316 27.168C25.5827 26.912 25.892 26.7147 26.244 26.576C26.596 26.432 26.98 26.36 27.396 26.36C27.7907 26.36 28.1587 26.424 28.5 26.552C28.8467 26.68 29.1427 26.8747 29.388 27.136L29.132 27.4C28.892 27.1653 28.6253 26.9973 28.332 26.896C28.044 26.7893 27.7373 26.736 27.412 26.736C27.0547 26.736 26.7213 26.7973 26.412 26.92C26.108 27.0427 25.8413 27.216 25.612 27.44C25.388 27.664 25.212 27.9253 25.084 28.224C24.9613 28.5227 24.9 28.848 24.9 29.2C24.9 29.552 24.9613 29.8773 25.084 30.176C25.212 30.4747 25.388 30.736 25.612 30.96C25.8413 31.184 26.108 31.3573 26.412 31.48C26.7213 31.6027 27.0547 31.664 27.412 31.664C27.7373 31.664 28.044 31.6133 28.332 31.512C28.6253 31.4053 28.892 31.232 29.132 30.992L29.388 31.256C29.1427 31.5173 28.8467 31.7147 28.5 31.848C28.1587 31.976 27.7907 32.04 27.396 32.04ZM27.14 33.736C27.0173 33.736 26.9027 33.72 26.796 33.688C26.6947 33.656 26.5987 33.6053 26.508 33.536L26.62 33.312C26.6947 33.3653 26.7747 33.4053 26.86 33.432C26.9507 33.464 27.044 33.48 27.14 33.48C27.3 33.48 27.428 33.4427 27.524 33.368C27.62 33.2933 27.668 33.1893 27.668 33.056C27.668 32.9387 27.6227 32.84 27.532 32.76C27.4413 32.6853 27.3107 32.648 27.14 32.648H26.98L27.164 31.952H27.428L27.3 32.432C27.5133 32.4427 27.6787 32.5067 27.796 32.624C27.9187 32.7413 27.98 32.8907 27.98 33.072C27.98 33.2747 27.9 33.4347 27.74 33.552C27.5853 33.6747 27.3853 33.736 27.14 33.736ZM33.0134 32.04C32.5974 32.04 32.2107 31.9707 31.8534 31.832C31.5014 31.688 31.192 31.488 30.9254 31.232C30.664 30.9707 30.4614 30.6693 30.3174 30.328C30.1734 29.9813 30.1014 29.6053 30.1014 29.2C30.1014 28.7947 30.1734 28.4213 30.3174 28.08C30.4614 27.7333 30.664 27.432 30.9254 27.176C31.192 26.9147 31.5014 26.7147 31.8534 26.576C32.2107 26.432 32.5974 26.36 33.0134 26.36C33.4294 26.36 33.8134 26.432 34.1654 26.576C34.5227 26.7147 34.832 26.912 35.0934 27.168C35.3547 27.424 35.5574 27.7253 35.7014 28.072C35.8507 28.4133 35.9254 28.7893 35.9254 29.2C35.9254 29.6107 35.8507 29.9893 35.7014 30.336C35.5574 30.6773 35.3547 30.976 35.0934 31.232C34.832 31.488 34.5227 31.688 34.1654 31.832C33.8134 31.9707 33.4294 32.04 33.0134 32.04ZM33.0134 31.664C33.3707 31.664 33.7014 31.6027 34.0054 31.48C34.3094 31.3573 34.5734 31.184 34.7974 30.96C35.0214 30.736 35.1947 30.4747 35.3174 30.176C35.4454 29.8773 35.5094 29.552 35.5094 29.2C35.5094 28.8427 35.4454 28.5173 35.3174 28.224C35.1947 27.9253 35.0214 27.664 34.7974 27.44C34.5734 27.216 34.3094 27.0427 34.0054 26.92C33.7014 26.7973 33.3707 26.736 33.0134 26.736C32.656 26.736 32.3254 26.7973 32.0214 26.92C31.7174 27.0427 31.4507 27.216 31.2214 27.44C30.9974 27.664 30.8214 27.9253 30.6934 28.224C30.5707 28.5173 30.5094 28.8427 30.5094 29.2C30.5094 29.552 30.5707 29.8773 30.6934 30.176C30.8214 30.4747 30.9974 30.736 31.2214 30.96C31.4507 31.184 31.7174 31.3573 32.0214 31.48C32.3254 31.6027 32.656 31.664 33.0134 31.664ZM38.8125 32.04C38.3965 32.04 38.0018 31.9707 37.6285 31.832C37.2605 31.688 36.9752 31.504 36.7725 31.28L36.9565 30.976C37.1485 31.1733 37.4098 31.3413 37.7405 31.48C38.0765 31.6133 38.4312 31.68 38.8045 31.68C39.1778 31.68 39.4818 31.632 39.7165 31.536C39.9565 31.4347 40.1325 31.3013 40.2445 31.136C40.3618 30.9707 40.4205 30.7867 40.4205 30.584C40.4205 30.344 40.3565 30.152 40.2285 30.008C40.1005 29.864 39.9325 29.7493 39.7245 29.664C39.5165 29.5787 39.2898 29.5067 39.0445 29.448C38.7992 29.3893 38.5512 29.328 38.3005 29.264C38.0498 29.1947 37.8205 29.1067 37.6125 29C37.4045 28.8933 37.2365 28.7493 37.1085 28.568C36.9858 28.3813 36.9245 28.1413 36.9245 27.848C36.9245 27.5813 36.9938 27.336 37.1325 27.112C37.2712 26.888 37.4872 26.7067 37.7805 26.568C38.0738 26.4293 38.4498 26.36 38.9085 26.36C39.2178 26.36 39.5218 26.4053 39.8205 26.496C40.1245 26.5867 40.3832 26.7093 40.5965 26.864L40.4445 27.192C40.2098 27.032 39.9565 26.9147 39.6845 26.84C39.4178 26.76 39.1592 26.72 38.9085 26.72C38.5512 26.72 38.2552 26.7707 38.0205 26.872C37.7858 26.9733 37.6125 27.1093 37.5005 27.28C37.3885 27.4453 37.3325 27.632 37.3325 27.84C37.3325 28.08 37.3938 28.272 37.5165 28.416C37.6445 28.56 37.8125 28.6747 38.0205 28.76C38.2285 28.8453 38.4578 28.9173 38.7085 28.976C38.9592 29.0347 39.2072 29.0987 39.4525 29.168C39.6978 29.232 39.9245 29.3173 40.1325 29.424C40.3405 29.5307 40.5085 29.6747 40.6365 29.856C40.7645 30.0373 40.8285 30.272 40.8285 30.56C40.8285 30.8213 40.7565 31.0667 40.6125 31.296C40.4685 31.52 40.2472 31.7013 39.9485 31.84C39.6552 31.9733 39.2765 32.04 38.8125 32.04Z" fill="#E5EFC1"/>
</svg>
