<svg width="42" height="42" viewBox="0 0 42 42" fill="none" xmlns="http://www.w3.org/2000/svg">
<path d="M14 11L15.5 6.5H26.5L28 11M26.5 16C26.1022 16 25.7206 15.842 25.4393 15.5607C25.158 15.2794 25 14.8978 25 14.5C25 14.1022 25.158 13.7206 25.4393 13.4393C25.7206 13.158 26.1022 13 26.5 13C26.8978 13 27.2794 13.158 27.5607 13.4393C27.842 13.7206 28 14.1022 28 14.5C28 14.8978 27.842 15.2794 27.5607 15.5607C27.2794 15.842 26.8978 16 26.5 16ZM15.5 16C15.1022 16 14.7206 15.842 14.4393 15.5607C14.158 15.2794 14 14.8978 14 14.5C14 14.1022 14.158 13.7206 14.4393 13.4393C14.7206 13.158 15.1022 13 15.5 13C15.8978 13 16.2794 13.158 16.5607 13.4393C16.842 13.7206 17 14.1022 17 14.5C17 14.8978 16.842 15.2794 16.5607 15.5607C16.2794 15.842 15.8978 16 15.5 16ZM27.92 6C27.72 5.42 27.16 5 26.5 5H15.5C14.84 5 14.28 5.42 14.08 6L12 12V20C12 20.2652 12.1054 20.5196 12.2929 20.7071C12.4804 20.8946 12.7348 21 13 21H14C14.2652 21 14.5196 20.8946 14.7071 20.7071C14.8946 20.5196 15 20.2652 15 20V19H27V20C27 20.2652 27.1054 20.5196 27.2929 20.7071C27.4804 20.8946 27.7348 21 28 21H29C29.2652 21 29.5196 20.8946 29.7071 20.7071C29.8946 20.5196 30 20.2652 30 20V12L27.92 6Z" fill="#557B83"/>
<path d="M2.488 40.08C2.05067 40.08 1.632 40.0187 1.232 39.896C0.832 39.768 0.514667 39.6053 0.28 39.408L0.64 38.6C0.864 38.776 1.14133 38.9227 1.472 39.04C1.80267 39.1573 2.14133 39.216 2.488 39.216C2.78133 39.216 3.01867 39.184 3.2 39.12C3.38133 39.056 3.51467 38.9707 3.6 38.864C3.68533 38.752 3.728 38.6267 3.728 38.488C3.728 38.3173 3.66667 38.1813 3.544 38.08C3.42133 37.9733 3.26133 37.8907 3.064 37.832C2.872 37.768 2.656 37.7093 2.416 37.656C2.18133 37.6027 1.944 37.5413 1.704 37.472C1.46933 37.3973 1.25333 37.304 1.056 37.192C0.864 37.0747 0.706667 36.92 0.584 36.728C0.461333 36.536 0.4 36.2907 0.4 35.992C0.4 35.688 0.48 35.4107 0.64 35.16C0.805333 34.904 1.05333 34.7013 1.384 34.552C1.72 34.3973 2.144 34.32 2.656 34.32C2.992 34.32 3.32533 34.3627 3.656 34.448C3.98667 34.5333 4.27467 34.656 4.52 34.816L4.192 35.624C3.94133 35.4747 3.68267 35.3653 3.416 35.296C3.14933 35.2213 2.89333 35.184 2.648 35.184C2.36 35.184 2.12533 35.2187 1.944 35.288C1.768 35.3573 1.63733 35.448 1.552 35.56C1.472 35.672 1.432 35.8 1.432 35.944C1.432 36.1147 1.49067 36.2533 1.608 36.36C1.73067 36.4613 1.888 36.5413 2.08 36.6C2.27733 36.6587 2.496 36.7173 2.736 36.776C2.976 36.8293 3.21333 36.8907 3.448 36.96C3.688 37.0293 3.904 37.12 4.096 37.232C4.29333 37.344 4.45067 37.496 4.568 37.688C4.69067 37.88 4.752 38.1227 4.752 38.416C4.752 38.7147 4.66933 38.992 4.504 39.248C4.344 39.4987 4.096 39.7013 3.76 39.856C3.424 40.0053 3 40.08 2.488 40.08ZM6.74325 36.728H9.52725V37.584H6.74325V36.728ZM6.82325 39.128H9.98325V40H5.78325V34.4H9.87125V35.272H6.82325V39.128ZM11.1426 40V34.4H13.4466C13.9426 34.4 14.3666 34.48 14.7186 34.64C15.076 34.8 15.3506 35.0293 15.5426 35.328C15.7346 35.6267 15.8306 35.9813 15.8306 36.392C15.8306 36.8027 15.7346 37.1573 15.5426 37.456C15.3506 37.7493 15.076 37.976 14.7186 38.136C14.3666 38.2907 13.9426 38.368 13.4466 38.368H11.7186L12.1826 37.896V40H11.1426ZM14.8066 40L13.3906 37.968H14.5026L15.9266 40H14.8066ZM12.1826 38.008L11.7186 37.512H13.3986C13.8573 37.512 14.2013 37.4133 14.4306 37.216C14.6653 37.0187 14.7826 36.744 14.7826 36.392C14.7826 36.0347 14.6653 35.76 14.4306 35.568C14.2013 35.376 13.8573 35.28 13.3986 35.28H11.7186L12.1826 34.768V38.008ZM18.6502 40L16.2022 34.4H17.3302L19.5142 39.464H18.8662L21.0742 34.4H22.1142L19.6742 40H18.6502ZM22.7051 40V34.4H23.7451V40H22.7051ZM27.8518 40.08C27.4251 40.08 27.0278 40.0107 26.6598 39.872C26.2971 39.728 25.9798 39.528 25.7078 39.272C25.4411 39.0107 25.2331 38.704 25.0838 38.352C24.9345 38 24.8598 37.616 24.8598 37.2C24.8598 36.784 24.9345 36.4 25.0838 36.048C25.2331 35.696 25.4438 35.392 25.7158 35.136C25.9878 34.8747 26.3051 34.6747 26.6678 34.536C27.0305 34.392 27.4278 34.32 27.8598 34.32C28.3185 34.32 28.7371 34.4 29.1158 34.56C29.4945 34.7147 29.8145 34.9467 30.0758 35.256L29.4038 35.888C29.2011 35.6693 28.9745 35.5067 28.7238 35.4C28.4731 35.288 28.2011 35.232 27.9078 35.232C27.6145 35.232 27.3451 35.28 27.0998 35.376C26.8598 35.472 26.6491 35.608 26.4678 35.784C26.2918 35.96 26.1531 36.168 26.0518 36.408C25.9558 36.648 25.9078 36.912 25.9078 37.2C25.9078 37.488 25.9558 37.752 26.0518 37.992C26.1531 38.232 26.2918 38.44 26.4678 38.616C26.6491 38.792 26.8598 38.928 27.0998 39.024C27.3451 39.12 27.6145 39.168 27.9078 39.168C28.2011 39.168 28.4731 39.1147 28.7238 39.008C28.9745 38.896 29.2011 38.728 29.4038 38.504L30.0758 39.144C29.8145 39.448 29.4945 39.68 29.1158 39.84C28.7371 40 28.3158 40.08 27.8518 40.08ZM27.4758 41.824C27.3318 41.824 27.1985 41.808 27.0758 41.776C26.9531 41.7493 26.8411 41.7093 26.7398 41.656L26.9238 41.184C27.0091 41.2267 27.0945 41.2587 27.1798 41.28C27.2705 41.3013 27.3665 41.312 27.4678 41.312C27.6225 41.312 27.7318 41.2853 27.7958 41.232C27.8598 41.1787 27.8918 41.1093 27.8918 41.024C27.8918 40.944 27.8571 40.88 27.7878 40.832C27.7238 40.784 27.6171 40.76 27.4678 40.76H27.2198L27.4358 39.944H27.9798L27.8678 40.392C28.1025 40.4187 28.2758 40.4933 28.3878 40.616C28.5051 40.744 28.5638 40.8933 28.5638 41.064C28.5638 41.2987 28.4651 41.4827 28.2678 41.616C28.0705 41.7547 27.8065 41.824 27.4758 41.824ZM33.5791 40.08C33.1418 40.08 32.7391 40.008 32.3711 39.864C32.0031 39.72 31.6831 39.52 31.4111 39.264C31.1391 39.0027 30.9285 38.6987 30.7791 38.352C30.6298 38 30.5551 37.616 30.5551 37.2C30.5551 36.784 30.6298 36.4027 30.7791 36.056C30.9285 35.704 31.1391 35.4 31.4111 35.144C31.6831 34.8827 32.0031 34.68 32.3711 34.536C32.7391 34.392 33.1391 34.32 33.5711 34.32C34.0085 34.32 34.4085 34.392 34.7711 34.536C35.1391 34.68 35.4591 34.8827 35.7311 35.144C36.0031 35.4 36.2138 35.704 36.3631 36.056C36.5125 36.4027 36.5871 36.784 36.5871 37.2C36.5871 37.616 36.5125 38 36.3631 38.352C36.2138 38.704 36.0031 39.008 35.7311 39.264C35.4591 39.52 35.1391 39.72 34.7711 39.864C34.4085 40.008 34.0111 40.08 33.5791 40.08ZM33.5711 39.168C33.8538 39.168 34.1151 39.12 34.3551 39.024C34.5951 38.928 34.8031 38.792 34.9791 38.616C35.1551 38.4347 35.2911 38.2267 35.3871 37.992C35.4885 37.752 35.5391 37.488 35.5391 37.2C35.5391 36.912 35.4885 36.6507 35.3871 36.416C35.2911 36.176 35.1551 35.968 34.9791 35.792C34.8031 35.6107 34.5951 35.472 34.3551 35.376C34.1151 35.28 33.8538 35.232 33.5711 35.232C33.2885 35.232 33.0271 35.28 32.7871 35.376C32.5525 35.472 32.3445 35.6107 32.1631 35.792C31.9871 35.968 31.8485 36.176 31.7471 36.416C31.6511 36.6507 31.6031 36.912 31.6031 37.2C31.6031 37.4827 31.6511 37.744 31.7471 37.984C31.8485 38.224 31.9871 38.4347 32.1631 38.616C32.3391 38.792 32.5471 38.928 32.7871 39.024C33.0271 39.12 33.2885 39.168 33.5711 39.168ZM39.4255 40.08C38.9882 40.08 38.5695 40.0187 38.1695 39.896C37.7695 39.768 37.4522 39.6053 37.2175 39.408L37.5775 38.6C37.8015 38.776 38.0788 38.9227 38.4095 39.04C38.7402 39.1573 39.0788 39.216 39.4255 39.216C39.7188 39.216 39.9562 39.184 40.1375 39.12C40.3188 39.056 40.4522 38.9707 40.5375 38.864C40.6228 38.752 40.6655 38.6267 40.6655 38.488C40.6655 38.3173 40.6042 38.1813 40.4815 38.08C40.3588 37.9733 40.1988 37.8907 40.0015 37.832C39.8095 37.768 39.5935 37.7093 39.3535 37.656C39.1188 37.6027 38.8815 37.5413 38.6415 37.472C38.4068 37.3973 38.1908 37.304 37.9935 37.192C37.8015 37.0747 37.6442 36.92 37.5215 36.728C37.3988 36.536 37.3375 36.2907 37.3375 35.992C37.3375 35.688 37.4175 35.4107 37.5775 35.16C37.7428 34.904 37.9908 34.7013 38.3215 34.552C38.6575 34.3973 39.0815 34.32 39.5935 34.32C39.9295 34.32 40.2628 34.3627 40.5935 34.448C40.9242 34.5333 41.2122 34.656 41.4575 34.816L41.1295 35.624C40.8788 35.4747 40.6202 35.3653 40.3535 35.296C40.0868 35.2213 39.8308 35.184 39.5855 35.184C39.2975 35.184 39.0628 35.2187 38.8815 35.288C38.7055 35.3573 38.5748 35.448 38.4895 35.56C38.4095 35.672 38.3695 35.8 38.3695 35.944C38.3695 36.1147 38.4282 36.2533 38.5455 36.36C38.6682 36.4613 38.8255 36.5413 39.0175 36.6C39.2148 36.6587 39.4335 36.7173 39.6735 36.776C39.9135 36.8293 40.1508 36.8907 40.3855 36.96C40.6255 37.0293 40.8415 37.12 41.0335 37.232C41.2308 37.344 41.3882 37.496 41.5055 37.688C41.6282 37.88 41.6895 38.1227 41.6895 38.416C41.6895 38.7147 41.6068 38.992 41.4415 39.248C41.2815 39.4987 41.0335 39.7013 40.6975 39.856C40.3615 40.0053 39.9375 40.08 39.4255 40.08Z" fill="#557B83"/>
</svg>
