<svg width="41" height="34" viewBox="0 0 41 34" fill="none" xmlns="http://www.w3.org/2000/svg">
<path d="M13.5 11L15 6.5H26L27.5 11M26 16C25.6022 16 25.2206 15.842 24.9393 15.5607C24.658 15.2794 24.5 14.8978 24.5 14.5C24.5 14.1022 24.658 13.7206 24.9393 13.4393C25.2206 13.158 25.6022 13 26 13C26.3978 13 26.7794 13.158 27.0607 13.4393C27.342 13.7206 27.5 14.1022 27.5 14.5C27.5 14.8978 27.342 15.2794 27.0607 15.5607C26.7794 15.842 26.3978 16 26 16ZM15 16C14.6022 16 14.2206 15.842 13.9393 15.5607C13.658 15.2794 13.5 14.8978 13.5 14.5C13.5 14.1022 13.658 13.7206 13.9393 13.4393C14.2206 13.158 14.6022 13 15 13C15.3978 13 15.7794 13.158 16.0607 13.4393C16.342 13.7206 16.5 14.1022 16.5 14.5C16.5 14.8978 16.342 15.2794 16.0607 15.5607C15.7794 15.842 15.3978 16 15 16ZM27.42 6C27.22 5.42 26.66 5 26 5H15C14.34 5 13.78 5.42 13.58 6L11.5 12V20C11.5 20.2652 11.6054 20.5196 11.7929 20.7071C11.9804 20.8946 12.2348 21 12.5 21H13.5C13.7652 21 14.0196 20.8946 14.2071 20.7071C14.3946 20.5196 14.5 20.2652 14.5 20V19H26.5V20C26.5 20.2652 26.6054 20.5196 26.7929 20.7071C26.9804 20.8946 27.2348 21 27.5 21H28.5C28.7652 21 29.0196 20.8946 29.2071 20.7071C29.3946 20.5196 29.5 20.2652 29.5 20V12L27.42 6Z" fill="#10564F"/>
<path d="M2.448 32.04C2.032 32.04 1.63733 31.9707 1.264 31.832C0.896 31.688 0.610667 31.504 0.408 31.28L0.592 30.976C0.784 31.1733 1.04533 31.3413 1.376 31.48C1.712 31.6133 2.06667 31.68 2.44 31.68C2.81333 31.68 3.11733 31.632 3.352 31.536C3.592 31.4347 3.768 31.3013 3.88 31.136C3.99733 30.9707 4.056 30.7867 4.056 30.584C4.056 30.344 3.992 30.152 3.864 30.008C3.736 29.864 3.568 29.7493 3.36 29.664C3.152 29.5787 2.92533 29.5067 2.68 29.448C2.43467 29.3893 2.18667 29.328 1.936 29.264C1.68533 29.1947 1.456 29.1067 1.248 29C1.04 28.8933 0.872 28.7493 0.744 28.568C0.621333 28.3813 0.56 28.1413 0.56 27.848C0.56 27.5813 0.629333 27.336 0.768 27.112C0.906667 26.888 1.12267 26.7067 1.416 26.568C1.70933 26.4293 2.08533 26.36 2.544 26.36C2.85333 26.36 3.15733 26.4053 3.456 26.496C3.76 26.5867 4.01867 26.7093 4.232 26.864L4.08 27.192C3.84533 27.032 3.592 26.9147 3.32 26.84C3.05333 26.76 2.79467 26.72 2.544 26.72C2.18667 26.72 1.89067 26.7707 1.656 26.872C1.42133 26.9733 1.248 27.1093 1.136 27.28C1.024 27.4453 0.968 27.632 0.968 27.84C0.968 28.08 1.02933 28.272 1.152 28.416C1.28 28.56 1.448 28.6747 1.656 28.76C1.864 28.8453 2.09333 28.9173 2.344 28.976C2.59467 29.0347 2.84267 29.0987 3.088 29.168C3.33333 29.232 3.56 29.3173 3.768 29.424C3.976 29.5307 4.144 29.6747 4.272 29.856C4.4 30.0373 4.464 30.272 4.464 30.56C4.464 30.8213 4.392 31.0667 4.248 31.296C4.104 31.52 3.88267 31.7013 3.584 31.84C3.29067 31.9733 2.912 32.04 2.448 32.04ZM6.211 28.976H9.243V29.336H6.211V28.976ZM6.259 31.632H9.715V32H5.851V26.4H9.595V26.768H6.259V31.632ZM11.2026 32V26.4H13.2106C13.6799 26.4 14.0826 26.4747 14.4186 26.624C14.7546 26.7733 15.0132 26.9893 15.1946 27.272C15.3759 27.5493 15.4666 27.888 15.4666 28.288C15.4666 28.6773 15.3759 29.0133 15.1946 29.296C15.0132 29.5733 14.7546 29.7893 14.4186 29.944C14.0826 30.0933 13.6799 30.168 13.2106 30.168H11.4266L11.6106 29.976V32H11.2026ZM15.0906 32L13.6346 29.968H14.0986L15.5546 32H15.0906ZM11.6106 30L11.4266 29.808H13.2106C13.8132 29.808 14.2692 29.6747 14.5786 29.408C14.8932 29.1413 15.0506 28.768 15.0506 28.288C15.0506 27.8027 14.8932 27.4293 14.5786 27.168C14.2692 26.9013 13.8132 26.768 13.2106 26.768H11.4266L11.6106 26.568V30ZM18.5284 32L16.0324 26.4H16.4804L18.8644 31.752H18.6164L21.0084 26.4H21.4324L18.9364 32H18.5284ZM22.3354 32V26.4H22.7434V32H22.3354ZM27.0628 32.04C26.6468 32.04 26.2601 31.9707 25.9028 31.832C25.5508 31.688 25.2441 31.488 24.9828 31.232C24.7214 30.976 24.5188 30.6773 24.3748 30.336C24.2308 29.9893 24.1588 29.6107 24.1588 29.2C24.1588 28.7893 24.2308 28.4133 24.3748 28.072C24.5188 27.7253 24.7214 27.424 24.9828 27.168C25.2494 26.912 25.5588 26.7147 25.9108 26.576C26.2628 26.432 26.6468 26.36 27.0628 26.36C27.4574 26.36 27.8254 26.424 28.1668 26.552C28.5134 26.68 28.8094 26.8747 29.0548 27.136L28.7988 27.4C28.5588 27.1653 28.2921 26.9973 27.9988 26.896C27.7108 26.7893 27.4041 26.736 27.0788 26.736C26.7214 26.736 26.3881 26.7973 26.0788 26.92C25.7748 27.0427 25.5081 27.216 25.2788 27.44C25.0548 27.664 24.8788 27.9253 24.7508 28.224C24.6281 28.5227 24.5668 28.848 24.5668 29.2C24.5668 29.552 24.6281 29.8773 24.7508 30.176C24.8788 30.4747 25.0548 30.736 25.2788 30.96C25.5081 31.184 25.7748 31.3573 26.0788 31.48C26.3881 31.6027 26.7214 31.664 27.0788 31.664C27.4041 31.664 27.7108 31.6133 27.9988 31.512C28.2921 31.4053 28.5588 31.232 28.7988 30.992L29.0548 31.256C28.8094 31.5173 28.5134 31.7147 28.1668 31.848C27.8254 31.976 27.4574 32.04 27.0628 32.04ZM26.8068 33.736C26.6841 33.736 26.5694 33.72 26.4628 33.688C26.3614 33.656 26.2654 33.6053 26.1748 33.536L26.2868 33.312C26.3614 33.3653 26.4414 33.4053 26.5268 33.432C26.6174 33.464 26.7108 33.48 26.8068 33.48C26.9668 33.48 27.0948 33.4427 27.1908 33.368C27.2868 33.2933 27.3348 33.1893 27.3348 33.056C27.3348 32.9387 27.2894 32.84 27.1988 32.76C27.1081 32.6853 26.9774 32.648 26.8068 32.648H26.6468L26.8308 31.952H27.0948L26.9668 32.432C27.1801 32.4427 27.3454 32.5067 27.4628 32.624C27.5854 32.7413 27.6468 32.8907 27.6468 33.072C27.6468 33.2747 27.5668 33.4347 27.4068 33.552C27.2521 33.6747 27.0521 33.736 26.8068 33.736ZM32.6801 32.04C32.2641 32.04 31.8775 31.9707 31.5201 31.832C31.1681 31.688 30.8588 31.488 30.5921 31.232C30.3308 30.9707 30.1281 30.6693 29.9841 30.328C29.8401 29.9813 29.7681 29.6053 29.7681 29.2C29.7681 28.7947 29.8401 28.4213 29.9841 28.08C30.1281 27.7333 30.3308 27.432 30.5921 27.176C30.8588 26.9147 31.1681 26.7147 31.5201 26.576C31.8775 26.432 32.2641 26.36 32.6801 26.36C33.0961 26.36 33.4801 26.432 33.8321 26.576C34.1895 26.7147 34.4988 26.912 34.7601 27.168C35.0215 27.424 35.2241 27.7253 35.3681 28.072C35.5175 28.4133 35.5921 28.7893 35.5921 29.2C35.5921 29.6107 35.5175 29.9893 35.3681 30.336C35.2241 30.6773 35.0215 30.976 34.7601 31.232C34.4988 31.488 34.1895 31.688 33.8321 31.832C33.4801 31.9707 33.0961 32.04 32.6801 32.04ZM32.6801 31.664C33.0375 31.664 33.3681 31.6027 33.6721 31.48C33.9761 31.3573 34.2401 31.184 34.4641 30.96C34.6881 30.736 34.8615 30.4747 34.9841 30.176C35.1121 29.8773 35.1761 29.552 35.1761 29.2C35.1761 28.8427 35.1121 28.5173 34.9841 28.224C34.8615 27.9253 34.6881 27.664 34.4641 27.44C34.2401 27.216 33.9761 27.0427 33.6721 26.92C33.3681 26.7973 33.0375 26.736 32.6801 26.736C32.3228 26.736 31.9921 26.7973 31.6881 26.92C31.3841 27.0427 31.1175 27.216 30.8881 27.44C30.6641 27.664 30.4881 27.9253 30.3601 28.224C30.2375 28.5173 30.1761 28.8427 30.1761 29.2C30.1761 29.552 30.2375 29.8773 30.3601 30.176C30.4881 30.4747 30.6641 30.736 30.8881 30.96C31.1175 31.184 31.3841 31.3573 31.6881 31.48C31.9921 31.6027 32.3228 31.664 32.6801 31.664ZM38.4793 32.04C38.0633 32.04 37.6686 31.9707 37.2953 31.832C36.9273 31.688 36.6419 31.504 36.4393 31.28L36.6233 30.976C36.8153 31.1733 37.0766 31.3413 37.4073 31.48C37.7433 31.6133 38.0979 31.68 38.4713 31.68C38.8446 31.68 39.1486 31.632 39.3833 31.536C39.6233 31.4347 39.7993 31.3013 39.9113 31.136C40.0286 30.9707 40.0873 30.7867 40.0873 30.584C40.0873 30.344 40.0233 30.152 39.8953 30.008C39.7673 29.864 39.5993 29.7493 39.3913 29.664C39.1833 29.5787 38.9566 29.5067 38.7113 29.448C38.4659 29.3893 38.2179 29.328 37.9673 29.264C37.7166 29.1947 37.4873 29.1067 37.2793 29C37.0713 28.8933 36.9033 28.7493 36.7753 28.568C36.6526 28.3813 36.5913 28.1413 36.5913 27.848C36.5913 27.5813 36.6606 27.336 36.7993 27.112C36.9379 26.888 37.1539 26.7067 37.4473 26.568C37.7406 26.4293 38.1166 26.36 38.5753 26.36C38.8846 26.36 39.1886 26.4053 39.4873 26.496C39.7913 26.5867 40.0499 26.7093 40.2633 26.864L40.1113 27.192C39.8766 27.032 39.6233 26.9147 39.3513 26.84C39.0846 26.76 38.8259 26.72 38.5753 26.72C38.2179 26.72 37.9219 26.7707 37.6873 26.872C37.4526 26.9733 37.2793 27.1093 37.1673 27.28C37.0553 27.4453 36.9993 27.632 36.9993 27.84C36.9993 28.08 37.0606 28.272 37.1833 28.416C37.3113 28.56 37.4793 28.6747 37.6873 28.76C37.8953 28.8453 38.1246 28.9173 38.3753 28.976C38.6259 29.0347 38.8739 29.0987 39.1193 29.168C39.3646 29.232 39.5913 29.3173 39.7993 29.424C40.0073 29.5307 40.1753 29.6747 40.3033 29.856C40.4313 30.0373 40.4953 30.272 40.4953 30.56C40.4953 30.8213 40.4233 31.0667 40.2793 31.296C40.1353 31.52 39.9139 31.7013 39.6153 31.84C39.3219 31.9733 38.9433 32.04 38.4793 32.04Z" fill="#10564F"/>
</svg>
