<svg width="40" height="34" viewBox="0 0 40 34" fill="none" xmlns="http://www.w3.org/2000/svg">
<path d="M14 17C14 15 18 13.9 20 13.9C22 13.9 26 15 26 17V18H14M23 9C23 9.79565 22.6839 10.5587 22.1213 11.1213C21.5587 11.6839 20.7956 12 20 12C19.2044 12 18.4413 11.6839 17.8787 11.1213C17.3161 10.5587 17 9.79565 17 9C17 8.20435 17.3161 7.44129 17.8787 6.87868C18.4413 6.31607 19.2044 6 20 6C20.7956 6 21.5587 6.31607 22.1213 6.87868C22.6839 7.44129 23 8.20435 23 9ZM11 5V19C11 19.5304 11.2107 20.0391 11.5858 20.4142C11.9609 20.7893 12.4696 21 13 21H27C27.5304 21 28.0391 20.7893 28.4142 20.4142C28.7893 20.0391 29 19.5304 29 19V5C29 4.46957 28.7893 3.96086 28.4142 3.58579C28.0391 3.21071 27.5304 3 27 3H13C12.4696 3 11.9609 3.21071 11.5858 3.58579C11.2107 3.96086 11 4.46957 11 5Z" fill="#10564F"/>
<path d="M3.344 32.04C2.928 32.04 2.54133 31.9707 2.184 31.832C1.832 31.688 1.52533 31.488 1.264 31.232C1.00267 30.976 0.8 30.6773 0.656 30.336C0.512 29.9893 0.44 29.6107 0.44 29.2C0.44 28.7893 0.512 28.4133 0.656 28.072C0.8 27.7253 1.00267 27.424 1.264 27.168C1.53067 26.912 1.84 26.7147 2.192 26.576C2.544 26.432 2.928 26.36 3.344 26.36C3.73867 26.36 4.10667 26.424 4.448 26.552C4.79467 26.68 5.09067 26.8747 5.336 27.136L5.08 27.4C4.84 27.1653 4.57333 26.9973 4.28 26.896C3.992 26.7893 3.68533 26.736 3.36 26.736C3.00267 26.736 2.66933 26.7973 2.36 26.92C2.056 27.0427 1.78933 27.216 1.56 27.44C1.336 27.664 1.16 27.9253 1.032 28.224C0.909333 28.5227 0.848 28.848 0.848 29.2C0.848 29.552 0.909333 29.8773 1.032 30.176C1.16 30.4747 1.336 30.736 1.56 30.96C1.78933 31.184 2.056 31.3573 2.36 31.48C2.66933 31.6027 3.00267 31.664 3.36 31.664C3.68533 31.664 3.992 31.6133 4.28 31.512C4.57333 31.4053 4.84 31.232 5.08 30.992L5.336 31.256C5.09067 31.5173 4.79467 31.7147 4.448 31.848C4.10667 31.976 3.73867 32.04 3.344 32.04ZM8.96138 32.04C8.54538 32.04 8.15871 31.9707 7.80138 31.832C7.44938 31.688 7.14004 31.488 6.87338 31.232C6.61204 30.9707 6.40938 30.6693 6.26538 30.328C6.12138 29.9813 6.04938 29.6053 6.04938 29.2C6.04938 28.7947 6.12138 28.4213 6.26538 28.08C6.40938 27.7333 6.61204 27.432 6.87338 27.176C7.14004 26.9147 7.44938 26.7147 7.80138 26.576C8.15871 26.432 8.54538 26.36 8.96138 26.36C9.37738 26.36 9.76138 26.432 10.1134 26.576C10.4707 26.7147 10.78 26.912 11.0414 27.168C11.3027 27.424 11.5054 27.7253 11.6494 28.072C11.7987 28.4133 11.8734 28.7893 11.8734 29.2C11.8734 29.6107 11.7987 29.9893 11.6494 30.336C11.5054 30.6773 11.3027 30.976 11.0414 31.232C10.78 31.488 10.4707 31.688 10.1134 31.832C9.76138 31.9707 9.37738 32.04 8.96138 32.04ZM8.96138 31.664C9.31871 31.664 9.64938 31.6027 9.95338 31.48C10.2574 31.3573 10.5214 31.184 10.7454 30.96C10.9694 30.736 11.1427 30.4747 11.2654 30.176C11.3934 29.8773 11.4574 29.552 11.4574 29.2C11.4574 28.8427 11.3934 28.5173 11.2654 28.224C11.1427 27.9253 10.9694 27.664 10.7454 27.44C10.5214 27.216 10.2574 27.0427 9.95338 26.92C9.64938 26.7973 9.31871 26.736 8.96138 26.736C8.60404 26.736 8.27338 26.7973 7.96938 26.92C7.66538 27.0427 7.39871 27.216 7.16938 27.44C6.94538 27.664 6.76938 27.9253 6.64138 28.224C6.51871 28.5173 6.45738 28.8427 6.45738 29.2C6.45738 29.552 6.51871 29.8773 6.64138 30.176C6.76938 30.4747 6.94538 30.736 7.16938 30.96C7.39871 31.184 7.66538 31.3573 7.96938 31.48C8.27338 31.6027 8.60404 31.664 8.96138 31.664ZM13.2885 32V26.4H13.6325L17.6245 31.496H17.4405V26.4H17.8485V32H17.5125L13.5125 26.904H13.6965V32H13.2885ZM20.8761 32V26.768H18.8601V26.4H23.3001V26.768H21.2841V32H20.8761ZM23.0947 32L25.6707 26.4H26.0787L28.6547 32H28.2147L25.7827 26.656H25.9587L23.5347 32H23.0947ZM24.0387 30.424L24.1747 30.08H27.5267L27.6627 30.424H24.0387ZM30.4621 32V26.768H28.4461V26.4H32.8861V26.768H30.8701V32H30.4621ZM36.1958 32.04C35.7798 32.04 35.3931 31.9707 35.0358 31.832C34.6838 31.688 34.3744 31.488 34.1078 31.232C33.8464 30.9707 33.6438 30.6693 33.4998 30.328C33.3558 29.9813 33.2838 29.6053 33.2838 29.2C33.2838 28.7947 33.3558 28.4213 33.4998 28.08C33.6438 27.7333 33.8464 27.432 34.1078 27.176C34.3744 26.9147 34.6838 26.7147 35.0358 26.576C35.3931 26.432 35.7798 26.36 36.1958 26.36C36.6118 26.36 36.9958 26.432 37.3478 26.576C37.7051 26.7147 38.0144 26.912 38.2758 27.168C38.5371 27.424 38.7398 27.7253 38.8838 28.072C39.0331 28.4133 39.1078 28.7893 39.1078 29.2C39.1078 29.6107 39.0331 29.9893 38.8838 30.336C38.7398 30.6773 38.5371 30.976 38.2758 31.232C38.0144 31.488 37.7051 31.688 37.3478 31.832C36.9958 31.9707 36.6118 32.04 36.1958 32.04ZM36.1958 31.664C36.5531 31.664 36.8838 31.6027 37.1878 31.48C37.4918 31.3573 37.7558 31.184 37.9798 30.96C38.2038 30.736 38.3771 30.4747 38.4998 30.176C38.6278 29.8773 38.6918 29.552 38.6918 29.2C38.6918 28.8427 38.6278 28.5173 38.4998 28.224C38.3771 27.9253 38.2038 27.664 37.9798 27.44C37.7558 27.216 37.4918 27.0427 37.1878 26.92C36.8838 26.7973 36.5531 26.736 36.1958 26.736C35.8384 26.736 35.5078 26.7973 35.2038 26.92C34.8998 27.0427 34.6331 27.216 34.4038 27.44C34.1798 27.664 34.0038 27.9253 33.8758 28.224C33.7531 28.5173 33.6918 28.8427 33.6918 29.2C33.6918 29.552 33.7531 29.8773 33.8758 30.176C34.0038 30.4747 34.1798 30.736 34.4038 30.96C34.6331 31.184 34.8998 31.3573 35.2038 31.48C35.5078 31.6027 35.8384 31.664 36.1958 31.664Z" fill="#10564F"/>
</svg>
