<svg width="40" height="40" viewBox="0 0 40 40" fill="none" xmlns="http://www.w3.org/2000/svg">
<path fill-rule="evenodd" clip-rule="evenodd" d="M26.2083 36.6666V23.7583H30.5417L31.19 18.7283H26.2067V15.5166C26.2067 14.0599 26.6117 13.0666 28.7017 13.0666H31.365V8.56658C30.0752 8.42932 28.7788 8.36256 27.4817 8.36659C23.6417 8.36659 21.0133 10.7116 21.0133 15.0166V18.7283H16.6667V23.7583H21.0117V36.6666H5.17333C4.15666 36.6666 3.33333 35.8433 3.33333 34.8266V5.17325C3.33333 4.15659 4.15666 3.33325 5.17333 3.33325H34.8267C35.8433 3.33325 36.6667 4.15659 36.6667 5.17325V34.8266C36.6667 35.8433 35.8433 36.6666 34.8267 36.6666H26.2083Z" fill="#ADC9C5"/>
</svg>
