<svg width="27" height="34" viewBox="0 0 27 34" fill="none" xmlns="http://www.w3.org/2000/svg">
<path d="M11.5 20V14H15.5V20H20.5V12H23.5L13.5 3L3.5 12H6.5V20H11.5Z" fill="#10564F"/>
<path d="M5.128 26.4H5.536V32H5.128V26.4ZM1.384 32H0.976V26.4H1.384V32ZM5.176 29.336H1.336V28.976H5.176V29.336ZM9.86763 32.04C9.45163 32.04 9.06496 31.9707 8.70763 31.832C8.35563 31.688 8.04629 31.488 7.77963 31.232C7.51829 30.9707 7.31563 30.6693 7.17163 30.328C7.02763 29.9813 6.95563 29.6053 6.95563 29.2C6.95563 28.7947 7.02763 28.4213 7.17163 28.08C7.31563 27.7333 7.51829 27.432 7.77963 27.176C8.04629 26.9147 8.35563 26.7147 8.70763 26.576C9.06496 26.432 9.45163 26.36 9.86763 26.36C10.2836 26.36 10.6676 26.432 11.0196 26.576C11.377 26.7147 11.6863 26.912 11.9476 27.168C12.209 27.424 12.4116 27.7253 12.5556 28.072C12.705 28.4133 12.7796 28.7893 12.7796 29.2C12.7796 29.6107 12.705 29.9893 12.5556 30.336C12.4116 30.6773 12.209 30.976 11.9476 31.232C11.6863 31.488 11.377 31.688 11.0196 31.832C10.6676 31.9707 10.2836 32.04 9.86763 32.04ZM9.86763 31.664C10.225 31.664 10.5556 31.6027 10.8596 31.48C11.1636 31.3573 11.4276 31.184 11.6516 30.96C11.8756 30.736 12.049 30.4747 12.1716 30.176C12.2996 29.8773 12.3636 29.552 12.3636 29.2C12.3636 28.8427 12.2996 28.5173 12.1716 28.224C12.049 27.9253 11.8756 27.664 11.6516 27.44C11.4276 27.216 11.1636 27.0427 10.8596 26.92C10.5556 26.7973 10.225 26.736 9.86763 26.736C9.51029 26.736 9.17963 26.7973 8.87563 26.92C8.57163 27.0427 8.30496 27.216 8.07563 27.44C7.85163 27.664 7.67563 27.9253 7.54763 28.224C7.42496 28.5173 7.36363 28.8427 7.36363 29.2C7.36363 29.552 7.42496 29.8773 7.54763 30.176C7.67563 30.4747 7.85163 30.736 8.07563 30.96C8.30496 31.184 8.57163 31.3573 8.87563 31.48C9.17963 31.6027 9.51029 31.664 9.86763 31.664ZM14.1948 32V26.4H14.5388L17.1388 30.888H16.9548L19.5468 26.4H19.8828L19.8908 32H19.4908L19.4828 27.016H19.5948L17.1388 31.256H16.9388L14.4748 27.016H14.5948V32H14.1948ZM22.2032 28.976H25.2352V29.336H22.2032V28.976ZM22.2512 31.632H25.7072V32H21.8432V26.4H25.5872V26.768H22.2512V31.632Z" fill="#10564F"/>
</svg>
