<svg width="41" height="40" viewBox="0 0 41 40" fill="none" xmlns="http://www.w3.org/2000/svg">
<path d="M20.3333 15.8666C19.5158 15.8666 18.7167 16.109 18.037 16.5632C17.3572 17.0174 16.8275 17.6629 16.5146 18.4182C16.2018 19.1734 16.1199 20.0045 16.2794 20.8063C16.4389 21.6081 16.8326 22.3446 17.4106 22.9226C17.9887 23.5007 18.7252 23.8943 19.5269 24.0538C20.3287 24.2133 21.1598 24.1315 21.9151 23.8186C22.6703 23.5058 23.3159 22.976 23.7701 22.2963C24.2242 21.6166 24.4667 20.8174 24.4667 19.9999C24.4667 19.4571 24.3597 18.9196 24.152 18.4182C23.9443 17.9167 23.6398 17.461 23.256 17.0772C22.8722 16.6934 22.4166 16.3889 21.9151 16.1812C21.4136 15.9735 20.8761 15.8666 20.3333 15.8666ZM36.8833 11.7833C36.8746 10.4962 36.6375 9.22087 36.1833 8.01659C35.8488 7.13535 35.3312 6.33507 34.6647 5.66856C33.9982 5.00205 33.1979 4.48445 32.3167 4.14992C31.1124 3.69569 29.8371 3.45869 28.55 3.44992C26.4 3.33325 25.7667 3.33325 20.3333 3.33325C14.9 3.33325 14.2667 3.33325 12.1167 3.44992C10.8296 3.45869 9.55428 3.69569 8.34999 4.14992C7.46876 4.48445 6.66848 5.00205 6.00197 5.66856C5.33545 6.33507 4.81785 7.13535 4.48332 8.01659C4.0291 9.22087 3.79209 10.4962 3.78332 11.7833C3.66666 13.9333 3.66666 14.5666 3.66666 19.9999C3.66666 25.4333 3.66666 26.0666 3.78332 28.2166C3.80126 29.5082 4.03795 30.7874 4.48332 31.9999C4.81637 32.8771 5.33354 33.6728 5.99999 34.3333C6.66365 35.0038 7.46564 35.5214 8.34999 35.8499C9.55428 36.3041 10.8296 36.5412 12.1167 36.5499C14.2667 36.6666 14.9 36.6666 20.3333 36.6666C25.7667 36.6666 26.4 36.6666 28.55 36.5499C29.8371 36.5412 31.1124 36.3041 32.3167 35.8499C33.201 35.5214 34.003 35.0038 34.6667 34.3333C35.3331 33.6728 35.8503 32.8771 36.1833 31.9999C36.6371 30.7897 36.8741 29.509 36.8833 28.2166C37 26.0666 37 25.4333 37 19.9999C37 14.5666 37 13.9333 36.8833 11.7833ZM32.65 25.1166C32.5965 26.1451 32.377 27.1582 32 28.1166C31.6764 28.9161 31.1954 29.6423 30.5856 30.2522C29.9757 30.862 29.2495 31.343 28.45 31.6666C27.4825 32.0226 26.4638 32.2196 25.4333 32.2499H15.2333C14.2029 32.2196 13.1841 32.0226 12.2167 31.6666C11.3902 31.3594 10.6438 30.8695 10.0333 30.2333C9.42943 29.6353 8.96306 28.913 8.66666 28.1166C8.30925 27.1501 8.11767 26.1302 8.09999 25.0999V14.8999C8.11767 13.8696 8.30925 12.8497 8.66666 11.8833C8.97379 11.0568 9.46378 10.3104 10.1 9.69992C10.7005 9.09929 11.4221 8.63341 12.2167 8.33325C13.1841 7.97726 14.2029 7.78027 15.2333 7.74992H25.4333C26.4638 7.78027 27.4825 7.97726 28.45 8.33325C29.2765 8.64039 30.0229 9.13038 30.6333 9.76659C31.2372 10.3645 31.7036 11.0868 32 11.8833C32.356 12.8507 32.553 13.8695 32.5833 14.8999V19.9999C32.5833 23.4333 32.7 23.7833 32.65 25.0999V25.1166ZM29.9833 12.7166C29.7849 12.1782 29.472 11.6893 29.0663 11.2836C28.6606 10.8779 28.1717 10.565 27.6333 10.3666C26.8941 10.1104 26.1156 9.98624 25.3333 9.99992H15.3333C14.5471 10.0076 13.7684 10.1543 13.0333 10.4333C12.5032 10.6227 12.0195 10.9228 11.6143 11.3136C11.2091 11.7044 10.8918 12.177 10.6833 12.6999C10.4413 13.4422 10.323 14.2192 10.3333 14.9999V24.9999C10.3498 25.7852 10.4963 26.5624 10.7667 27.2999C10.9651 27.8383 11.278 28.3272 11.6837 28.7329C12.0894 29.1386 12.5783 29.4515 13.1167 29.6499C13.8278 29.9114 14.5761 30.0577 15.3333 30.0833H25.3333C26.1195 30.0756 26.8982 29.9289 27.6333 29.6499C28.1717 29.4515 28.6606 29.1386 29.0663 28.7329C29.472 28.3272 29.7849 27.8383 29.9833 27.2999C30.2623 26.5648 30.409 25.7861 30.4167 24.9999V14.9999C30.4171 14.2129 30.2702 13.4328 29.9833 12.6999V12.7166ZM20.3333 26.3666C19.498 26.3666 18.6709 26.2018 17.8994 25.8816C17.1279 25.5615 16.4272 25.0922 15.8373 24.5008C15.2474 23.9094 14.78 23.2074 14.4619 22.4351C14.1438 21.6627 13.9811 20.8352 13.9833 19.9999C13.9833 18.74 14.3571 17.5084 15.0575 16.4611C15.7578 15.4137 16.7531 14.5977 17.9174 14.1163C19.0818 13.6349 20.3627 13.5098 21.5982 13.7568C22.8337 14.0038 23.9681 14.6119 24.8578 15.5039C25.7475 16.396 26.3526 17.532 26.5963 18.7681C26.8401 20.0042 26.7117 21.2848 26.2272 22.4479C25.7428 23.611 24.9242 24.6041 23.875 25.3017C22.8258 25.9993 21.5932 26.3699 20.3333 26.3666ZM27 14.8833C26.6316 14.8443 26.2906 14.6703 26.0428 14.3949C25.795 14.1195 25.6579 13.7621 25.6579 13.3916C25.6579 13.0211 25.795 12.6637 26.0428 12.3883C26.2906 12.1129 26.6316 11.9389 27 11.8999C27.3684 11.9389 27.7094 12.1129 27.9572 12.3883C28.205 12.6637 28.3421 13.0211 28.3421 13.3916C28.3421 13.7621 28.205 14.1195 27.9572 14.3949C27.7094 14.6703 27.3684 14.8443 27 14.8833Z" fill="#ADC9C5"/>
</svg>
