<svg width="21" height="20" viewBox="0 0 21 20" fill="none" xmlns="http://www.w3.org/2000/svg">
<g clip-path="url(#clip0_240_354)">
<path d="M10.5 7.52C10.0095 7.52 9.53002 7.66545 9.12219 7.93795C8.71435 8.21046 8.39648 8.59778 8.20878 9.05095C8.02107 9.50411 7.97196 10.0028 8.06765 10.4838C8.16334 10.9649 8.39954 11.4068 8.74638 11.7536C9.09321 12.1005 9.5351 12.3367 10.0162 12.4323C10.4972 12.528 10.9959 12.4789 11.4491 12.2912C11.9022 12.1035 12.2895 11.7856 12.562 11.3778C12.8346 10.97 12.98 10.4905 12.98 10C12.98 9.67432 12.9159 9.35183 12.7912 9.05095C12.6666 8.75006 12.4839 8.47666 12.2536 8.24638C12.0233 8.01609 11.7499 7.83341 11.4491 7.70878C11.1482 7.58415 10.8257 7.52 10.5 7.52ZM20.43 5.07C20.4247 4.29776 20.2825 3.53257 20.01 2.81C19.8093 2.28126 19.4987 1.80109 19.0988 1.40119C18.6989 1.00128 18.2187 0.690718 17.69 0.49C16.9674 0.217464 16.2022 0.0752609 15.43 0.0699999C14.14 -6.70552e-08 13.76 0 10.5 0C7.24 0 6.86 -6.70552e-08 5.57 0.0699999C4.79776 0.0752609 4.03257 0.217464 3.31 0.49C2.78126 0.690718 2.30109 1.00128 1.90119 1.40119C1.50128 1.80109 1.19072 2.28126 0.99 2.81C0.717464 3.53257 0.575261 4.29776 0.57 5.07C0.5 6.36 0.5 6.74 0.5 10C0.5 13.26 0.5 13.64 0.57 14.93C0.580764 15.705 0.722774 16.4725 0.99 17.2C1.18983 17.7263 1.50013 18.2037 1.9 18.6C2.29819 19.0023 2.77939 19.3129 3.31 19.51C4.03257 19.7825 4.79776 19.9247 5.57 19.93C6.86 20 7.24 20 10.5 20C13.76 20 14.14 20 15.43 19.93C16.2022 19.9247 16.9674 19.7825 17.69 19.51C18.2206 19.3129 18.7018 19.0023 19.1 18.6C19.4999 18.2037 19.8102 17.7263 20.01 17.2C20.2823 16.4739 20.4244 15.7055 20.43 14.93C20.5 13.64 20.5 13.26 20.5 10C20.5 6.74 20.5 6.36 20.43 5.07ZM17.89 13.07C17.8579 13.6871 17.7262 14.295 17.5 14.87C17.3059 15.3497 17.0173 15.7854 16.6514 16.1514C16.2854 16.5173 15.8497 16.8059 15.37 17C14.7895 17.2136 14.1783 17.3318 13.56 17.35H7.44C6.82173 17.3318 6.21049 17.2136 5.63 17C5.1341 16.8157 4.68628 16.5217 4.32 16.14C3.95767 15.7813 3.67784 15.3479 3.5 14.87C3.28556 14.2901 3.17061 13.6782 3.16 13.06V6.94C3.17061 6.32183 3.28556 5.70988 3.5 5.13C3.68428 4.6341 3.97827 4.18628 4.36 3.82C4.72033 3.45962 5.15326 3.18009 5.63 3C6.21049 2.78641 6.82173 2.66821 7.44 2.65H13.56C14.1783 2.66821 14.7895 2.78641 15.37 3C15.8659 3.18428 16.3137 3.47827 16.68 3.86C17.0423 4.21875 17.3222 4.65213 17.5 5.13C17.7136 5.71049 17.8318 6.32173 17.85 6.94V10C17.85 12.06 17.92 12.27 17.89 13.06V13.07ZM16.29 5.63C16.1709 5.30698 15.9832 5.01364 15.7398 4.77021C15.4964 4.52678 15.203 4.33906 14.88 4.22C14.4365 4.06626 13.9693 3.99179 13.5 4H7.5C7.02827 4.00461 6.56107 4.09263 6.12 4.26C5.80193 4.37366 5.51169 4.55371 5.26858 4.7882C5.02547 5.02269 4.83506 5.30624 4.71 5.62C4.56478 6.06537 4.49383 6.5316 4.5 7V13C4.50991 13.4712 4.59777 13.9375 4.76 14.38C4.87906 14.703 5.06678 14.9964 5.31021 15.2398C5.55364 15.4832 5.84698 15.6709 6.17 15.79C6.59667 15.9469 7.04565 16.0347 7.5 16.05H13.5C13.9717 16.0454 14.4389 15.9574 14.88 15.79C15.203 15.6709 15.4964 15.4832 15.7398 15.2398C15.9832 14.9964 16.1709 14.703 16.29 14.38C16.4574 13.9389 16.5454 13.4717 16.55 13V7C16.5503 6.5278 16.4621 6.05972 16.29 5.62V5.63ZM10.5 13.82C9.99882 13.82 9.50257 13.7211 9.03966 13.529C8.57676 13.3369 8.1563 13.0554 7.80238 12.7005C7.44846 12.3457 7.16803 11.9245 6.97714 11.4611C6.78626 10.9977 6.68868 10.5012 6.69 10C6.69 9.24405 6.9143 8.5051 7.33449 7.87669C7.75468 7.24828 8.35187 6.75866 9.05047 6.46983C9.74907 6.181 10.5177 6.10594 11.2589 6.25415C12.0002 6.40236 12.6808 6.76717 13.2147 7.30241C13.7485 7.83764 14.1116 8.51924 14.2578 9.2609C14.4041 10.0026 14.327 10.771 14.0363 11.4688C13.7457 12.1666 13.2545 12.7625 12.625 13.1811C11.9955 13.5996 11.2559 13.822 10.5 13.82ZM14.5 6.93C14.2789 6.9066 14.0744 6.80222 13.9257 6.63697C13.777 6.47172 13.6947 6.25729 13.6947 6.035C13.6947 5.81271 13.777 5.59828 13.9257 5.43303C14.0744 5.26778 14.2789 5.1634 14.5 5.14C14.7211 5.1634 14.9256 5.26778 15.0743 5.43303C15.223 5.59828 15.3053 5.81271 15.3053 6.035C15.3053 6.25729 15.223 6.47172 15.0743 6.63697C14.9256 6.80222 14.7211 6.9066 14.5 6.93Z" fill="#E5EFC1"/>
</g>
<defs>
<clipPath id="clip0_240_354">
<rect width="20" height="20" fill="white" transform="translate(0.5)"/>
</clipPath>
</defs>
</svg>
