<svg width="46" height="46" viewBox="0 0 46 46" fill="none" xmlns="http://www.w3.org/2000/svg">
<path d="M23 17.792C21.97 17.792 20.963 18.0974 20.1066 18.6697C19.2501 19.242 18.5826 20.0553 18.1884 21.007C17.7943 21.9586 17.6911 23.0058 17.8921 24.016C18.093 25.0263 18.589 25.9543 19.3174 26.6826C20.0457 27.411 20.9737 27.907 21.984 28.1079C22.9942 28.3089 24.0414 28.2057 24.993 27.8116C25.9447 27.4174 26.758 26.7499 27.3303 25.8934C27.9026 25.037 28.208 24.03 28.208 23C28.208 22.3161 28.0733 21.6388 27.8116 21.007C27.5498 20.3751 27.1662 19.801 26.6826 19.3174C26.199 18.8338 25.6249 18.4502 24.993 18.1884C24.3612 17.9267 23.6839 17.792 23 17.792ZM43.853 12.647C43.842 11.0253 43.5433 9.4184 42.971 7.901C42.5495 6.79065 41.8973 5.7823 41.0575 4.94249C40.2177 4.10268 39.2094 3.45051 38.099 3.029C36.5816 2.45667 34.9747 2.15805 33.353 2.147C30.644 2 29.846 2 23 2C16.154 2 15.356 2 12.647 2.147C11.0253 2.15805 9.4184 2.45667 7.901 3.029C6.79065 3.45051 5.7823 4.10268 4.94249 4.94249C4.10268 5.7823 3.45051 6.79065 3.029 7.901C2.45667 9.4184 2.15805 11.0253 2.147 12.647C2 15.356 2 16.154 2 23C2 29.846 2 30.644 2.147 33.353C2.1696 34.9804 2.46783 36.5922 3.029 38.12C3.44864 39.2253 4.10027 40.2278 4.94 41.06C5.77621 41.9048 6.78672 42.557 7.901 42.971C9.4184 43.5433 11.0253 43.842 12.647 43.853C15.356 44 16.154 44 23 44C29.846 44 30.644 44 33.353 43.853C34.9747 43.842 36.5816 43.5433 38.099 42.971C39.2133 42.557 40.2238 41.9048 41.06 41.06C41.8997 40.2278 42.5514 39.2253 42.971 38.12C43.5428 36.5952 43.8413 34.9815 43.853 33.353C44 30.644 44 29.846 44 23C44 16.154 44 15.356 43.853 12.647ZM38.519 29.447C38.4516 30.7429 38.175 32.0194 37.7 33.227C37.2923 34.2343 36.6863 35.1494 35.9178 35.9178C35.1494 36.6863 34.2343 37.2923 33.227 37.7C32.008 38.1485 30.7244 38.3968 29.426 38.435H16.574C15.2756 38.3968 13.992 38.1485 12.773 37.7C11.7316 37.313 10.7912 36.6956 10.022 35.894C9.2611 35.1406 8.67347 34.2305 8.3 33.227C7.84967 32.0092 7.60827 30.7242 7.586 29.426V16.574C7.60827 15.2758 7.84967 13.9908 8.3 12.773C8.68699 11.7316 9.30438 10.7912 10.106 10.022C10.8627 9.26521 11.7719 8.6782 12.773 8.3C13.992 7.85145 15.2756 7.60324 16.574 7.565H29.426C30.7244 7.60324 32.008 7.85145 33.227 8.3C34.2684 8.68699 35.2088 9.30438 35.978 10.106C36.7389 10.8594 37.3265 11.7695 37.7 12.773C38.1485 13.992 38.3968 15.2756 38.435 16.574V23C38.435 27.326 38.582 27.767 38.519 29.426V29.447ZM35.159 13.823C34.909 13.1447 34.5148 12.5286 34.0035 12.0174C33.4923 11.5062 32.8763 11.112 32.198 10.862C31.2666 10.5391 30.2856 10.3828 29.3 10.4H16.7C15.7094 10.4097 14.7282 10.5945 13.802 10.946C13.1341 11.1847 12.5246 11.5628 12.014 12.0552C11.5035 12.5476 11.1036 13.1431 10.841 13.802C10.536 14.7373 10.387 15.7163 10.4 16.7V29.3C10.4208 30.2895 10.6053 31.2687 10.946 32.198C11.196 32.8763 11.5902 33.4923 12.1014 34.0035C12.6126 34.5148 13.2287 34.909 13.907 35.159C14.803 35.4885 15.7459 35.6728 16.7 35.705H29.3C30.2906 35.6953 31.2718 35.5105 32.198 35.159C32.8763 34.909 33.4923 34.5148 34.0035 34.0035C34.5148 33.4923 34.909 32.8763 35.159 32.198C35.5105 31.2718 35.6953 30.2906 35.705 29.3V16.7C35.7056 15.7084 35.5204 14.7254 35.159 13.802V13.823ZM23 31.022C21.9475 31.022 20.9054 30.8144 19.9333 30.411C18.9612 30.0076 18.0782 29.4163 17.335 28.6711C16.5918 27.926 16.0029 27.0414 15.602 26.0683C15.2012 25.0951 14.9962 24.0525 14.999 23C14.999 21.4125 15.47 19.8607 16.3524 18.541C17.2348 17.2214 18.4889 16.1932 19.956 15.5866C21.423 14.9801 23.0371 14.8225 24.5938 15.1337C26.1504 15.4449 27.5798 16.2111 28.7008 17.3351C29.8219 18.4591 30.5843 19.8904 30.8914 21.4479C31.1986 23.0054 31.0367 24.619 30.4263 26.0845C29.8159 27.5499 28.7845 28.8013 27.4625 29.6803C26.1405 30.5592 24.5875 31.0262 23 31.022ZM31.4 16.553C30.9358 16.5039 30.5062 16.2847 30.1939 15.9376C29.8817 15.5906 29.7089 15.1403 29.7089 14.6735C29.7089 14.2067 29.8817 13.7564 30.1939 13.4094C30.5062 13.0623 30.9358 12.8431 31.4 12.794C31.8642 12.8431 32.2938 13.0623 32.6061 13.4094C32.9183 13.7564 33.0911 14.2067 33.0911 14.6735C33.0911 15.1403 32.9183 15.5906 32.6061 15.9376C32.2938 16.2847 31.8642 16.5039 31.4 16.553Z" fill="#557B83"/>
</svg>
