<svg width="41" height="40" viewBox="0 0 41 40" fill="none" xmlns="http://www.w3.org/2000/svg">
<path d="M37.3166 10.9116C37.3028 10.1965 37.2454 9.48301 37.145 8.77492C37.0252 8.14509 36.8218 7.53411 36.54 6.95825C35.9231 5.74042 34.9341 4.75088 33.7166 4.13325C33.1445 3.85277 32.5375 3.64987 31.9116 3.52992C31.1981 3.42739 30.479 3.36895 29.7583 3.35492C29.4533 3.34325 29.0583 3.33825 28.875 3.33825L12.4616 3.33325C12.2783 3.33325 11.8833 3.33825 11.5783 3.34992C10.8633 3.3637 10.1497 3.42102 9.44164 3.52159C8.81181 3.64132 8.20083 3.84479 7.62497 4.12659C6.40721 4.74359 5.41769 5.73252 4.79997 6.94992C4.51956 7.52211 4.31667 8.12912 4.19664 8.75492C4.09364 9.46839 4.03464 10.1875 4.01997 10.9083C4.00997 11.2133 4.0033 11.6083 4.0033 11.7916L3.99997 28.2049C3.99997 28.3883 4.00497 28.7833 4.01664 29.0883C4.03041 29.8033 4.08774 30.5168 4.1883 31.2249C4.30806 31.8547 4.51153 32.4657 4.7933 33.0416C5.4103 34.2594 6.39924 35.2489 7.61664 35.8666C8.18884 36.147 8.79585 36.3499 9.42164 36.4699C10.1351 36.5725 10.8543 36.6309 11.575 36.6449C11.88 36.6566 12.275 36.6616 12.4583 36.6616L28.8716 36.6649C29.055 36.6649 29.45 36.6599 29.755 36.6483C30.47 36.6344 31.1836 36.5771 31.8916 36.4766C32.5214 36.3568 33.1324 36.1533 33.7083 35.8716C34.9267 35.2549 35.9168 34.2659 36.535 33.0483C36.8154 32.4761 37.0183 31.8691 37.1383 31.2433C37.2413 30.5298 37.3003 29.8106 37.315 29.0899C37.325 28.7849 37.3316 28.3899 37.3316 28.2066L37.3333 11.7949C37.3333 11.6116 37.3283 11.2166 37.3166 10.9116ZM21.0283 31.5949H21.0233C19.0394 31.5945 17.0872 31.0972 15.345 30.1483L9.04497 31.7999L10.7316 25.6449C9.42572 23.3788 8.90392 20.7451 9.24713 18.1522C9.59034 15.5594 10.7794 13.1521 12.6299 11.3038C14.4805 9.45547 16.8891 8.26929 19.4824 7.92916C22.0756 7.58903 24.7087 8.11397 26.9733 9.42257C29.2379 10.7312 31.0075 12.7504 32.0077 15.167C33.008 17.5837 33.183 20.2629 32.5056 22.7891C31.8283 25.3154 30.3364 27.5476 28.2613 29.1397C26.1862 30.7318 23.6438 31.5948 21.0283 31.5949Z" fill="#ADC9C5"/>
<path d="M21.0333 9.83492C19.2684 9.8344 17.5357 10.3067 16.0152 11.2027C14.4947 12.0987 13.242 13.3858 12.3874 14.9299C11.5328 16.4741 11.1075 18.219 11.1558 19.9832C11.204 21.7474 11.724 23.4664 12.6616 24.9616L12.8966 25.3349L11.8983 28.9783L15.6366 27.9983L15.9966 28.2116C17.5184 29.1129 19.2546 29.5884 21.0233 29.5883H21.0283C23.648 29.5887 26.1605 28.5485 28.0132 26.6964C29.8659 24.8443 30.907 22.3321 30.9075 19.7124C30.9079 17.0927 29.8677 14.5802 28.0156 12.7275C26.1635 10.8748 23.6513 9.83369 21.0316 9.83325L21.0333 9.83492ZM26.84 23.9516C26.6215 24.3124 26.3307 24.624 25.986 24.867C25.6412 25.1099 25.2499 25.2789 24.8366 25.3633C24.2127 25.4703 23.5724 25.4303 22.9666 25.2466C22.3921 25.0676 21.8274 24.8584 21.275 24.6199C19.2245 23.5909 17.4768 22.0465 16.2033 20.1383C15.5086 19.2549 15.0869 18.1879 14.99 17.0683C14.982 16.6061 15.0703 16.1474 15.2493 15.7212C15.4284 15.2951 15.6943 14.911 16.03 14.5933C16.1292 14.4801 16.2507 14.3886 16.3869 14.3247C16.5232 14.2607 16.6712 14.2256 16.8216 14.2216C17.0183 14.2216 17.2166 14.2216 17.39 14.2316C17.5733 14.2399 17.8166 14.1616 18.0566 14.7416C18.3066 15.3349 18.9 16.7966 18.9733 16.9449C19.0204 17.0227 19.0473 17.111 19.0517 17.2018C19.056 17.2925 19.0377 17.383 18.9983 17.4649C18.9235 17.6432 18.8236 17.8099 18.7016 17.9599C18.5516 18.1333 18.39 18.3466 18.2566 18.4799C18.1066 18.6283 17.9533 18.7883 18.125 19.0849C18.5708 19.8483 19.1274 20.5414 19.7766 21.1416C20.481 21.7678 21.2892 22.2664 22.165 22.6149C22.4616 22.7649 22.635 22.7383 22.8083 22.5399C22.9816 22.3416 23.55 21.6733 23.7483 21.3766C23.9466 21.0799 24.1433 21.1299 24.415 21.2283C24.6866 21.3266 26.1483 22.0449 26.445 22.1949C26.7416 22.3449 26.94 22.4166 27.0133 22.5399C27.0946 23.0173 27.0343 23.508 26.84 23.9516Z" fill="#ADC9C5"/>
</svg>
