<svg width="40" height="40" viewBox="0 0 40 40" fill="none" xmlns="http://www.w3.org/2000/svg">
<g clip-path="url(#clip0_182_54)">
<path d="M39.1633 10.3101C38.9373 9.45891 38.4916 8.68201 37.871 8.05722C37.2503 7.43243 36.4763 6.98168 35.6266 6.75011C32.5083 5.90845 19.9999 5.90845 19.9999 5.90845C19.9999 5.90845 7.49161 5.90845 4.37161 6.75011C3.52229 6.98209 2.74876 7.433 2.1284 8.05775C1.50804 8.6825 1.06259 9.45918 0.836606 10.3101C-6.10352e-05 13.4501 -6.10352e-05 20.0001 -6.10352e-05 20.0001C-6.10352e-05 20.0001 -6.10352e-05 26.5501 0.836606 29.6901C1.06258 30.5413 1.50823 31.3182 2.12892 31.943C2.74962 32.5678 3.52357 33.0185 4.37327 33.2501C7.49161 34.0918 19.9999 34.0918 19.9999 34.0918C19.9999 34.0918 32.5083 34.0918 35.6283 33.2501C36.4781 33.0187 37.2521 32.568 37.8728 31.9432C38.4935 31.3184 38.9391 30.5414 39.1649 29.6901C39.9999 26.5501 39.9999 20.0001 39.9999 20.0001C39.9999 20.0001 39.9999 13.4501 39.1633 10.3101ZM15.9083 25.9468V14.0534L26.3633 20.0001L15.9083 25.9468Z" fill="#ADC9C5"/>
</g>
<defs>
<clipPath id="clip0_182_54">
<rect width="40" height="40" fill="white"/>
</clipPath>
</defs>
</svg>
