<svg width="114" height="24" viewBox="0 0 114 24" fill="none" xmlns="http://www.w3.org/2000/svg">
<path d="M5 11L6.5 6.5L17.5 6.5L19 11M17.5 16C17.1022 16 16.7206 15.842 16.4393 15.5607C16.158 15.2794 16 14.8978 16 14.5C16 14.1022 16.158 13.7206 16.4393 13.4393C16.7206 13.158 17.1022 13 17.5 13C17.8978 13 18.2794 13.158 18.5607 13.4393C18.842 13.7206 19 14.1022 19 14.5C19 14.8978 18.842 15.2794 18.5607 15.5607C18.2794 15.842 17.8978 16 17.5 16ZM6.5 16C6.10218 16 5.72064 15.842 5.43934 15.5607C5.15804 15.2794 5 14.8978 5 14.5C5 14.1022 5.15804 13.7206 5.43934 13.4393C5.72064 13.158 6.10218 13 6.5 13C6.89782 13 7.27936 13.158 7.56066 13.4393C7.84196 13.7206 8 14.1022 8 14.5C8 14.8978 7.84196 15.2794 7.56066 15.5607C7.27936 15.842 6.89782 16 6.5 16ZM18.92 6C18.72 5.42 18.16 5 17.5 5L6.5 5C5.84 5 5.28 5.42 5.08 6L3 12L3 20C3 20.2652 3.10536 20.5196 3.29289 20.7071C3.48043 20.8946 3.73478 21 4 21H5C5.26522 21 5.51957 20.8946 5.70711 20.7071C5.89464 20.5196 6 20.2652 6 20V19H18V20C18 20.2652 18.1054 20.5196 18.2929 20.7071C18.4804 20.8946 18.7348 21 19 21H20C20.2652 21 20.5196 20.8946 20.7071 20.7071C20.8946 20.5196 21 20.2652 21 20V12L18.92 6Z" fill="#ADC9C5"/>
<path d="M36.896 18.08C36.064 18.08 35.2747 17.9413 34.528 17.664C33.792 17.376 33.2213 17.008 32.816 16.56L33.184 15.952C33.568 16.3467 34.0907 16.6827 34.752 16.96C35.424 17.2267 36.1333 17.36 36.88 17.36C37.6267 17.36 38.2347 17.264 38.704 17.072C39.184 16.8693 39.536 16.6027 39.76 16.272C39.9947 15.9413 40.112 15.5733 40.112 15.168C40.112 14.688 39.984 14.304 39.728 14.016C39.472 13.728 39.136 13.4987 38.72 13.328C38.304 13.1573 37.8507 13.0133 37.36 12.896C36.8693 12.7787 36.3733 12.656 35.872 12.528C35.3707 12.3893 34.912 12.2133 34.496 12C34.08 11.7867 33.744 11.4987 33.488 11.136C33.2427 10.7627 33.12 10.2827 33.12 9.696C33.12 9.16267 33.2587 8.672 33.536 8.224C33.8133 7.776 34.2453 7.41333 34.832 7.136C35.4187 6.85867 36.1707 6.72 37.088 6.72C37.7067 6.72 38.3147 6.81067 38.912 6.992C39.52 7.17333 40.0373 7.41867 40.464 7.728L40.16 8.384C39.6907 8.064 39.184 7.82933 38.64 7.68C38.1067 7.52 37.5893 7.44 37.088 7.44C36.3733 7.44 35.7813 7.54133 35.312 7.744C34.8427 7.94667 34.496 8.21867 34.272 8.56C34.048 8.89067 33.936 9.264 33.936 9.68C33.936 10.16 34.0587 10.544 34.304 10.832C34.56 11.12 34.896 11.3493 35.312 11.52C35.728 11.6907 36.1867 11.8347 36.688 11.952C37.1893 12.0693 37.6853 12.1973 38.176 12.336C38.6667 12.464 39.12 12.6347 39.536 12.848C39.952 13.0613 40.288 13.3493 40.544 13.712C40.8 14.0747 40.928 14.544 40.928 15.12C40.928 15.6427 40.784 16.1333 40.496 16.592C40.208 17.04 39.7653 17.4027 39.168 17.68C38.5813 17.9467 37.824 18.08 36.896 18.08ZM44.422 11.952H50.486V12.672H44.422V11.952ZM44.518 17.264H51.43V18H43.702V6.8L51.19 6.8V7.536L44.518 7.536V17.264ZM54.4051 18V6.8H58.4211C59.3598 6.8 60.1651 6.94933 60.8371 7.248C61.5091 7.54667 62.0265 7.97867 62.3891 8.544C62.7518 9.09867 62.9331 9.776 62.9331 10.576C62.9331 11.3547 62.7518 12.0267 62.3891 12.592C62.0265 13.1467 61.5091 13.5787 60.8371 13.888C60.1651 14.1867 59.3598 14.336 58.4211 14.336H54.8531L55.2211 13.952V18H54.4051ZM62.1811 18L59.2691 13.936H60.1971L63.1091 18H62.1811ZM55.2211 14L54.8531 13.616H58.4211C59.6265 13.616 60.5385 13.3493 61.1571 12.816C61.7865 12.2827 62.1011 11.536 62.1011 10.576C62.1011 9.60533 61.7865 8.85867 61.1571 8.336C60.5385 7.80267 59.6265 7.536 58.4211 7.536H54.8531L55.2211 7.136V14ZM69.0568 18L64.0648 6.8H64.9608L69.7288 17.504H69.2328L74.0168 6.8H74.8648L69.8728 18H69.0568ZM76.6708 18V6.8H77.4868V18H76.6708ZM86.1255 18.08C85.2935 18.08 84.5202 17.9413 83.8055 17.664C83.1015 17.376 82.4882 16.976 81.9655 16.464C81.4428 15.952 81.0375 15.3547 80.7495 14.672C80.4615 13.9787 80.3175 13.2213 80.3175 12.4C80.3175 11.5787 80.4615 10.8267 80.7495 10.144C81.0375 9.45067 81.4428 8.848 81.9655 8.336C82.4988 7.824 83.1175 7.42933 83.8215 7.152C84.5255 6.864 85.2935 6.72 86.1255 6.72C86.9148 6.72 87.6508 6.848 88.3335 7.104C89.0268 7.36 89.6188 7.74933 90.1095 8.272L89.5975 8.8C89.1175 8.33067 88.5842 7.99467 87.9975 7.792C87.4215 7.57867 86.8082 7.472 86.1575 7.472C85.4428 7.472 84.7762 7.59467 84.1575 7.84C83.5495 8.08533 83.0162 8.432 82.5575 8.88C82.1095 9.328 81.7575 9.85067 81.5015 10.448C81.2562 11.0453 81.1335 11.696 81.1335 12.4C81.1335 13.104 81.2562 13.7547 81.5015 14.352C81.7575 14.9493 82.1095 15.472 82.5575 15.92C83.0162 16.368 83.5495 16.7147 84.1575 16.96C84.7762 17.2053 85.4428 17.328 86.1575 17.328C86.8082 17.328 87.4215 17.2267 87.9975 17.024C88.5842 16.8107 89.1175 16.464 89.5975 15.984L90.1095 16.512C89.6188 17.0347 89.0268 17.4293 88.3335 17.696C87.6508 17.952 86.9148 18.08 86.1255 18.08ZM85.6135 21.472C85.3682 21.472 85.1388 21.44 84.9255 21.376C84.7228 21.312 84.5308 21.2107 84.3495 21.072L84.5735 20.624C84.7228 20.7307 84.8828 20.8107 85.0535 20.864C85.2348 20.928 85.4215 20.96 85.6135 20.96C85.9335 20.96 86.1895 20.8853 86.3815 20.736C86.5735 20.5867 86.6695 20.3787 86.6695 20.112C86.6695 19.8773 86.5788 19.68 86.3975 19.52C86.2162 19.3707 85.9548 19.296 85.6135 19.296H85.2935L85.6615 17.904H86.1895L85.9335 18.864C86.3602 18.8853 86.6908 19.0133 86.9255 19.248C87.1708 19.4827 87.2935 19.7813 87.2935 20.144C87.2935 20.5493 87.1335 20.8693 86.8135 21.104C86.5042 21.3493 86.1042 21.472 85.6135 21.472ZM97.3603 18.08C96.5283 18.08 95.7549 17.9413 95.0403 17.664C94.3363 17.376 93.7176 16.976 93.1843 16.464C92.6616 15.9413 92.2563 15.3387 91.9683 14.656C91.6803 13.9627 91.5363 13.2107 91.5363 12.4C91.5363 11.5893 91.6803 10.8427 91.9683 10.16C92.2563 9.46667 92.6616 8.864 93.1843 8.352C93.7176 7.82933 94.3363 7.42933 95.0403 7.152C95.7549 6.864 96.5283 6.72 97.3603 6.72C98.1923 6.72 98.9603 6.864 99.6643 7.152C100.379 7.42933 100.998 7.824 101.52 8.336C102.043 8.848 102.448 9.45067 102.736 10.144C103.035 10.8267 103.184 11.5787 103.184 12.4C103.184 13.2213 103.035 13.9787 102.736 14.672C102.448 15.3547 102.043 15.952 101.52 16.464C100.998 16.976 100.379 17.376 99.6643 17.664C98.9603 17.9413 98.1923 18.08 97.3603 18.08ZM97.3603 17.328C98.0749 17.328 98.7363 17.2053 99.3443 16.96C99.9523 16.7147 100.48 16.368 100.928 15.92C101.376 15.472 101.723 14.9493 101.968 14.352C102.224 13.7547 102.352 13.104 102.352 12.4C102.352 11.6853 102.224 11.0347 101.968 10.448C101.723 9.85067 101.376 9.328 100.928 8.88C100.48 8.432 99.9523 8.08533 99.3443 7.84C98.7363 7.59467 98.0749 7.472 97.3603 7.472C96.6456 7.472 95.9843 7.59467 95.3763 7.84C94.7683 8.08533 94.2349 8.432 93.7763 8.88C93.3283 9.328 92.9763 9.85067 92.7203 10.448C92.4749 11.0347 92.3523 11.6853 92.3523 12.4C92.3523 13.104 92.4749 13.7547 92.7203 14.352C92.9763 14.9493 93.3283 15.472 93.7763 15.92C94.2349 16.368 94.7683 16.7147 95.3763 16.96C95.9843 17.2053 96.6456 17.328 97.3603 17.328ZM108.959 18.08C108.127 18.08 107.337 17.9413 106.591 17.664C105.855 17.376 105.284 17.008 104.879 16.56L105.247 15.952C105.631 16.3467 106.153 16.6827 106.815 16.96C107.487 17.2267 108.196 17.36 108.943 17.36C109.689 17.36 110.297 17.264 110.767 17.072C111.247 16.8693 111.599 16.6027 111.823 16.272C112.057 15.9413 112.175 15.5733 112.175 15.168C112.175 14.688 112.047 14.304 111.791 14.016C111.535 13.728 111.199 13.4987 110.783 13.328C110.367 13.1573 109.913 13.0133 109.423 12.896C108.932 12.7787 108.436 12.656 107.935 12.528C107.433 12.3893 106.975 12.2133 106.559 12C106.143 11.7867 105.807 11.4987 105.551 11.136C105.305 10.7627 105.183 10.2827 105.183 9.696C105.183 9.16267 105.321 8.672 105.599 8.224C105.876 7.776 106.308 7.41333 106.895 7.136C107.481 6.85867 108.233 6.72 109.151 6.72C109.769 6.72 110.377 6.81067 110.975 6.992C111.583 7.17333 112.1 7.41867 112.527 7.728L112.223 8.384C111.753 8.064 111.247 7.82933 110.703 7.68C110.169 7.52 109.652 7.44 109.151 7.44C108.436 7.44 107.844 7.54133 107.375 7.744C106.905 7.94667 106.559 8.21867 106.335 8.56C106.111 8.89067 105.999 9.264 105.999 9.68C105.999 10.16 106.121 10.544 106.367 10.832C106.623 11.12 106.959 11.3493 107.375 11.52C107.791 11.6907 108.249 11.8347 108.751 11.952C109.252 12.0693 109.748 12.1973 110.239 12.336C110.729 12.464 111.183 12.6347 111.599 12.848C112.015 13.0613 112.351 13.3493 112.607 13.712C112.863 14.0747 112.991 14.544 112.991 15.12C112.991 15.6427 112.847 16.1333 112.559 16.592C112.271 17.04 111.828 17.4027 111.231 17.68C110.644 17.9467 109.887 18.08 108.959 18.08Z" fill="#ADC9C5"/>
</svg>
